{
.appVersion = "1222";
classes = (
{
code = "a b c d e g h i j k l m n o p q r s t u v w x y z\012agrave aacute acircumflex atilde adieresis aring ae\012ccedilla egrave eacute ecircumflex edieresis igrave\012iacute icircumflex idieresis eth ntilde ograve\012oacute ocircumflex otilde odieresis oslash ugrave\012uacute ucircumflex udieresis yacute thorn ydieresis\012germandbls amacron emacron imacron omacron umacron\012abreve cdotaccent dcaron ebreve eogonek gdotaccent\012ibreve dotlessi lslash obreve oe tcaron ubreve\012longs uni0195 uni01BF uni01E3 uni01EB uni021D\012uni0233 uni0237 uni1D79 uni1E8F uni1E9C uniA741\012uniA751 uniA753 uniA757 uniA75D uniA76B uniA76F\012uniA77A uniA77C uniA783 uniA785 uniA787\012# uniFB00 uniFB01 uniFB02 uniFB03 uniFB04\012uniFB05 uniFB06\012# f_f_udieresis f_thorn f_thorn.nordic f_eth.nordic\012# f_j f_udieresis f_odieresis\012";
name = AllLowerCaseexclf;
},
{
code = "agrave acircumflex atilde adieresis aring egrave\012ecircumflex edieresis igrave iacute icircumflex\012idieresis ograve ocircumflex otilde\012ugrave ucircumflex ydieresis amacron\012abreve emacron ebreve imacron ibreve omacron\012obreve umacron ubreve uni01E3\012";
name = HighDiacritics;
},
{
code = "f uniFB00";
name = LowerCase_f;
},
{
code = "acutecomb gravecomb tildecomb circumflexcomb macroncomb\012uni0305 brevecomb dotaccentcomb dieresiscomb ringcomb caroncomb\012uni035B uni1DD1";
name = CombDiacritics;
},
{
code = "zero one two three four five six seven eight nine dollar";
name = FIGURES_LINING_TABULAR;
},
{
code = "zero.tosf one.tosf two.tosf three.tosf four.tosf five.tosf six.tosf seven.tosf eight.tosf nine.tosf dollar.tosf";
name = FIGURES_OLDSTYLE_TABULAR;
},
{
code = "zero.lf one.lf two.lf three.lf four.lf five.lf six.lf seven.lf eight.lf nine.lf dollar.lf";
name = FIGURES_LINING;
},
{
code = "zero.osf one.osf two.osf three.osf four.osf five.osf six.osf seven.osf eight.osf nine.osf dollar.osf";
name = FIGURES_OLDSTYLE;
},
{

glyphs = (
{
glyphname = A;
lastChange = "2019-04-04 00:38:52 +0000";
layers = (
{
anchors = (
{
name = bottom;
position = "{646, 0}";
},
{
name = ogonek;
position = "{1172, 10}";
},
{
name = top;
position = "{644, 1358}";
},
{
name = us;
position = "{1273, 848}";
}
);
layerId = "6CE37295-6E30-426D-87AF-6FEE9061C297";
paths = (
{
closed = 1;
nodes = (
"1205 40 LINE",
"809 1222 LINE SMOOTH",
"791 1276 OFFCURVE",
"775 1331 OFFCURVE",
"762 1385 CURVE",
"668 1385 LINE",
"629 1347 OFFCURVE",
"484 1268 OFFCURVE",
"429 1259 CURVE",
"429 1178 LINE",
"472 1164 OFFCURVE",
"535 1136 OFFCURVE",
"598 941 CURVE SMOOTH",
"889 40 LINE"
);
},
{
closed = 1;
nodes = (
"316 40 LINE",
"672 1205 LINE",
"522 1234 LINE",
"133 40 LINE"
);
},
{
closed = 1;
nodes = (
"929 430 LINE",
"896 531 LINE",
"360 531 LINE",
"325 430 LINE"
);
},
{
closed = 1;
nodes = (
"1316 0 LINE",
"1316 81 LINE",
"1043.992 110.992 LINE",
"683 81 LINE",
"683 0 LINE"
);
},
{
closed = 1;
nodes = (
"522 0 LINE",
"522 81 LINE",
"227 111 LINE",
"22 81 LINE",
"22 0 LINE"
);
}
);
userData = {
assembly = "NPUSHB[ ]\011/* 11 values pushed */
61 56 2 9 8 1 76 32 1 1 73 
MPPEM[ ]\011/* MeasurePixelPerEm */
PUSHB[ ]\011/* 1 value pushed */
51 
LT[ ]\011/* LessThan */
IF[ ]\011/* If */
NPUSHB[ ]\011/* 36 values pushed */
0 8 7 9 7 8 9 128 0 9 0 3 0 9 3 103 0 7 7 74 77 6 4 2 3 0 0 1 97 5 1 1 1 69 1 78 
ELSE[ ]\011/* Else */
MPPEM[ ]\011/* MeasurePixelPerEm */
PUSHB[ ]\011/* 1 value pushed */
60 
LT[ ]\011/* LessThan */
IF[ ]\011/* If */
NPUSHB[ ]\011/* 33 values pushed */
0 8 7 9 7 8 9 128 0 9 0 3 0 9 3 103 6 4 2 3 0 5 1 1 0 1 101 0 7 7 74 7 78 
ELSE[ ]\011/* Else */
NPUSHB[ ]\011/* 41 values pushed */
0 7 8 7 133 0 8 9 8 133 0 9 0 3 0 9 3 103 6 4 2 3 0 1 1 0 89 6 4 2 3 0 0 1 97 5 1 1 0 1 81 
EIF[ ]\011/* EndIf */
EIF[ ]\011/* EndIf */
NPUSHB[ ]\011/* 14 values pushed */
60 58 36 41 35 50 21 53 34 66 17 10 11 31 
CALL[ ]\011/* CallFunction */";
};
width = 1338;
},
{
anchors = (
{
name = bottom;
position = "{577, 0}";
},
{
name = ogonek;
position = "{1065, 10}";
},
{
name = top;
position = "{586, 1358}";
},
{
name = us;
position = "{996, 848}";
}
);
background = {
paths = (
{
closed = 1;
nodes = (
"428 0 LINE",
"428 48 LINE",
"183 78 LINE",
"20 48 LINE",
"20 0 LINE"
);
}
);
};
hints = (
{
horizontal = 1;
origin = "{4, 4}";
target = "{4, 3}";
type = TTStem;
options = 4;
},
{
horizontal = 1;
origin = "{4, 4}";
target = "{3, 4}";
type = Align;
options = 4;
},
{
horizontal = 1;
origin = "{4, 3}";
target = "{4, 1}";
type = Align;
options = 4;
},
{
horizontal = 1;
origin = "{4, 3}";
target = "{3, 3}";
type = Align;
options = 4;
},
{
horizontal = 1;
origin = "{4, 3}";
target = "{3, 1}";
type = Align;
options = 4;
},
{
horizontal = 1;
origin = "{2, 2}";
target = "{2, 3}";
type = TTStem;
options = 4;
},
{
horizontal = 1;
origin = "{0, 5}";
type = Anchor;
},
{
horizontal = 1;
origin = "{4, 4}";
type = Anchor;
},
{
horizontal = 1;
origin = "{4, 4}";
target = "{0, 5}";
other1 = "{1, 1, 2, 2}";
type = Interpolate;
},
{
horizontal = 1;
origin = "{4, 3}";
target = "{4, 4}";
other1 = "{1, 3}";
type = Interpolate;
options = 4;
},
{
horizontal = 1;
origin = "{1, 3}";
target = "{0, 13}";
type = Align;
options = 4;
}
);
layerId = "EBD25FEC-6C57-4903-A936-5FDFC9C63FB2";
paths = (
{
closed = 1;
nodes = (
"1079 25 LINE",
"678 1222 LINE SMOOTH",
"660 1276 OFFCURVE",
"644 1331 OFFCURVE",
"631 1385 CURVE",
"594 1385 LINE",
"579 1355 OFFCURVE",
"508 1273 OFFCURVE",
"473 1259 CURVE",
"473 1211 LINE",
"516 1197 OFFCURVE",
"567 1175 OFFCURVE",
"628 985 CURVE SMOOTH",
"939 25 LINE"
);
},
{
closed = 1;
nodes = (
"231 25 LINE",
"593 1205 LINE",
"529 1234 LINE",
"137 25 LINE"
);
},
{
closed = 1;
nodes = (
"865 453 LINE",
"842 517 LINE",
"342 517 LINE",
"319 453 LINE"
);
},
{
closed = 1;
nodes = (
"1206 0 LINE",
"1206 50 LINE",
"1013 80 LINE",
"737 50 LINE",
"737 0 LINE"
);
},
{
closed = 1;
nodes = (
"434 0 LINE",
"434 50 LINE",
"186 80 LINE",
"20 50 LINE",
"20 0 LINE"
);
}
);
width = 1226;
},
{
anchors = (
{
name = bottom;
position = "{698, 0}";
},
{
name = ogonek;
position = "{1257, 10}";
},
{
name = top;
position = "{677, 1358}";
},
{
name = us;
position = "{1248, 848}";
}
);
layerId = "16DF9356-34D2-4C02-8100-FB39A491A1B7";
paths = (
{
closed = 1;
nodes = (
"1188 25 LINE",
"758 1222 LINE SMOOTH",
"739 1276 OFFCURVE",
"722 1331 OFFCURVE",
"708 1385 CURVE",
"661 1385 LINE",
"641 1349 OFFCURVE",
"571 1281 OFFCURVE",
"524 1259 CURVE",
"524 1209 LINE",
"570 1205 OFFCURVE",
"627 1192 OFFCURVE",
"699 985 CURVE SMOOTH",
"1031 25 LINE"
);
},
{
closed = 1;
nodes = (
"275 25 LINE",
"662 1205 LINE",
"593 1234 LINE",
"174 25 LINE"
);
},
{
closed = 1;
nodes = (
"953 448 LINE",
"928 521 LINE",
"393 521 LINE",
"369 448 LINE"
);
},
{
closed = 1;
nodes = (
"1318 0 LINE",
"1318 50 LINE",
"1115 80 LINE",
"812 50 LINE",
"812 0 LINE"
);
},
{
closed = 1;
nodes = (
"495 0 LINE",
"495 50 LINE",
"226 80 LINE",
"54 50 LINE",
"54 0 LINE"
);
}
);
width = 1373;
},
{
anchors = (
{
name = bottom;
position = "{585, 0}";
},
{
name = ogonek;
position = "{1101, 10}";
},
{
name = top;
position = "{584, 1358}";
},
{
name = us;
position = "{1247, 848}";
}
);
layerId = "20F63CDD-78BD-4F3A-8DC2-32840B76756A";
paths = (
{
closed = 1;
nodes = (
"1112 36 LINE",
"733 1222 LINE SMOOTH",
"716 1276 OFFCURVE",
"700 1328 OFFCURVE",
"686 1385 CURVE",
"609 1385 LINE",
"583 1346 OFFCURVE",
"452 1272 OFFCURVE",
"401 1262 CURVE",
"401 1190 LINE",
"444 1176 OFFCURVE",
"508 1150 OFFCURVE",
"567 954 CURVE SMOOTH",
"841 36 LINE"
);
},
{
closed = 1;
nodes = (
"269 36 LINE",
"609 1205 LINE",
"483 1234 LINE",
"114 36 LINE"
);
},
{
closed = 1;
nodes = (
"870 435 LINE",
"839 533 LINE",
"314 533 LINE",
"282 435 LINE"
);
},
{
closed = 1;
nodes = (
"1208 0 LINE",
"1208 72 LINE",
"993 102 LINE",
"669 72 LINE",
"669 0 LINE"
);
},
{
closed = 1;
nodes = (
"442 0 LINE",
"442 72 LINE",
"193 102 LINE",
"18 72 LINE",
"18 0 LINE"
);
}
);
width = 1226;
}
);
leftKerningGroup = A;
note = A;
rightKerningGroup = A;
unicode = 0041;
},
{
glyphname = Aring;
lastChange = "2019-04-04 00:57:48 +0000";
layers = (
{
anchors = (
{
name = top;
position = "{1154, 1358}";
}
);
layerId = "6CE37295-6E30-426D-87AF-6FEE9061C297";
paths = (
{
closed = 1;
nodes = (
"1207 40 LINE",
"772 1330 LINE",
"521 1183 LINE",
"890 40 LINE"
);
},
{
closed = 1;
nodes = (
"930 430 LINE",
"896 531 LINE",
"360 531 LINE",
"325 430 LINE"
);
},
{
closed = 1;
nodes = (
"809 1219 OFFCURVE",
"930 1323 OFFCURVE",
"930 1452 CURVE SMOOTH",
"930 1586 OFFCURVE",
"812 1683 OFFCURVE",
"652 1683 CURVE SMOOTH",
"490 1683 OFFCURVE",
"373 1583 OFFCURVE",
"373 1452 CURVE SMOOTH",
"373 1321 OFFCURVE",
"496 1219 OFFCURVE",
"652 1219 CURVE SMOOTH"
);
},
{
closed = 1;
nodes = (
"600 1310 OFFCURVE",
"565 1368 OFFCURVE",
"565 1452 CURVE SMOOTH",
"565 1535 OFFCURVE",
"606 1600 OFFCURVE",
"652 1600 CURVE SMOOTH",
"698 1600 OFFCURVE",
"740 1531 OFFCURVE",
"740 1452 CURVE SMOOTH",
"740 1367 OFFCURVE",
"703 1310 OFFCURVE",
"652 1310 CURVE SMOOTH"
);
},
{
closed = 1;
nodes = (
"315 40 LINE",
"696 1283 LINE",
"546 1312 LINE",
"133 40 LINE"
);
},
{
closed = 1;
nodes = (
"1316 0 LINE",
"1316 81 LINE",
"1045 111 LINE",
"684 81 LINE",
"684 0 LINE"
);
},
{
closed = 1;
nodes = (
"522 0 LINE",
"522 81 LINE",
"238 111 LINE",
"22 81 LINE",
"22 0 LINE"
);
}
);
userData = {
assembly = "NPUSHB[ ]\011/* 20 values pushed */
47 1 9 8 50 38 2 10 9 84 1 11 10 60 5 2 0 1 4 76 
MPPEM[ ]\011/* MeasurePixelPerEm */
PUSHB[ ]\011/* 1 value pushed */
51 
LT[ ]\011/* LessThan */
IF[ ]\011/* If */
NPUSHB[ ]\011/* 41 values pushed */
0 6 0 8 9 6 8 105 0 11 0 2 1 11 2 103 0 10 10 9 97 0 9 9 74 77 7 5 3 3 1 1 0 95 4 1 0 0 69 0 78 
ELSE[ ]\011/* Else */
MPPEM[ ]\011/* MeasurePixelPerEm */
PUSHB[ ]\011/* 1 value pushed */
60 
LT[ ]\011/* LessThan */
IF[ ]\011/* If */
NPUSHB[ ]\011/* 38 values pushed */
0 6 0 8 9 6 8 105 0 11 0 2 1 11 2 103 7 5 3 3 1 4 1 0 1 0 99 0 10 10 9 97 0 9 9 74 10 78 
ELSE[ ]\011/* Else */
NPUSHB[ ]\011/* 47 values pushed */
0 6 0 8 9 6 8 105 0 9 0 10 11 9 10 105 0 11 0 2 1 11 2 103 7 5 3 3 1 0 0 1 89 7 5 3 3 1 1 0 95 4 1 0 1 0 79 
EIF[ ]\011/* EndIf */
EIF[ ]\011/* EndIf */
NPUSHB[ ]\011/* 18 values pushed */
88 86 80 79 74 72 40 28 39 34 66 23 53 37 48 12 11 31 
CALL[ ]\011/* CallFunction */";
};
width = 1338;
},
{
anchors = (
{
name = top;
position = "{995, 1358}";
}
);
hints = (
{
horizontal = 1;
origin = "{6, 4}";
target = "{6, 3}";
type = TTStem;
options = 4;
},
{
horizontal = 1;
origin = "{6, 4}";
target = "{5, 4}";
type = Align;
options = 4;
},
{
horizontal = 1;
origin = "{6, 3}";
target = "{6, 1}";
type = Align;
options = 4;
},
{
horizontal = 1;
origin = "{6, 3}";
target = "{5, 3}";
type = Align;
options = 4;
},
{
horizontal = 1;
origin = "{6, 3}";
target = "{5, 1}";
type = Align;
options = 4;
},
{
horizontal = 1;
origin = "{1, 2}";
target = "{1, 3}";
type = TTStem;
options = 4;
},
{
horizontal = 1;
origin = "{6, 4}";
type = Anchor;
},
{
horizontal = 1;
origin = "{2, 5}";
type = Anchor;
},
{
horizontal = 1;
origin = "{6, 4}";
target = "{2, 5}";
other1 = "{1, 2, 4, 1}";
type = Interpolate;
},
{
horizontal = 1;
origin = "{6, 3}";
target = "{6, 4}";
other1 = "{4, 3}";
type = Interpolate;
options = 4;
},
{
horizontal = 1;
origin = "{4, 3}";
target = "{0, 3}";
type = Align;
options = 4;
}
);
layerId = "EBD25FEC-6C57-4903-A936-5FDFC9C63FB2";
paths = (
{
closed = 1;
nodes = (
"1078 25 LINE",
"658 1288 LINE",
"544 1239 LINE",
"934 25 LINE"
);
},
{
closed = 1;
nodes = (
"863 453 LINE",
"840 517 LINE",
"340 517 LINE",
"318 453 LINE"
);
},
{
closed = 1;
nodes = (
"695 1232 OFFCURVE",
"786 1306 OFFCURVE",
"786 1415 CURVE SMOOTH",
"786 1513 OFFCURVE",
"704 1598 OFFCURVE",
"598 1598 CURVE SMOOTH",
"498 1598 OFFCURVE",
"408 1525 OFFCURVE",
"408 1415 CURVE SMOOTH",
"408 1310 OFFCURVE",
"484 1232 OFFCURVE",
"598 1232 CURVE SMOOTH"
);
},
{
closed = 1;
nodes = (
"536 1293 OFFCURVE",
"490 1344 OFFCURVE",
"490 1415 CURVE SMOOTH",
"490 1474 OFFCURVE",
"529 1536 OFFCURVE",
"598 1536 CURVE SMOOTH",
"659 1536 OFFCURVE",
"704 1492 OFFCURVE",
"704 1415 CURVE SMOOTH",
"704 1349 OFFCURVE",
"665 1293 OFFCURVE",
"598 1293 CURVE SMOOTH"
);
},
{
closed = 1;
nodes = (
"232 25 LINE",
"608 1260 LINE",
"544 1289 LINE",
"138 25 LINE"
);
},
{
closed = 1;
nodes = (
"1206 0 LINE",
"1206 50 LINE",
"1008 80 LINE",
"733 50 LINE",
"733 0 LINE"
);
},
{
closed = 1;
nodes = (
"434 0 LINE",
"434 50 LINE",
"186 80 LINE",
"20 50 LINE",
"20 0 LINE"
);
}
);
width = 1226;
},
{
anchors = (
{
name = top;
position = "{1082, 1358}";
}
);
layerId = "16DF9356-34D2-4C02-8100-FB39A491A1B7";
paths = (
{
closed = 1;
nodes = (
"1188 25 LINE",
"727 1308 LINE",
"614 1229 LINE",
"1032 25 LINE"
);
},
{
closed = 1;
nodes = (
"953 449 LINE",
"928 521 LINE",
"393 521 LINE",
"370 449 LINE"
);
},
{
closed = 1;
nodes = (
"759 1232 OFFCURVE",
"850 1306 OFFCURVE",
"850 1416 CURVE SMOOTH",
"850 1513 OFFCURVE",
"768 1599 OFFCURVE",
"661 1599 CURVE SMOOTH",
"561 1599 OFFCURVE",
"470 1525 OFFCURVE",
"470 1416 CURVE SMOOTH",
"470 1310 OFFCURVE",
"547 1232 OFFCURVE",
"661 1232 CURVE SMOOTH"
);
},
{
closed = 1;
nodes = (
"600 1293 OFFCURVE",
"553 1344 OFFCURVE",
"553 1416 CURVE SMOOTH",
"553 1474 OFFCURVE",
"593 1537 OFFCURVE",
"661 1537 CURVE SMOOTH",
"722 1537 OFFCURVE",
"768 1492 OFFCURVE",
"768 1416 CURVE SMOOTH",
"768 1349 OFFCURVE",
"728 1293 OFFCURVE",
"661 1293 CURVE SMOOTH"
);
},
{
closed = 1;
nodes = (
"275 25 LINE",
"679 1259 LINE",
"611 1288 LINE",
"174 25 LINE"
);
},
{
closed = 1;
nodes = (
"1318 0 LINE",
"1318 50 LINE",
"1116 80 LINE",
"812 50 LINE",
"812 0 LINE"
);
},
{
closed = 1;
nodes = (
"495 0 LINE",
"495 50 LINE",
"228 80 LINE",
"54 50 LINE",
"54 0 LINE"
);
}
);
width = 1373;
},
{
anchors = (
{
name = top;
position = "{1086, 1358}";
}
);
layerId = "20F63CDD-78BD-4F3A-8DC2-32840B76756A";
paths = (
{
closed = 1;
nodes = (
"1113 36 LINE",
"703 1319 LINE",
"494 1196 LINE",
"843 36 LINE"
);
},
{
closed = 1;
nodes = (
"870 435 LINE",
"839 533 LINE",
"314 533 LINE",
"283 435 LINE"
);
},
{
closed = 1;
nodes = (
"737 1223 OFFCURVE",
"849 1318 OFFCURVE",
"849 1442 CURVE SMOOTH",
"849 1564 OFFCURVE",
"742 1658 OFFCURVE",
"597 1658 CURVE SMOOTH",
"453 1658 OFFCURVE",
"344 1566 OFFCURVE",
"344 1442 CURVE SMOOTH",
"344 1318 OFFCURVE",
"454 1223 OFFCURVE",
"597 1223 CURVE SMOOTH"
);
},
{
closed = 1;
nodes = (
"543 1305 OFFCURVE",
"504 1362 OFFCURVE",
"504 1442 CURVE SMOOTH",
"504 1517 OFFCURVE",
"546 1582 OFFCURVE",
"597 1582 CURVE SMOOTH",
"648 1582 OFFCURVE",
"691 1519 OFFCURVE",
"691 1442 CURVE SMOOTH",
"691 1362 OFFCURVE",
"653 1305 OFFCURVE",
"597 1305 CURVE SMOOTH"
);
},
{
closed = 1;
nodes = (
"269 36 LINE",
"626 1265 LINE",
"501 1294 LINE",
"114 36 LINE"
);
},
{
closed = 1;
nodes = (
"1208 0 LINE",
"1208 72 LINE",
"994 102 LINE",
"669 72 LINE",
"669 0 LINE"
);
},
{
closed = 1;
nodes = (
"442 0 LINE",
"442 72 LINE",
"194 102 LINE",
"18 72 LINE",
"18 0 LINE"
);
}
);
width = 1226;
}
);
leftKerningGroup = A;
leftMetricsKey = "=A";
note = Aring;
rightKerningGroup = A;
rightMetricsKey = "=A";
unicode = 00C5;
},
{
glyphname = AE;
lastChange = "2019-04-04 01:03:55 +0000";
layers = (
{
anchors = (
{
name = bottom;
position = "{1092, 0}";
},
{
name = top;
position = "{1328, 1358}";
},
{
name = us;
position = "{2142, 848}";
}
);
layerId = "6CE37295-6E30-426D-87AF-6FEE9061C297";
paths = (
{
closed = 1;
nodes = (
"1989 0 LINE",
"1989 356 LINE",
"1928 356 LINE",
"1812 157 LINE SMOOTH",
"1787 117 OFFCURVE",
"1736 101 OFFCURVE",
"1689 101 CURVE SMOOTH",
"1185 101 LINE",
"1285 36 LINE",
"1285 1257 LINE",
"1616 1257 LINE SMOOTH",
"1689 1257 OFFCURVE",
"1712 1245 OFFCURVE",
"1739 1203 CURVE SMOOTH",
"1871 999 LINE",
"1932 999 LINE",
"1932 1358 LINE",
"662 1358 LINE",
"662 1267 LINE",
"784 1267 OFFCURVE",
"912 1222 OFFCURVE",
"978 1153 CURVE",
"978 51 LINE",
"1107 133 LINE",
"810 81 LINE",
"810 0 LINE"
);
},
{
closed = 1;
nodes = (
"553 0 LINE",
"553 81 LINE",
"245 111 LINE",
"22 81 LINE",
"22 0 LINE"
);
},
{
closed = 1;
nodes = (
"321 40 LINE",
"982 1240 LINE",
"854 1311 LINE",
"139 40 LINE"
);
},
{
closed = 1;
nodes = (
"1577 587 LINE",
"1577 688 LINE",
"584 688 LINE",
"527 587 LINE"
);
},
{
closed = 1;
nodes = (
"1645 416 LINE",
"1645 882 LINE",
"1518 882 LINE",
"1518 416 LINE"
);
}
);
userData = {
assembly = "NPUSHB[ ]\011/* 13 values pushed */
97 71 57 3 9 6 92 78 2 1 2 2 76 
MPPEM[ ]\011/* MeasurePixelPerEm */
PUSHB[ ]\011/* 1 value pushed */
51 
LT[ ]\011/* LessThan */
IF[ ]\011/* If */
NPUSHB[ ]\011/* 36 values pushed */
12 1 9 10 1 2 1 9 2 103 8 1 6 6 7 95 0 7 7 68 77 11 5 3 3 1 1 0 95 4 1 0 0 69 0 78 
ELSE[ ]\011/* Else */
MPPEM[ ]\011/* MeasurePixelPerEm */
PUSHB[ ]\011/* 1 value pushed */
60 
LT[ ]\011/* LessThan */
IF[ ]\011/* If */
NPUSHB[ ]\011/* 33 values pushed */
12 1 9 10 1 2 1 9 2 103 11 5 3 3 1 4 1 0 1 0 99 8 1 6 6 7 95 0 7 7 68 6 78 
ELSE[ ]\011/* Else */
NPUSHB[ ]\011/* 42 values pushed */
0 7 8 1 6 9 7 6 105 12 1 9 10 1 2 1 9 2 103 11 5 3 3 1 0 0 1 89 11 5 3 3 1 1 0 95 4 1 0 1 0 79 
EIF[ ]\011/* EndIf */
EIF[ ]\011/* EndIf */
NPUSHB[ ]\011/* 20 values pushed */
108 105 91 88 85 82 70 67 56 114 23 34 82 21 51 34 99 13 11 31 
CALL[ ]\011/* CallFunction */";
};
width = 2004;
},
{
anchors = (
{
name = bottom;
position = "{992, 0}";
},
{
name = top;
position = "{1251, 1358}";
},
{
name = us;
position = "{1992, 848}";
}
);
annotations = (
{
position = "{1818.205, 1031.361}";
text = "Transition of serif is a 123x56 box. Set handles for an abrupt transition. Width at wide end = stem x 1.35, at narrow end stem / 4.8";
type = Text;
width = 137;
}
);
hints = (
{
horizontal = 1;
origin = "{1, 4}";
target = "{1, 3}";
type = TTStem;
options = 4;
},
{
horizontal = 1;
origin = "{1, 4}";
target = "{0, 25}";
type = Align;
options = 4;
},
{
horizontal = 1;
origin = "{1, 3}";
target = "{1, 1}";
type = Align;
options = 4;
},
{
horizontal = 1;
origin = "{1, 3}";
target = "{0, 24}";
type = Align;
options = 4;
},
{
horizontal = 1;
origin = "{1, 3}";
target = "{0, 7, 0, 9}";
type = Align;
options = 4;
},
{
horizontal = 1;
origin = "{0, 17}";
target = "{0, 18}";
type = TTStem;
options = 4;
},
{
horizontal = 1;
origin = "{0, 18}";
target = "{0, 9}";
type = Align;
options = 4;
},
{
horizontal = 1;
origin = "{3, 2}";
target = "{3, 3}";
type = TTStem;
options = 4;
},
{
origin = "{0, 22}";
type = Anchor;
},
{
origin = "{0, 22}";
target = "{0, 8}";
type = TTStem;
options = 4;
},
{
origin = "{0, 1}";
type = Anchor;
},
{
origin = "{0, 1}";
target = "{0, 2}";
type = TTStem;
options = 4;
},
{
origin = "{0, 15}";
type = Anchor;
},
{
origin = "{0, 15}";
target = "{0, 14}";
type = TTStem;
options = 4;
},
{
origin = "{4, 1}";
type = Anchor;
},
{
origin = "{4, 1}";
target = "{4, 2}";
type = TTStem;
options = 4;
},
{
horizontal = 1;
origin = "{1, 4}";
type = Anchor;
},
{
horizontal = 1;
origin = "{0, 17}";
type = Anchor;
},
{
horizontal = 1;
origin = "{1, 4}";
target = "{0, 17}";
other1 = "{3, 2}";
type = Interpolate;
},
{
horizontal = 1;
origin = "{1, 3}";
target = "{1, 4}";
other1 = "{2, 3}";
type = Interpolate;
options = 4;
}
);
layerId = "EBD25FEC-6C57-4903-A936-5FDFC9C63FB2";
paths = (
{
closed = 1;
nodes = (
"1760 0 LINE",
"1760 343 LINE",
"1734 343 LINE",
"1639 119 LINE SMOOTH",
"1617 68 OFFCURVE",
"1581 63 OFFCURVE",
"1516 63 CURVE SMOOTH",
"998 63 LINE",
"1046 31 LINE",
"1046 1295 LINE",
"1465 1295 LINE SMOOTH",
"1537 1295 OFFCURVE",
"1569 1280 OFFCURVE",
"1588 1227 CURVE SMOOTH",
"1668 1014 LINE",
"1694 1014 LINE",
"1694 1358 LINE",
"690 1358 LINE",
"690 1296 LINE",
"770 1296 OFFCURVE",
"855 1276 OFFCURVE",
"913 1232 CURVE",
"913 27 LINE",
"969 89 LINE",
"717 50 LINE",
"717 0 LINE"
);
},
{
closed = 1;
nodes = (
"470 0 LINE",
"470 50 LINE",
"196 80 LINE",
"20 50 LINE",
"20 0 LINE"
);
},
{
closed = 1;
nodes = (
"232 25 LINE",
"919 1292 LINE",
"848 1330 LINE",
"126 25 LINE"
);
},
{
closed = 1;
nodes = (
"1424 610 LINE",
"1424 673 LINE",
"527 673 LINE",
"494 610 LINE"
);
},
{
closed = 1;
nodes = (
"1459 423 LINE",
"1459 874 LINE",
"1390 874 LINE",
"1390 423 LINE"
);
}
);
width = 1795;
},
{
anchors = (
{
name = bottom;
position = "{1087, 0}";
},
{
name = top;
position = "{1346, 1358}";
},
{
name = us;
position = "{2128, 848}";
}
);
layerId = "16DF9356-34D2-4C02-8100-FB39A491A1B7";
paths = (
{
closed = 1;
nodes = (
"1947 0 LINE",
"1947 343 LINE",
"1918 343 LINE",
"1841 129 LINE SMOOTH",
"1828 95 OFFCURVE",
"1771 73 OFFCURVE",
"1718 73 CURVE SMOOTH",
"1094 73 LINE",
"1151 30 LINE",
"1151 1285 LINE",
"1655 1285 LINE SMOOTH",
"1732 1285 OFFCURVE",
"1764 1271 OFFCURVE",
"1778 1230 CURVE SMOOTH",
"1852 1007 LINE",
"1880 1007 LINE",
"1880 1358 LINE",
"784 1358 LINE",
"784 1286 LINE",
"878 1286 OFFCURVE",
"962 1264 OFFCURVE",
"1008 1211 CURVE",
"1008 24 LINE",
"1069 89 LINE",
"813 50 LINE",
"813 0 LINE"
);
},
{
closed = 1;
nodes = (
"511 0 LINE",
"511 50 LINE",
"233 80 LINE",
"54 50 LINE",
"54 0 LINE"
);
},
{
closed = 1;
nodes = (
"270 25 LINE",
"1025 1294 LINE",
"946 1329 LINE",
"157 25 LINE"
);
},
{
closed = 1;
nodes = (
"1604 604 LINE",
"1604 677 LINE",
"612 677 LINE",
"579 604 LINE"
);
},
{
closed = 1;
nodes = (
"1644 418 LINE",
"1644 878 LINE",
"1569 878 LINE",
"1569 418 LINE"
);
}
);
width = 1984;
},
{
anchors = (
{
name = bottom;
position = "{990, 0}";
},
{
name = top;
position = "{1258, 1358}";
},
{
name = us;
position = "{2033, 848}";
}
);
layerId = "20F63CDD-78BD-4F3A-8DC2-32840B76756A";
paths = (
{
closed = 1;
nodes = (
"1762 0 LINE",
"1762 355 LINE",
"1704 355 LINE",
"1593 154 LINE SMOOTH",
"1569 113 OFFCURVE",
"1518 98 OFFCURVE",
"1470 98 CURVE SMOOTH",
"1056 98 LINE",
"1133 29 LINE",
"1133 1260 LINE",
"1392 1260 LINE SMOOTH",
"1465 1260 OFFCURVE",
"1489 1248 OFFCURVE",
"1515 1205 CURVE SMOOTH",
"1639 1000 LINE",
"1696 1000 LINE",
"1696 1358 LINE",
"604 1358 LINE",
"604 1276 LINE",
"707 1276 OFFCURVE",
"830 1243 OFFCURVE",
"877 1187 CURVE",
"877 25 LINE",
"936 103 LINE",
"721 72 LINE",
"721 0 LINE"
);
},
{
closed = 1;
nodes = (
"489 0 LINE",
"489 72 LINE",
"208 102 LINE",
"18 72 LINE",
"18 0 LINE"
);
},
{
closed = 1;
nodes = (
"277 36 LINE",
"896 1252 LINE",
"783 1314 LINE",
"123 36 LINE"
);
},
{
closed = 1;
nodes = (
"1405 591 LINE",
"1405 689 LINE",
"521 689 LINE",
"473 591 LINE"
);
},
{
closed = 1;
nodes = (
"1465 418 LINE",
"1465 880 LINE",
"1357 880 LINE",
"1357 418 LINE"
);
}
);
width = 1797;
}
);
leftKerningGroup = AE;
leftMetricsKey = A;
note = AE;
rightMetricsKey = E;
unicode = 00C6;
},
{
glyphname = B;
lastChange = "2019-04-04 01:03:24 +0000";
layers = (
{
anchors = (
{
name = bottom;
position = "{588, 0}";
},
{
name = top;
position = "{588, 1358}";
},
{
name = us;
position = "{1554, 848}";
}
);
layerId = "6CE37295-6E30-426D-87AF-6FEE9061C297";
paths = (
{
closed = 1;
nodes = (
"639 0 LINE SMOOTH",
"1017 0 OFFCURVE",
"1238 117 OFFCURVE",
"1238 362 CURVE SMOOTH",
"1238 538 OFFCURVE",
"1107 672 OFFCURVE",
"887 736 CURVE",
"1065 798 OFFCURVE",
"1154 893 OFFCURVE",
"1154 1022 CURVE SMOOTH",
"1154 1224 OFFCURVE",
"961 1358 OFFCURVE",
"635 1358 CURVE SMOOTH",
"198 1358 LINE",
"198 0 LINE"
);
},
{
closed = 1;
nodes = (
"355 0 LINE",
"355 111 LINE",
"29 81 LINE",
"29 0 LINE"
);
},
{
closed = 1;
nodes = (
"505 672 LINE",
"567 672 OFFCURVE",
"631 664 OFFCURVE",
"687 643 CURVE SMOOTH",
"783 606 OFFCURVE",
"851 528 OFFCURVE",
"851 370 CURVE SMOOTH",
"851 183 OFFCURVE",
"784 93 OFFCURVE",
"583 93 CURVE SMOOTH",
"505 93 LINE"
);
},
{
closed = 1;
nodes = (
"355 1358 LINE",
"29 1358 LINE",
"29 1277 LINE",
"355 1247 LINE"
);
},
{
closed = 1;
nodes = (
"505 1265 LINE",
"693 1260 OFFCURVE",
"785 1175 OFFCURVE",
"785 1011 CURVE SMOOTH",
"785 846 OFFCURVE",
"705 775 OFFCURVE",
"505 772 CURVE"
);
}
);
userData = {
assembly = "PUSHB[ ]\011/* 6 values pushed */
47 1 4 1 1 76 
MPPEM[ ]\011/* MeasurePixelPerEm */
PUSHB[ ]\011/* 1 value pushed */
34 
LT[ ]\011/* LessThan */
IF[ ]\011/* If */
NPUSHB[ ]\011/* 32 values pushed */
0 4 0 7 0 4 7 105 5 1 1 1 2 95 0 2 2 68 77 6 1 0 0 3 95 8 1 3 3 69 3 78 
ELSE[ ]\011/* Else */
MPPEM[ ]\011/* MeasurePixelPerEm */
PUSHB[ ]\011/* 1 value pushed */
51 
LT[ ]\011/* LessThan */
IF[ ]\011/* If */
NPUSHB[ ]\011/* 38 values pushed */
0 1 5 4 5 1 114 0 4 0 7 0 4 7 105 0 5 5 2 95 0 2 2 68 77 6 1 0 0 3 95 8 1 3 3 69 3 78 
ELSE[ ]\011/* Else */
MPPEM[ ]\011/* MeasurePixelPerEm */
PUSHB[ ]\011/* 1 value pushed */
60 
LT[ ]\011/* LessThan */
IF[ ]\011/* If */
NPUSHB[ ]\011/* 35 values pushed */
0 1 5 4 5 1 114 0 4 0 7 0 4 7 105 6 1 0 8 1 3 0 3 99 0 5 5 2 95 0 2 2 68 5 78 
ELSE[ ]\011/* Else */
MPPEM[ ]\011/* MeasurePixelPerEm */
PUSHB[ ]\011/* 1 value pushed */
93 
LT[ ]\011/* LessThan */
IF[ ]\011/* If */
NPUSHB[ ]\011/* 42 values pushed */
0 1 5 4 5 1 114 0 2 0 5 1 2 5 105 0 4 0 7 0 4 7 105 6 1 0 3 3 0 89 6 1 0 0 3 95 8 1 3 0 3 79 
ELSE[ ]\011/* Else */
NPUSHB[ ]\011/* 47 values pushed */
0 1 5 4 5 1 114 0 0 7 6 6 0 114 0 2 0 5 1 2 5 105 0 4 0 7 0 4 7 105 0 6 3 3 6 89 0 6 6 3 96 8 1 3 6 3 80 
EIF[ ]\011/* EndIf */
EIF[ ]\011/* EndIf */
EIF[ ]\011/* EndIf */
EIF[ ]\011/* EndIf */
NPUSHB[ ]\011/* 20 values pushed */
0 0 55 54 51 49 45 44 40 38 0 34 0 30 98 20 34 9 11 25 
CALL[ ]\011/* CallFunction */";
};
width = 1261;
},
{
anchors = (
{
name = bottom;
position = "{568, 0}";
},
{
name = top;
position = "{568, 1358}";
},
{
name = us;
position = "{1247, 848}";
}
);
hints = (
{
horizontal = 1;
origin = "{1, 3}";
target = "{1, 2}";
type = TTStem;
options = 4;
},
{
horizontal = 1;
origin = "{1, 3}";
target = "{0, 0}";
type = Align;
options = 4;
},
{
horizontal = 1;
origin = "{1, 2}";
target = "{2, 10}";
type = Align;
options = 4;
},
{
horizontal = 1;
origin = "{3, 1}";
target = "{3, 2}";
type = TTStem;
options = 4;
},
{
horizontal = 1;
origin = "{3, 1}";
target = "{0, 13}";
type = Align;
options = 4;
},
{
horizontal = 1;
origin = "{3, 2}";
target = "{4, 0}";
type = Align;
options = 4;
},
{
horizontal = 1;
origin = "{2, 10}";
target = "{4, 0}";
other1 = "{4, 6}";
type = Interpolate;
},
{
horizontal = 1;
origin = "{4, 6}";
target = "{2, 0}";
type = TTStem;
options = 4;
},
{
origin = "{0, 14}";
type = Anchor;
},
{
origin = "{0, 14}";
target = "{2, 10}";
type = TTStem;
options = 4;
},
{
origin = "{0, 3}";
type = Anchor;
},
{
origin = "{0, 3}";
target = "{2, 6}";
type = TTStem;
options = 4;
},
{
origin = "{0, 9}";
type = Anchor;
},
{
origin = "{0, 9}";
target = "{4, 3}";
type = TTStem;
options = 4;
},
{
horizontal = 1;
origin = "{4, 6}";
target = "{2, 0}";
other1 = "{0, 6}";
type = Interpolate;
options = 4;
},
{
horizontal = 1;
origin = "{3, 1}";
type = Anchor;
},
{
horizontal = 1;
origin = "{1, 3}";
type = Anchor;
}
);
layerId = "EBD25FEC-6C57-4903-A936-5FDFC9C63FB2";
paths = (
{
closed = 1;
nodes = (
"593 0 LINE SMOOTH",
"980 0 OFFCURVE",
"1079 155 OFFCURVE",
"1079 348 CURVE SMOOTH",
"1079 531 OFFCURVE",
"982 662 OFFCURVE",
"734 731 CURVE",
"928 794 OFFCURVE",
"987 885 OFFCURVE",
"987 1034 CURVE SMOOTH",
"987 1248 OFFCURVE",
"829 1358 OFFCURVE",
"592 1358 CURVE SMOOTH",
"265 1358 LINE",
"265 0 LINE"
);
},
{
closed = 1;
nodes = (
"361.992 0 LINE",
"362 80 LINE",
"70 50 LINE",
"70 0 LINE"
);
},
{
closed = 1;
nodes = (
"398 686 LINE",
"536 686 OFFCURVE",
"622 678 OFFCURVE",
"686 656 CURVE SMOOTH",
"841 604 OFFCURVE",
"925 514 OFFCURVE",
"925 372 CURVE SMOOTH",
"925 166 OFFCURVE",
"815 63 OFFCURVE",
"576 63 CURVE SMOOTH",
"398 63 LINE"
);
},
{
closed = 1;
nodes = (
"361.992 1358 LINE",
"70 1358 LINE",
"70 1308 LINE",
"362 1278 LINE"
);
},
{
closed = 1;
nodes = (
"398 1295 LINE",
"710 1295 OFFCURVE",
"841 1231 OFFCURVE",
"841 1031 CURVE SMOOTH",
"841 815 OFFCURVE",
"722 750 OFFCURVE",
"398 749 CURVE"
);
}
);
width = 1137;
},
{
anchors = (
{
name = bottom;
position = "{572, 0}";
},
{
name = top;
position = "{572, 1358}";
},
{
name = us;
position = "{1354, 848}";
}
);
layerId = "16DF9356-34D2-4C02-8100-FB39A491A1B7";
paths = (
{
closed = 1;
nodes = (
"622 0 LINE SMOOTH",
"1045 0 OFFCURVE",
"1154 155 OFFCURVE",
"1154 348 CURVE SMOOTH",
"1154 531 OFFCURVE",
"1059 672 OFFCURVE",
"820 731 CURVE",
"999 794 OFFCURVE",
"1053 885 OFFCURVE",
"1053 1034 CURVE SMOOTH",
"1053 1248 OFFCURVE",
"881 1358 OFFCURVE",
"622 1358 CURVE SMOOTH",
"269 1358 LINE",
"269 0 LINE"
);
},
{
closed = 1;
nodes = (
"396 0 LINE",
"396 80 LINE",
"73 50 LINE",
"73 0 LINE"
);
},
{
closed = 1;
nodes = (
"412 682 LINE",
"570 682 OFFCURVE",
"655 677 OFFCURVE",
"724 656 CURVE SMOOTH",
"889 606 OFFCURVE",
"994 514 OFFCURVE",
"994 372 CURVE SMOOTH",
"994 172 OFFCURVE",
"894 72 OFFCURVE",
"574 72 CURVE SMOOTH",
"412 72 LINE"
);
},
{
closed = 1;
nodes = (
"396 1358 LINE",
"73 1358 LINE",
"73 1298 LINE",
"396 1268 LINE"
);
},
{
closed = 1;
nodes = (
"412 1286 LINE",
"769 1285 OFFCURVE",
"895 1231 OFFCURVE",
"895 1031 CURVE SMOOTH",
"895 828 OFFCURVE",
"752 755 OFFCURVE",
"412 755 CURVE"
);
}
);
width = 1277;
},
{
anchors = (
{
name = bottom;
position = "{560, 0}";
},
{
name = top;
position = "{560, 1358}";
},
{
name = us;
position = "{1355, 848}";
}
);
layerId = "20F63CDD-78BD-4F3A-8DC2-32840B76756A";
paths = (
{
closed = 1;
nodes = (
"609 0 LINE SMOOTH",
"913 0 OFFCURVE",
"1092 136 OFFCURVE",
"1092 358 CURVE SMOOTH",
"1092 536 OFFCURVE",
"986 661 OFFCURVE",
"809 734 CURVE",
"951 806 OFFCURVE",
"1021 892 OFFCURVE",
"1021 1025 CURVE SMOOTH",
"1021 1231 OFFCURVE",
"867 1358 OFFCURVE",
"606 1358 CURVE SMOOTH",
"213 1358 LINE",
"213 0 LINE"
);
},
{
closed = 1;
nodes = (
"393 0 LINE",
"393 102 LINE",
"70 72 LINE",
"70 0 LINE"
);
},
{
closed = 1;
nodes = (
"469 676 LINE",
"528 676 OFFCURVE",
"599 670 OFFCURVE",
"647 646 CURVE SMOOTH",
"724 608 OFFCURVE",
"783 527 OFFCURVE",
"783 366 CURVE SMOOTH",
"783 188 OFFCURVE",
"720 90 OFFCURVE",
"616 90 CURVE SMOOTH",
"469 90 LINE"
);
},
{
closed = 1;
nodes = (
"393 1358 LINE",
"70 1358 LINE",
"70 1286 LINE",
"393 1256 LINE"
);
},
{
closed = 1;
nodes = (
"469 1268 LINE",
"647 1264 OFFCURVE",
"728 1185 OFFCURVE",
"728 1017 CURVE SMOOTH",
"728 839 OFFCURVE",
"658 769 OFFCURVE",
"469 767 CURVE"
);
}
);
width = 1137;
}
);
leftMetricsKey = H;
note = B;
rightKerningGroup = B;
rightMetricsKey = O;
unicode = 0042;
},
{
glyphname = C;
lastChange = "2019-04-04 01:04:43 +0000";
layers = (
{
anchors = (
{
name = bottom;
position = "{736, 0}";
},
{
name = top;
position = "{801, 1358}";
}
);
layerId = "6CE37295-6E30-426D-87AF-6FEE9061C297";
paths = (
{
closed = 1;
nodes = (
"918 -27 OFFCURVE",
"1098 24 OFFCURVE",
"1270 192 CURVE",
"1207 179 LINE",
"1185 0 LINE",
"1308 0 LINE",
"1351 432 LINE",
"1238 432 LINE",
"1196 228 OFFCURVE",
"1069 73 OFFCURVE",
"848 73 CURVE SMOOTH",
"532 73 OFFCURVE",
"423 385 OFFCURVE",
"423 694 CURVE SMOOTH",
"423 1066 OFFCURVE",
"583 1292 OFFCURVE",
"834 1292 CURVE SMOOTH",
"1068 1292 OFFCURVE",
"1188 1098 OFFCURVE",
"1229 948 CURVE",
"1343 948 LINE",
"1350 1370 LINE",
"1237 1370 LINE",
"1232 1126 LINE",
"1293 1188 LINE",
"1151 1322 OFFCURVE",
"974 1385 OFFCURVE",
"778 1385 CURVE SMOOTH",
"332 1385 OFFCURVE",
"23 1061 OFFCURVE",
"23 649 CURVE SMOOTH",
"23 246 OFFCURVE",
"322 -27 OFFCURVE",
"737 -27 CURVE SMOOTH"
);
}
);
userData = {
assembly = "PUSHB[ ]\011/* 6 values pushed */
9 1 3 2 1 76 
MPPEM[ ]\011/* MeasurePixelPerEm */
PUSHB[ ]\011/* 1 value pushed */
37 
LT[ ]\011/* LessThan */
IF[ ]\011/* If */
NPUSHB[ ]\011/* 26 values pushed */
0 1 1 68 77 0 2 2 0 97 0 0 0 74 77 0 3 3 4 97 0 4 4 75 4 78 
ELSE[ ]\011/* Else */
MPPEM[ ]\011/* MeasurePixelPerEm */
PUSHB[ ]\011/* 1 value pushed */
60 
LT[ ]\011/* LessThan */
IF[ ]\011/* If */
NPUSHB[ ]\011/* 29 values pushed */
0 1 0 2 0 1 2 128 0 2 2 0 97 0 0 0 74 77 0 3 3 4 97 0 4 4 75 4 78 
ELSE[ ]\011/* Else */
NPUSHB[ ]\011/* 27 values pushed */
0 1 0 2 0 1 2 128 0 0 0 2 3 0 2 105 0 3 3 4 97 0 4 4 75 4 78 
EIF[ ]\011/* EndIf */
EIF[ ]\011/* EndIf */
PUSHB[ ]\011/* 8 values pushed */
42 36 40 18 34 5 11 27 
CALL[ ]\011/* CallFunction */";
};
width = 1377;
},
{
anchors = (
{
name = bottom;
position = "{706, 0}";
},
{
name = top;
position = "{738, 1358}";
}
);
hints = (
{
horizontal = 1;
origin = "{0, 33}";
target = "{0, 10}";
type = TTStem;
options = 4;
},
{
horizontal = 1;
origin = "{0, 27}";
target = "{0, 16}";
type = TTStem;
options = 4;
},
{
origin = "{0, 30}";
target = "{0, 13}";
type = TTStem;
options = 4;
},
{
origin = "{0, 20}";
type = Anchor;
},
{
origin = "{0, 20}";
target = "{0, 19}";
type = TTStem;
options = 4;
},
{
origin = "{0, 6}";
type = Anchor;
},
{
origin = "{0, 6}";
target = "{0, 7}";
type = TTStem;
options = 4;
},
{
origin = "{0, 19}";
target = "{0, 22}";
type = TTStem;
options = 4;
},
{
origin = "{0, 20}";
target = "{0, 21}";
type = TTStem;
options = 4;
},
{
origin = "{0, 4}";
target = "{0, 7}";
type = TTStem;
options = 4;
},
{
origin = "{0, 5}";
target = "{0, 6}";
type = TTStem;
options = 4;
},
{
horizontal = 1;
origin = "{0, 27}";
type = Anchor;
},
{
horizontal = 1;
origin = "{0, 33}";
type = Anchor;
}
);
layerId = "EBD25FEC-6C57-4903-A936-5FDFC9C63FB2";
paths = (
{
closed = 1;
nodes = (
"880 -27 OFFCURVE",
"1046 29 OFFCURVE",
"1196 194 CURVE",
"1165 186 LINE",
"1145 0 LINE",
"1206 0 LINE",
"1250 432 LINE",
"1190 432 LINE",
"1153 202 OFFCURVE",
"1010 40 OFFCURVE",
"756 40 CURVE SMOOTH",
"419 40 OFFCURVE",
"216 321 OFFCURVE",
"216 693 CURVE SMOOTH",
"216 1073 OFFCURVE",
"427 1322 OFFCURVE",
"740 1322 CURVE SMOOTH",
"953 1322 OFFCURVE",
"1118 1205 OFFCURVE",
"1184 948 CURVE",
"1245 948 LINE",
"1248 1370 LINE",
"1188 1370 LINE",
"1187 1180 LINE",
"1213 1182 LINE",
"1075 1322 OFFCURVE",
"926 1385 OFFCURVE",
"742 1385 CURVE SMOOTH",
"336 1385 OFFCURVE",
"57 1076 OFFCURVE",
"57 659 CURVE SMOOTH",
"57 245 OFFCURVE",
"333 -27 OFFCURVE",
"709 -27 CURVE SMOOTH"
);
}
);
width = 1313;
},
{
anchors = (
{
name = bottom;
position = "{809, 0}";
},
{
name = top;
position = "{851, 1358}";
}
);
layerId = "16DF9356-34D2-4C02-8100-FB39A491A1B7";
paths = (
{
closed = 1;
nodes = (
"1002 -27 OFFCURVE",
"1180 29 OFFCURVE",
"1342 194 CURVE",
"1309 186 LINE",
"1286 0 LINE",
"1352 0 LINE",
"1399 432 LINE",
"1334 432 LINE",
"1296 202 OFFCURVE",
"1142 40 OFFCURVE",
"869 40 CURVE SMOOTH",
"505 40 OFFCURVE",
"286 322 OFFCURVE",
"286 693 CURVE SMOOTH",
"286 1073 OFFCURVE",
"514 1322 OFFCURVE",
"852 1322 CURVE SMOOTH",
"1081 1322 OFFCURVE",
"1258 1204 OFFCURVE",
"1329 948 CURVE",
"1394 948 LINE",
"1397 1370 LINE",
"1332 1370 LINE",
"1331 1180 LINE",
"1359 1182 LINE",
"1211 1322 OFFCURVE",
"1051 1385 OFFCURVE",
"854 1385 CURVE SMOOTH",
"421 1385 OFFCURVE",
"123 1076 OFFCURVE",
"123 659 CURVE SMOOTH",
"123 245 OFFCURVE",
"417 -27 OFFCURVE",
"820 -27 CURVE SMOOTH"
);
}
);
width = 1465;
},
{
anchors = (
{
name = bottom;
position = "{686, 0}";
},
{
name = top;
position = "{727, 1358}";
}
);
layerId = "20F63CDD-78BD-4F3A-8DC2-32840B76756A";
paths = (
{
closed = 1;
nodes = (
"848 -27 OFFCURVE",
"1013 29 OFFCURVE",
"1158 170 CURVE",
"1116 185 LINE",
"1096 0 LINE",
"1206 0 LINE",
"1251 432 LINE",
"1142 432 LINE",
"1086 204 OFFCURVE",
"957 70 OFFCURVE",
"762 70 CURVE SMOOTH",
"477 70 OFFCURVE",
"355 370 OFFCURVE",
"355 692 CURVE SMOOTH",
"355 1051 OFFCURVE",
"505 1295 OFFCURVE",
"747 1295 CURVE SMOOTH",
"962 1295 OFFCURVE",
"1087 1115 OFFCURVE",
"1131 948 CURVE",
"1240 948 LINE",
"1242 1370 LINE",
"1133 1370 LINE",
"1131 1144 LINE",
"1181 1166 LINE",
"1031 1344 OFFCURVE",
"852 1385 OFFCURVE",
"712 1385 CURVE SMOOTH",
"331 1385 OFFCURVE",
"46 1076 OFFCURVE",
"46 653 CURVE SMOOTH",
"46 242 OFFCURVE",
"316 -27 OFFCURVE",
"681 -27 CURVE SMOOTH"
);
}
);
width = 1313;
}
);
leftKerningGroup = C;
leftMetricsKey = O;
note = C;
rightKerningGroup = C;
rightMetricsKey = "=H*0.9";
unicode = 0043;
},
{
glyphname = D;
lastChange = "2019-04-04 01:05:24 +0000";
layers = (
{
anchors = (
{
name = bottom;
position = "{727, 0}";
},
{
name = center;
position = "{727, 679}";
},
{
name = overlay;
position = "{358, 673}";
},
{
name = top;
position = "{656, 1358}";
}
);
layerId = "6CE37295-6E30-426D-87AF-6FEE9061C297";
paths = (
{
closed = 1;
nodes = (
"775 0 LINE SMOOTH",
"1242 0 OFFCURVE",
"1547 287 OFFCURVE",
"1547 701 CURVE SMOOTH",
"1547 1128 OFFCURVE",
"1225 1358 OFFCURVE",
"725 1358 CURVE",
"198 1358 LINE",
"198 0 LINE"
);
},
{
closed = 1;
nodes = (
"351 0 LINE",
"351 111 LINE",
"29 81 LINE",
"29 0 LINE"
);
},
{
closed = 1;
nodes = (
"505 1265 LINE",
"575 1265 LINE SMOOTH",
"999 1265 OFFCURVE",
"1147 1080 OFFCURVE",
"1147 694 CURVE SMOOTH",
"1147 332 OFFCURVE",
"1043 92 OFFCURVE",
"602 92 CURVE SMOOTH",
"505 92 LINE"
);
},
{
closed = 1;
nodes = (
"351 1358 LINE",
"29 1358 LINE",
"29 1277 LINE",
"351 1247 LINE"
);
}
);
userData = {
assembly = "MPPEM[ ]\011/* MeasurePixelPerEm */
PUSHB[ ]\011/* 1 value pushed */
34 
LT[ ]\011/* LessThan */
IF[ ]\011/* If */
NPUSHB[ ]\011/* 23 values pushed */
5 1 0 0 1 95 0 1 1 68 77 4 1 3 3 2 95 0 2 2 69 2 78 
ELSE[ ]\011/* Else */
MPPEM[ ]\011/* MeasurePixelPerEm */
PUSHB[ ]\011/* 1 value pushed */
35 
LT[ ]\011/* LessThan */
IF[ ]\011/* If */
NPUSHB[ ]\011/* 34 values pushed */
0 0 5 3 5 0 114 0 3 4 4 3 112 0 5 5 1 95 0 1 1 68 77 0 4 4 2 96 0 2 2 69 2 78 
ELSE[ ]\011/* Else */
MPPEM[ ]\011/* MeasurePixelPerEm */
PUSHB[ ]\011/* 1 value pushed */
37 
LT[ ]\011/* LessThan */
IF[ ]\011/* If */
NPUSHB[ ]\011/* 29 values pushed */
0 0 5 3 5 0 114 0 5 5 1 95 0 1 1 68 77 4 1 3 3 2 95 0 2 2 69 2 78 
ELSE[ ]\011/* Else */
MPPEM[ ]\011/* MeasurePixelPerEm */
PUSHB[ ]\011/* 1 value pushed */
51 
LT[ ]\011/* LessThan */
IF[ ]\011/* If */
NPUSHB[ ]\011/* 34 values pushed */
0 0 5 3 5 0 114 0 3 4 4 3 112 0 5 5 1 95 0 1 1 68 77 0 4 4 2 96 0 2 2 69 2 78 
ELSE[ ]\011/* Else */
MPPEM[ ]\011/* MeasurePixelPerEm */
PUSHB[ ]\011/* 1 value pushed */
60 
LT[ ]\011/* LessThan */
IF[ ]\011/* If */
NPUSHB[ ]\011/* 31 values pushed */
0 0 5 3 5 0 114 0 3 4 4 3 112 0 4 0 2 4 2 100 0 5 5 1 95 0 1 1 68 5 78 
ELSE[ ]\011/* Else */
NPUSHB[ ]\011/* 37 values pushed */
0 0 5 3 5 0 114 0 3 4 4 3 112 0 1 0 5 0 1 5 105 0 4 2 2 4 89 0 4 4 2 96 0 2 4 2 80 
EIF[ ]\011/* EndIf */
EIF[ ]\011/* EndIf */
EIF[ ]\011/* EndIf */
EIF[ ]\011/* EndIf */
EIF[ ]\011/* EndIf */
NPUSHB[ ]\011/* 9 values pushed */
52 36 34 84 98 18 6 11 28 
CALL[ ]\011/* CallFunction */";
};
width = 1570;
},
{
anchors = (
{
name = bottom;
position = "{726, 0}";
},
{
name = center;
position = "{726, 679}";
},
{
name = overlay;
position = "{349, 673}";
},
{
name = top;
position = "{658, 1358}";
}
);
hints = (
{
horizontal = 1;
origin = "{1, 3}";
target = "{1, 2}";
type = TTStem;
options = 4;
},
{
horizontal = 1;
origin = "{1, 2}";
target = "{2, 8}";
type = Align;
options = 4;
},
{
horizontal = 1;
origin = "{3, 1}";
target = "{3, 2}";
type = TTStem;
options = 4;
},
{
horizontal = 1;
origin = "{3, 1}";
target = "{0, 7}";
type = Align;
options = 4;
},
{
horizontal = 1;
origin = "{3, 2}";
target = "{2, 0}";
type = Align;
options = 4;
},
{
origin = "{0, 8}";
type = Anchor;
},
{
origin = "{0, 8}";
target = "{2, 8}";
type = TTStem;
options = 4;
},
{
origin = "{0, 3}";
type = Anchor;
},
{
origin = "{0, 3}";
target = "{2, 4}";
type = TTStem;
options = 4;
},
{
horizontal = 1;
origin = "{3, 1}";
type = Anchor;
},
{
horizontal = 1;
origin = "{1, 3}";
type = Anchor;
},
{
horizontal = 1;
origin = "{1, 3}";
target = "{0, 8}";
type = Align;
options = 4;
}
);
layerId = "EBD25FEC-6C57-4903-A936-5FDFC9C63FB2";
paths = (
{
closed = 1;
nodes = (
"650 0 LINE SMOOTH",
"1133 0 OFFCURVE",
"1378 311 OFFCURVE",
"1378 707 CURVE SMOOTH",
"1378 1109 OFFCURVE",
"1113 1358 OFFCURVE",
"620 1358 CURVE",
"265 1358 LINE",
"265 0 LINE"
);
},
{
closed = 1;
nodes = (
"381 0 LINE",
"381 80 LINE",
"70 50 LINE",
"70 0 LINE"
);
},
{
closed = 1;
nodes = (
"398 1295 LINE",
"581 1295 LINE SMOOTH",
"995 1295 OFFCURVE",
"1220 1105 OFFCURVE",
"1220 680 CURVE SMOOTH",
"1220 281 OFFCURVE",
"1021 67 OFFCURVE",
"565 67 CURVE SMOOTH",
"398 67 LINE"
);
},
{
closed = 1;
nodes = (
"381 1358 LINE",
"70 1358 LINE",
"70 1308 LINE",
"381 1278 LINE"
);
}
);
width = 1436;
},
{
anchors = (
{
name = bottom;
position = "{690, 0}";
},
{
name = center;
position = "{790, 679}";
},
{
name = overlay;
position = "{354, 673}";
},
{
name = top;
position = "{690, 1358}";
}
);
layerId = "16DF9356-34D2-4C02-8100-FB39A491A1B7";
paths = (
{
closed = 1;
nodes = (
"755 0 LINE SMOOTH",
"1186 0 OFFCURVE",
"1463 279 OFFCURVE",
"1463 728 CURVE SMOOTH",
"1463 1116 OFFCURVE",
"1167 1358 OFFCURVE",
"703 1358 CURVE",
"269 1358 LINE",
"269 0 LINE"
);
},
{
closed = 1;
nodes = (
"394 0 LINE",
"394 80 LINE",
"73 50 LINE",
"73 0 LINE"
);
},
{
closed = 1;
nodes = (
"412 1286 LINE",
"607 1286 LINE SMOOTH",
"1056 1286 OFFCURVE",
"1299 1082 OFFCURVE",
"1299 717 CURVE SMOOTH",
"1299 305 OFFCURVE",
"1108 72 OFFCURVE",
"635 72 CURVE SMOOTH",
"412 72 LINE"
);
},
{
closed = 1;
nodes = (
"394 1358 LINE",
"73 1358 LINE",
"73 1298 LINE",
"394 1268 LINE"
);
}
);
width = 1586;
},
{
anchors = (
{
name = bottom;
position = "{691, 0}";
},
{
name = center;
position = "{691, 679}";
},
{
name = overlay;
position = "{365, 673}";
},
{
name = top;
position = "{629, 1358}";
}
);
layerId = "20F63CDD-78BD-4F3A-8DC2-32840B76756A";
paths = (
{
closed = 1;
nodes = (
"718 0 LINE SMOOTH",
"1128 0 OFFCURVE",
"1391 292 OFFCURVE",
"1391 705 CURVE SMOOTH",
"1391 1119 OFFCURVE",
"1112 1358 OFFCURVE",
"676 1358 CURVE",
"220 1358 LINE",
"220 0 LINE"
);
},
{
closed = 1;
nodes = (
"391 0 LINE",
"391 102 LINE",
"70 72 LINE",
"70 0 LINE"
);
},
{
closed = 1;
nodes = (
"476 1268 LINE",
"505 1268 LINE SMOOTH",
"959 1268 OFFCURVE",
"1062 1080 OFFCURVE",
"1062 698 CURVE SMOOTH",
"1062 325 OFFCURVE",
"969 90 OFFCURVE",
"521 90 CURVE SMOOTH",
"476 90 LINE"
);
},
{
closed = 1;
nodes = (
"391 1358 LINE",
"70 1358 LINE",
"70 1286 LINE",
"391 1256 LINE"
);
}
);
width = 1436;
}
);
leftMetricsKey = H;
note = D;
rightKerningGroup = D;
rightMetricsKey = O;
unicode = 0044;
},
{
glyphname = E;
lastChange = "2019-04-04 00:59:37 +0000";
layers = (
{
anchors = (
{
name = bottom;
position = "{610, 0}";
},
{
name = ogonek;
position = "{1138, 10}";
},
{
name = top;
position = "{681, 1358}";
}
);
background = {
paths = (
{
closed = 1;
nodes = (
"489 20 LINE",
"489 1338 LINE",
"210 1338 LINE",
"210 20 LINE"
);
},
{
closed = 1;
nodes = (
"1258 0 LINE",
"1258 354 LINE",
"1183 354 LINE",
"1067 146 LINE SMOOTH",
"1044 104 OFFCURVE",
"994 90 OFFCURVE",
"944 90 CURVE SMOOTH",
"210 90 LINE",
"210 0 LINE"
);
},
{
closed = 1;
nodes = (
"1131 1001 LINE",
"1131 1358 LINE",
"210 1358 LINE",
"210 1263 LINE",
"809 1263 LINE SMOOTH",
"882 1263 OFFCURVE",
"906 1251 OFFCURVE",
"932 1207 CURVE SMOOTH",
"1056 1001 LINE"
);
},
{
closed = 1;
nodes = (
"815 636 LINE",
"815 728 LINE",
"314 728 LINE",
"314 636 LINE"
);
},
{
closed = 1;
nodes = (
"877 459 LINE",
"877 923 LINE",
"760 923 LINE",
"760 459 LINE"
);
},
{
closed = 1;
nodes = (
"357 1358 LINE",
"37 1358 LINE",
"37 1282 LINE",
"357 1252 LINE"
);
},
{
closed = 1;
nodes = (
"357 0 LINE",
"357 106 LINE",
"37 76 LINE",
"37 0 LINE"
);
}
);
};
layerId = "6CE37295-6E30-426D-87AF-6FEE9061C297";
paths = (
{
closed = 1;
nodes = (
"505 20 LINE",
"505 1338 LINE",
"198 1338 LINE",
"198 20 LINE"
);
},
{
closed = 1;
nodes = (
"1262 0 LINE",
"1262 356 LINE",
"1181 356 LINE",
"1061 157 LINE SMOOTH",
"1036 117 OFFCURVE",
"985 101 OFFCURVE",
"938 101 CURVE SMOOTH",
"198 101 LINE",
"198 0 LINE"
);
},
{
closed = 1;
nodes = (
"1135 999 LINE",
"1135 1358 LINE",
"198 1358 LINE",
"198 1257 LINE",
"797 1257 LINE SMOOTH",
"870 1257 OFFCURVE",
"892 1245 OFFCURVE",
"920 1203 CURVE SMOOTH",
"1054 999 LINE"
);
},
{
closed = 1;
nodes = (
"806 630 LINE",
"806 731 LINE",
"308 731 LINE",
"308 630 LINE"
);
},
{
closed = 1;
nodes = (
"873 462 LINE",
"873 918 LINE",
"748 918 LINE",
"748 462 LINE"
);
},
{
closed = 1;
nodes = (
"351 1358 LINE",
"29 1358 LINE",
"29 1277 LINE",
"351 1247 LINE"
);
},
{
closed = 1;
nodes = (
"351 0 LINE",
"351 111 LINE",
"29 81 LINE",
"29 0 LINE"
);
}
);
userData = {
assembly = "MPPEM[ ]\011/* MeasurePixelPerEm */
PUSHB[ ]\011/* 1 value pushed */
79 
LT[ ]\011/* LessThan */
IF[ ]\011/* If */
NPUSHB[ ]\011/* 12 values pushed */
30 13 2 3 0 55 36 2 5 4 2 76 
ELSE[ ]\011/* Else */
NPUSHB[ ]\011/* 12 values pushed */
30 13 2 3 2 55 36 2 5 4 2 76 
EIF[ ]\011/* EndIf */
MPPEM[ ]\011/* MeasurePixelPerEm */
PUSHB[ ]\011/* 1 value pushed */
51 
LT[ ]\011/* LessThan */
IF[ ]\011/* If */
NPUSHB[ ]\011/* 31 values pushed */
0 3 0 4 5 3 4 105 2 1 0 0 1 95 0 1 1 68 77 7 1 5 5 6 95 0 6 6 69 6 78 
ELSE[ ]\011/* Else */
MPPEM[ ]\011/* MeasurePixelPerEm */
PUSHB[ ]\011/* 1 value pushed */
60 
LT[ ]\011/* LessThan */
IF[ ]\011/* If */
NPUSHB[ ]\011/* 28 values pushed */
0 3 0 4 5 3 4 105 7 1 5 0 6 5 6 99 2 1 0 0 1 95 0 1 1 68 0 78 
ELSE[ ]\011/* Else */
MPPEM[ ]\011/* MeasurePixelPerEm */
PUSHB[ ]\011/* 1 value pushed */
79 
LT[ ]\011/* LessThan */
IF[ ]\011/* If */
NPUSHB[ ]\011/* 35 values pushed */
0 1 2 1 0 3 1 0 105 0 3 0 4 5 3 4 105 7 1 5 6 6 5 89 7 1 5 5 6 95 0 6 5 6 79 
ELSE[ ]\011/* Else */
MPPEM[ ]\011/* MeasurePixelPerEm */
PUSHB[ ]\011/* 1 value pushed */
147 
LT[ ]\011/* LessThan */
IF[ ]\011/* If */
NPUSHB[ ]\011/* 41 values pushed */
0 0 1 2 2 0 114 0 1 0 2 3 1 2 103 0 3 0 4 5 3 4 105 7 1 5 6 6 5 89 7 1 5 5 6 95 0 6 5 6 79 
ELSE[ ]\011/* Else */
NPUSHB[ ]\011/* 46 values pushed */
0 0 1 2 2 0 114 0 7 5 6 5 7 114 0 1 0 2 3 1 2 103 0 3 0 4 5 3 4 105 0 5 7 6 5 87 0 5 5 6 95 0 6 5 6 79 
EIF[ ]\011/* EndIf */
EIF[ ]\011/* EndIf */
EIF[ ]\011/* EndIf */
EIF[ ]\011/* EndIf */
NPUSHB[ ]\011/* 11 values pushed */
34 88 53 61 51 56 98 18 8 11 30 
CALL[ ]\011/* CallFunction */";
};
width = 1277;
},
{
anchors = (
{
name = bottom;
position = "{727, 0}";
},
{
name = ogonek;
position = "{1072, 10}";
},
{
name = top;
position = "{666, 1358}";
}
);
hints = (
{
horizontal = 1;
origin = "{6, 3}";
target = "{6, 2}";
type = TTStem;
options = 4;
},
{
horizontal = 1;
origin = "{6, 2}";
target = "{6, 3}";
other1 = "{0, 3}";
type = Interpolate;
options = 4;
},
{
horizontal = 1;
origin = "{5, 1}";
target = "{5, 2}";
type = TTStem;
options = 4;
},
{
horizontal = 1;
origin = "{5, 1}";
target = "{2, 2}";
type = Align;
options = 4;
},
{
horizontal = 1;
origin = "{5, 2}";
target = "{2, 3}";
type = TTStem;
options = 4;
},
{
horizontal = 1;
origin = "{5, 2}";
target = "{5, 1}";
other1 = "{0, 2}";
type = Interpolate;
options = 4;
},
{
horizontal = 1;
origin = "{3, 2}";
target = "{3, 3}";
type = TTStem;
},
{
origin = "{0, 3}";
type = Anchor;
},
{
origin = "{0, 3}";
target = "{0, 0}";
type = TTStem;
},
{
origin = "{rsb}";
target = "{1, 1}";
type = TTStem;
stem = -1;
},
{
origin = "{1, 1}";
target = "{1, 2}";
type = TTStem;
},
{
origin = "{1, 2}";
target = "{4, 0}";
type = TTStem;
stem = -1;
},
{
origin = "{4, 0}";
target = "{4, 3}";
type = TTStem;
},
{
origin = "{2, 0}";
target = "{1, 1}";
type = TTStem;
stem = -1;
},
{
origin = "{2, 8}";
target = "{2, 0}";
type = TTStem;
},
{
horizontal = 1;
origin = "{6, 2}";
target = "{1, 7}";
type = Align;
options = 4;
},
{
horizontal = 1;
origin = "{6, 3}";
target = "{1, 8}";
type = Align;
options = 4;
},
{
horizontal = 1;
origin = "{6, 3}";
type = Anchor;
},
{
horizontal = 1;
origin = "{5, 1}";
type = Anchor;
},
{
horizontal = 1;
origin = "{6, 3}";
target = "{5, 1}";
other1 = "{3, 2}";
type = Interpolate;
}
);
layerId = "EBD25FEC-6C57-4903-A936-5FDFC9C63FB2";
paths = (
{
closed = 1;
nodes = (
"398 20 LINE",
"398 1338 LINE",
"265 1338 LINE",
"265 20 LINE"
);
},
{
closed = 1;
nodes = (
"1229 0 LINE",
"1229 343 LINE",
"1186 343 LINE",
"1108 119 LINE SMOOTH",
"1090 66 OFFCURVE",
"1050 63 OFFCURVE",
"985 63 CURVE SMOOTH",
"265 63 LINE",
"265 0 LINE"
);
},
{
closed = 1;
nodes = (
"1102 1014 LINE",
"1102 1358 LINE",
"265 1358 LINE",
"265 1295 LINE",
"866 1295 LINE SMOOTH",
"938 1295 OFFCURVE",
"971 1281 OFFCURVE",
"989 1227 CURVE SMOOTH",
"1059 1014 LINE"
);
},
{
closed = 1;
nodes = (
"856 659 LINE",
"856 723 LINE",
"337 723 LINE",
"337 659 LINE"
);
},
{
closed = 1;
nodes = (
"888 445 LINE",
"888 951 LINE",
"815 951 LINE",
"815 445 LINE"
);
},
{
closed = 1;
nodes = (
"381 1358 LINE",
"70 1358 LINE",
"70 1308 LINE",
"381 1278 LINE"
);
},
{
closed = 1;
nodes = (
"380 0 LINE",
"380 80 LINE",
"70 50 LINE",
"70 0 LINE"
);
}
);
width = 1264;
},
{
anchors = (
{
name = bottom;
position = "{736, 0}";
},
{
name = ogonek;
position = "{1122, 10}";
},
{
name = top;
position = "{716, 1358}";
}
);
layerId = "16DF9356-34D2-4C02-8100-FB39A491A1B7";
paths = (
{
closed = 1;
nodes = (
"412 20 LINE",
"412 1338 LINE",
"269 1338 LINE",
"269 20 LINE"
);
},
{
closed = 1;
nodes = (
"1300 0 LINE",
"1300 343 LINE",
"1271 343 LINE",
"1192 129 LINE SMOOTH",
"1180 95 OFFCURVE",
"1123 73 OFFCURVE",
"1069 73 CURVE SMOOTH",
"269 73 LINE",
"269 0 LINE"
);
},
{
closed = 1;
nodes = (
"1164 1007 LINE",
"1164 1358 LINE",
"269 1358 LINE",
"269 1285 LINE",
"937 1285 LINE SMOOTH",
"1015 1285 OFFCURVE",
"1047 1271 OFFCURVE",
"1060 1230 CURVE SMOOTH",
"1135 1007 LINE"
);
},
{
closed = 1;
nodes = (
"894 654 LINE",
"894 727 LINE",
"338 727 LINE",
"338 654 LINE"
);
},
{
closed = 1;
nodes = (
"933 440 LINE",
"933 955 LINE",
"860 955 LINE",
"860 440 LINE"
);
},
{
closed = 1;
nodes = (
"394 1358 LINE",
"73 1358 LINE",
"73 1298 LINE",
"394 1268 LINE"
);
},
{
closed = 1;
nodes = (
"394 0 LINE",
"394 80 LINE",
"73 50 LINE",
"73 0 LINE"
);
}
);
width = 1337;
},
{
anchors = (
{
name = bottom;
position = "{654, 0}";
},
{
name = ogonek;
position = "{1129, 10}";
},
{
name = top;
position = "{688, 1358}";
}
);
layerId = "20F63CDD-78BD-4F3A-8DC2-32840B76756A";
paths = (
{
closed = 1;
nodes = (
"484 20 LINE",
"484 1338 LINE",
"228 1338 LINE",
"228 20 LINE"
);
},
{
closed = 1;
nodes = (
"1229 0 LINE",
"1229 355 LINE",
"1161 355 LINE",
"1048 154 LINE SMOOTH",
"1025 112 OFFCURVE",
"974 98 OFFCURVE",
"925 98 CURVE SMOOTH",
"228 98 LINE",
"228 0 LINE"
);
},
{
closed = 1;
nodes = (
"1102 1000 LINE",
"1102 1358 LINE",
"228 1358 LINE",
"228 1260 LINE",
"787 1260 LINE SMOOTH",
"861 1260 OFFCURVE",
"884 1248 OFFCURVE",
"910 1205 CURVE SMOOTH",
"1034 1000 LINE"
);
},
{
closed = 1;
nodes = (
"826 619 LINE",
"826 717 LINE",
"364 717 LINE",
"364 619 LINE"
);
},
{
closed = 1;
nodes = (
"885 442 LINE",
"885 911 LINE",
"779 911 LINE",
"779 442 LINE"
);
},
{
closed = 1;
nodes = (
"391 1358 LINE",
"70 1358 LINE",
"70 1286 LINE",
"391 1256 LINE"
);
},
{
closed = 1;
nodes = (
"391 0 LINE",
"391 102 LINE",
"70 72 LINE",
"70 0 LINE"
);
}
);
width = 1264;
}
);
leftMetricsKey = H;
note = E;
rightKerningGroup = E;
rightMetricsKey = "=H/2";
unicode = 0045;
},
{
glyphname = Eogonek;
lastChange = "2019-04-04 00:50:34 +0000";
layers = (
{
components = (
{
alignment = -1;
name = E;
}
);
layerId = "6CE37295-6E30-426D-87AF-6FEE9061C297";
paths = (
{
closed = 1;
nodes = (
"1095 -487 OFFCURVE",
"1192 -440 OFFCURVE",
"1241 -368 CURVE",
"1201 -322 LINE",
"1158 -355 OFFCURVE",
"1136 -365 OFFCURVE",
"1089 -365 CURVE SMOOTH",
"1019 -365 OFFCURVE",
"985 -328 OFFCURVE",
"985 -245 CURVE SMOOTH",
"985 -200 OFFCURVE",
"997 -154 OFFCURVE",
"1018 -121 CURVE SMOOTH",
"1074 -30 OFFCURVE",
"1139 14 OFFCURVE",
"1184 -4 CURVE",
"1191 25 OFFCURVE",
"1090 69 OFFCURVE",
"1017 63 CURVE",
"952 3 LINE SMOOTH",
"825 -119 OFFCURVE",
"757 -213 OFFCURVE",
"757 -302 CURVE SMOOTH",
"757 -364 OFFCURVE",
"771 -397 OFFCURVE",
"808 -436 CURVE SMOOTH",
"838 -466 OFFCURVE",
"909 -487 OFFCURVE",
"990 -487 CURVE SMOOTH"
);
}
);
userData = {
assembly = "MPPEM[ ]\011/* MeasurePixelPerEm */
PUSHB[ ]\011/* 1 value pushed */
79 
LT[ ]\011/* LessThan */
IF[ ]\011/* If */
NPUSHB[ ]\011/* 20 values pushed */
31 14 2 3 0 56 37 2 5 4 69 1 7 6 71 1 8 7 4 76 
ELSE[ ]\011/* Else */
NPUSHB[ ]\011/* 20 values pushed */
31 14 2 3 2 56 37 2 5 4 69 1 7 6 71 1 8 7 4 76 
EIF[ ]\011/* EndIf */
MPPEM[ ]\011/* MeasurePixelPerEm */
PUSHB[ ]\011/* 1 value pushed */
60 
LT[ ]\011/* LessThan */
IF[ ]\011/* If */
NPUSHB[ ]\011/* 39 values pushed */
0 3 0 4 5 3 4 105 0 7 0 8 7 8 101 2 1 0 0 1 95 0 1 1 68 77 10 1 5 5 6 97 9 1 6 6 69 6 78 
ELSE[ ]\011/* Else */
MPPEM[ ]\011/* MeasurePixelPerEm */
PUSHB[ ]\011/* 1 value pushed */
79 
LT[ ]\011/* LessThan */
IF[ ]\011/* If */
NPUSHB[ ]\011/* 43 values pushed */
0 1 2 1 0 3 1 0 105 0 3 0 4 5 3 4 105 10 1 5 9 1 6 7 5 6 105 0 7 8 8 7 89 0 7 7 8 97 0 8 7 8 81 
ELSE[ ]\011/* Else */
MPPEM[ ]\011/* MeasurePixelPerEm */
PUSHB[ ]\011/* 1 value pushed */
147 
LT[ ]\011/* LessThan */
IF[ ]\011/* If */
NPUSHB[ ]\011/* 49 values pushed */
0 0 1 2 2 0 114 0 1 0 2 3 1 2 103 0 3 0 4 5 3 4 105 10 1 5 9 1 6 7 5 6 105 0 7 8 8 7 89 0 7 7 8 97 0 8 7 8 81 
ELSE[ ]\011/* Else */
NPUSHB[ ]\011/* 61 values pushed */
0 0 1 2 2 0 114 0 10 5 9 5 10 114 0 6 9 7 9 6 114 0 1 0 2 3 1 2 103 0 3 0 4 5 3 4 105 0 5 0 9 6 5 9 103 0 7 8 8 7 89 0 7 7 8 97 0 8 7 8 81 
EIF[ ]\011/* EndIf */
EIF[ ]\011/* EndIf */
EIF[ ]\011/* EndIf */
NPUSHB[ ]\011/* 16 values pushed */
87 85 83 77 36 35 40 53 61 51 56 114 18 11 11 31 
CALL[ ]\011/* CallFunction */";
};
width = 1277;
},
{
components = (
{
alignment = -1;
name = E;
}
);
hints = (
{
horizontal = 1;
origin = "{0, 28}";
type = Anchor;
},
{
horizontal = 1;
origin = "{0, 28}";
target = "{0, 6}";
type = TTStem;
options = 4;
},
{
origin = "{0, 22}";
type = Anchor;
},
{
origin = "{0, 22}";
target = "{0, 9}";
type = TTStem;
options = 4;
}
);
layerId = "EBD25FEC-6C57-4903-A936-5FDFC9C63FB2";
paths = (
{
closed = 1;
nodes = (
"1076 -488 OFFCURVE",
"1131 -452 OFFCURVE",
"1186 -370 CURVE",
"1159 -342 LINE",
"1133 -365 OFFCURVE",
"1103 -376 OFFCURVE",
"1068 -376 CURVE SMOOTH",
"996 -376 OFFCURVE",
"962 -334 OFFCURVE",
"962 -249 CURVE SMOOTH",
"962 -206 OFFCURVE",
"974 -160 OFFCURVE",
"1001 -110 CURVE SMOOTH",
"1038 -40 OFFCURVE",
"1091 1 OFFCURVE",
"1160 0 CURVE",
"1159 40 OFFCURVE",
"1097 65 OFFCURVE",
"1038 61 CURVE",
"942 -52 LINE SMOOTH",
"866 -140 OFFCURVE",
"832 -228 OFFCURVE",
"832 -310 CURVE SMOOTH",
"832 -359 OFFCURVE",
"846 -401 OFFCURVE",
"874 -436 CURVE SMOOTH",
"901 -471 OFFCURVE",
"942 -488 OFFCURVE",
"995 -488 CURVE SMOOTH"
);
}
);
width = 1264;
},
{
components = (
{
alignment = -1;
name = E;
}
);
layerId = "16DF9356-34D2-4C02-8100-FB39A491A1B7";
paths = (
{
closed = 1;
nodes = (
"1146 -488 OFFCURVE",
"1201 -452 OFFCURVE",
"1256 -370 CURVE",
"1229 -342 LINE",
"1203 -365 OFFCURVE",
"1173 -376 OFFCURVE",
"1139 -376 CURVE SMOOTH",
"1067 -376 OFFCURVE",
"1032 -334 OFFCURVE",
"1032 -249 CURVE SMOOTH",
"1032 -206 OFFCURVE",
"1045 -160 OFFCURVE",
"1071 -110 CURVE SMOOTH",
"1109 -40 OFFCURVE",
"1161 1 OFFCURVE",
"1230 0 CURVE",
"1229 40 OFFCURVE",
"1167 65 OFFCURVE",
"1107 61 CURVE",
"1012 -52 LINE SMOOTH",
"936 -139 OFFCURVE",
"902 -228 OFFCURVE",
"902 -310 CURVE SMOOTH",
"902 -359 OFFCURVE",
"916 -401 OFFCURVE",
"943 -436 CURVE SMOOTH",
"970 -471 OFFCURVE",
"1012 -488 OFFCURVE",
"1065 -488 CURVE SMOOTH"
);
}
);
width = 1337;
},
{
components = (
{
alignment = -1;
name = E;
}
);
layerId = "20F63CDD-78BD-4F3A-8DC2-32840B76756A";
paths = (
{
closed = 1;
nodes = (
"1076 -488 OFFCURVE",
"1131 -452 OFFCURVE",
"1186 -370 CURVE",
"1159 -342 LINE",
"1133 -365 OFFCURVE",
"1103 -376 OFFCURVE",
"1069 -376 CURVE SMOOTH",
"997 -376 OFFCURVE",
"962 -334 OFFCURVE",
"962 -249 CURVE SMOOTH",
"962 -206 OFFCURVE",
"975 -160 OFFCURVE",
"1001 -110 CURVE SMOOTH",
"1039 -40 OFFCURVE",
"1091 1 OFFCURVE",
"1160 0 CURVE",
"1159 40 OFFCURVE",
"1097 65 OFFCURVE",
"1037 61 CURVE",
"942 -52 LINE SMOOTH",
"866 -139 OFFCURVE",
"832 -228 OFFCURVE",
"832 -310 CURVE SMOOTH",
"832 -359 OFFCURVE",
"846 -401 OFFCURVE",
"873 -436 CURVE SMOOTH",
"900 -471 OFFCURVE",
"942 -488 OFFCURVE",
"995 -488 CURVE SMOOTH"
);
}
);
width = 1264;
}
);
leftMetricsKey = "=E";
widthMetricsKey = E;
note = Eogonek;
rightKerningGroup = E;
unicode = 0118;
},
{
glyphname = F;
lastChange = "2019-04-04 01:00:37 +0000";
layers = (
{
anchors = (
{
name = bottom;
position = "{560, 0}";
},
{
name = top;
position = "{560, 1358}";
}
);
layerId = "6CE37295-6E30-426D-87AF-6FEE9061C297";
paths = (
{
closed = 1;
nodes = (
"505 40 LINE",
"505 1311 LINE",
"198 1311 LINE",
"198 40 LINE"
);
},
{
closed = 1;
nodes = (
"1166 991 LINE",
"1166 1358 LINE",
"198 1358 LINE",
"198 1257 LINE",
"815 1257 LINE SMOOTH",
"889 1257 OFFCURVE",
"911 1244 OFFCURVE",
"941 1202 CURVE SMOOTH",
"1082 991 LINE"
);
},
{
closed = 1;
nodes = (
"674 0 LINE",
"674 81 LINE",
"350 111 LINE",
"29 81 LINE",
"29 0 LINE"
);
},
{
closed = 1;
nodes = (
"792 608 LINE",
"792 709 LINE",
"287 709 LINE",
"287 608 LINE"
);
},
{
closed = 1;
nodes = (
"862 367 LINE",
"862 941 LINE",
"737 941 LINE",
"737 367 LINE"
);
},
{
closed = 1;
nodes = (
"349 1358 LINE",
"29 1358 LINE",
"29 1277 LINE",
"349 1247 LINE"
);
}
);
userData = {
assembly = "MPPEM[ ]\011/* MeasurePixelPerEm */
PUSHB[ ]\011/* 1 value pushed */
70 
LT[ ]\011/* LessThan */
IF[ ]\011/* If */
NPUSHB[ ]\011/* 11 values pushed */
30 13 2 3 0 36 1 5 4 2 76 
ELSE[ ]\011/* Else */
NPUSHB[ ]\011/* 11 values pushed */
30 13 2 3 2 36 1 5 4 2 76 
EIF[ ]\011/* EndIf */
MPPEM[ ]\011/* MeasurePixelPerEm */
PUSHB[ ]\011/* 1 value pushed */
51 
LT[ ]\011/* LessThan */
IF[ ]\011/* If */
NPUSHB[ ]\011/* 31 values pushed */
0 3 0 4 5 3 4 105 2 1 0 0 1 95 0 1 1 68 77 7 1 5 5 6 95 0 6 6 69 6 78 
ELSE[ ]\011/* Else */
MPPEM[ ]\011/* MeasurePixelPerEm */
PUSHB[ ]\011/* 1 value pushed */
60 
LT[ ]\011/* LessThan */
IF[ ]\011/* If */
NPUSHB[ ]\011/* 28 values pushed */
0 3 0 4 5 3 4 105 7 1 5 0 6 5 6 99 2 1 0 0 1 95 0 1 1 68 0 78 
ELSE[ ]\011/* Else */
MPPEM[ ]\011/* MeasurePixelPerEm */
PUSHB[ ]\011/* 1 value pushed */
70 
LT[ ]\011/* LessThan */
IF[ ]\011/* If */
NPUSHB[ ]\011/* 35 values pushed */
0 1 2 1 0 3 1 0 105 0 3 0 4 5 3 4 105 7 1 5 6 6 5 89 7 1 5 5 6 95 0 6 5 6 79 
ELSE[ ]\011/* Else */
NPUSHB[ ]\011/* 41 values pushed */
0 0 1 2 2 0 114 0 1 0 2 3 1 2 103 0 3 0 4 5 3 4 105 7 1 5 6 6 5 89 7 1 5 5 6 95 0 6 5 6 79 
EIF[ ]\011/* EndIf */
EIF[ ]\011/* EndIf */
EIF[ ]\011/* EndIf */
NPUSHB[ ]\011/* 11 values pushed */
34 66 19 61 51 71 98 18 8 11 30 
CALL[ ]\011/* CallFunction */";
};
width = 1181;
},
{
anchors = (
{
name = bottom;
position = "{560, 0}";
},
{
name = top;
position = "{560, 1358}";
}
);
hints = (
{
horizontal = 1;
origin = "{2, 4}";
target = "{2, 3}";
type = TTStem;
options = 4;
},
{
horizontal = 1;
origin = "{2, 3}";
target = "{2, 1}";
type = Align;
options = 4;
},
{
horizontal = 1;
origin = "{3, 2}";
target = "{3, 3}";
type = TTStem;
options = 4;
},
{
origin = "{1, 0}";
target = "{rsb}";
type = TTStem;
},
{
origin = "{1, 0}";
target = "{1, 8}";
type = TTStem;
},
{
origin = "{1, 8}";
target = "{4, 1}";
type = TTStem;
},
{
origin = "{4, 1}";
target = "{4, 2}";
type = TTStem;
options = 4;
},
{
origin = "{0, 3}";
type = Anchor;
},
{
origin = "{0, 3}";
target = "{0, 0}";
type = TTStem;
options = 4;
},
{
horizontal = 1;
origin = "{5, 1}";
type = Anchor;
},
{
horizontal = 1;
origin = "{5, 1}";
target = "{5, 2}";
type = TTStem;
options = 4;
},
{
horizontal = 1;
origin = "{0, 2}";
target = "{1, 2}";
type = Align;
options = 4;
},
{
horizontal = 1;
origin = "{5, 2}";
target = "{1, 3}";
type = Align;
options = 4;
},
{
horizontal = 1;
origin = "{5, 1}";
target = "{1, 1}";
type = Align;
options = 4;
},
{
horizontal = 1;
origin = "{2, 4}";
type = Anchor;
},
{
horizontal = 1;
origin = "{2, 4}";
target = "{5, 1}";
other1 = "{3, 2}";
type = Interpolate;
},
{
horizontal = 1;
origin = "{2, 3}";
target = "{2, 4}";
other1 = "{0, 3}";
type = Interpolate;
options = 4;
},
{
horizontal = 1;
origin = "{5, 2}";
target = "{5, 1}";
other1 = "{0, 2}";
type = Interpolate;
options = 4;
}
);
layerId = "EBD25FEC-6C57-4903-A936-5FDFC9C63FB2";
paths = (
{
closed = 1;
nodes = (
"398 25 LINE",
"398 1326 LINE",
"265 1326 LINE",
"265 25 LINE"
);
},
{
closed = 1;
nodes = (
"1060 990 LINE",
"1060 1358 LINE",
"265 1358 LINE",
"265 1295 LINE",
"820 1295 LINE SMOOTH",
"899 1295 OFFCURVE",
"938 1281 OFFCURVE",
"954 1222 CURVE SMOOTH",
"1018 990 LINE"
);
},
{
closed = 1;
nodes = (
"594 0 LINE",
"594 50 LINE",
"335 80 LINE",
"70 50 LINE",
"70 0 LINE"
);
},
{
closed = 1;
nodes = (
"803 626 LINE",
"803 689 LINE",
"320 689 LINE",
"320 626 LINE"
);
},
{
closed = 1;
nodes = (
"835 374 LINE",
"835 943 LINE",
"762 943 LINE",
"762 374 LINE"
);
},
{
closed = 1;
nodes = (
"390 1358 LINE",
"70 1358 LINE",
"70 1308 LINE",
"390 1278 LINE"
);
}
);
width = 1095;
},
{
anchors = (
{
name = bottom;
position = "{564, 0}";
},
{
name = top;
position = "{564, 1358}";
}
);
layerId = "16DF9356-34D2-4C02-8100-FB39A491A1B7";
paths = (
{
closed = 1;
nodes = (
"412 25 LINE",
"412 1322 LINE",
"269 1322 LINE",
"269 25 LINE"
);
},
{
closed = 1;
nodes = (
"1120 990 LINE",
"1120 1358 LINE",
"269 1358 LINE",
"269 1285 LINE",
"879 1285 LINE SMOOTH",
"961 1285 OFFCURVE",
"994 1270 OFFCURVE",
"1009 1227 CURVE SMOOTH",
"1089 990 LINE"
);
},
{
closed = 1;
nodes = (
"613 0 LINE",
"613 50 LINE",
"349 80 LINE",
"79 50 LINE",
"79 0 LINE"
);
},
{
closed = 1;
nodes = (
"807 621 LINE",
"807 693 LINE",
"338 693 LINE",
"338 621 LINE"
);
},
{
closed = 1;
nodes = (
"846 366 LINE",
"846 951 LINE",
"773 951 LINE",
"773 366 LINE"
);
},
{
closed = 1;
nodes = (
"393 1358 LINE",
"73 1358 LINE",
"73 1298 LINE",
"393 1268 LINE"
);
}
);
width = 1157;
},
{
anchors = (
{
name = bottom;
position = "{547, 0}";
},
{
name = top;
position = "{547, 1358}";
}
);
layerId = "20F63CDD-78BD-4F3A-8DC2-32840B76756A";
paths = (
{
closed = 1;
nodes = (
"483 36 LINE",
"483 1309 LINE",
"227 1309 LINE",
"227 36 LINE"
);
},
{
closed = 1;
nodes = (
"1060 991 LINE",
"1060 1358 LINE",
"227 1358 LINE",
"227 1260 LINE",
"734 1260 LINE SMOOTH",
"810 1260 OFFCURVE",
"834 1247 OFFCURVE",
"860 1204 CURVE SMOOTH",
"990 991 LINE"
);
},
{
closed = 1;
nodes = (
"639 0 LINE",
"639 72 LINE",
"356 102 LINE",
"70 72 LINE",
"70 0 LINE"
);
},
{
closed = 1;
nodes = (
"744 610 LINE",
"744 707 LINE",
"319 707 LINE",
"319 610 LINE"
);
},
{
closed = 1;
nodes = (
"803 367 LINE",
"803 943 LINE",
"697 943 LINE",
"697 367 LINE"
);
},
{
closed = 1;
nodes = (
"389 1358 LINE",
"70 1358 LINE",
"70 1286 LINE",
"389 1256 LINE"
);
}
);
width = 1095;
}
);
leftMetricsKey = H;
note = F;
rightKerningGroup = F;
rightMetricsKey = "=H/2";
unicode = 0046;
},
{
glyphname = G;
lastChange = "2019-04-04 01:06:50 +0000";
layers = (
{
anchors = (
{
name = bottom;
position = "{795, 0}";
},
{
name = top;
position = "{821, 1358}";
}
);
layerId = "6CE37295-6E30-426D-87AF-6FEE9061C297";
paths = (
{
closed = 1;
nodes = (
"893 -27 OFFCURVE",
"967 -25 OFFCURVE",
"1116 2 CURVE SMOOTH",
"1254 28 OFFCURVE",
"1297 35 OFFCURVE",
"1343 32 CURVE",
"1343 124 LINE",
"1316 124 OFFCURVE",
"1299 128 OFFCURVE",
"1299 161 CURVE SMOOTH",
"1299 539 LINE",
"1168 456 LINE",
"1414 486 LINE",
"1414 570 LINE",
"793 570 LINE",
"793 486 LINE",
"1122 456 LINE",
"991 539 LINE",
"991 38 LINE",
"1139 196 LINE",
"1025 104 OFFCURVE",
"939 73 OFFCURVE",
"840 73 CURVE SMOOTH",
"609 73 OFFCURVE",
"423 270 OFFCURVE",
"423 689 CURVE SMOOTH",
"423 1058 OFFCURVE",
"555 1292 OFFCURVE",
"833 1292 CURVE SMOOTH",
"1069 1292 OFFCURVE",
"1188 1098 OFFCURVE",
"1229 948 CURVE",
"1343 948 LINE",
"1350 1370 LINE",
"1237 1370 LINE",
"1232 1126 LINE",
"1293 1188 LINE",
"1151 1322 OFFCURVE",
"974 1385 OFFCURVE",
"778 1385 CURVE SMOOTH",
"372 1385 OFFCURVE",
"23 1070 OFFCURVE",
"23 655 CURVE SMOOTH",
"23 233 OFFCURVE",
"377 -27 OFFCURVE",
"818 -27 CURVE SMOOTH"
);
}
);
userData = {
assembly = "PUSHB[ ]\011/* 7 values pushed */
32 3 2 0 7 1 76 
MPPEM[ ]\011/* MeasurePixelPerEm */
PUSHB[ ]\011/* 1 value pushed */
34 
LT[ ]\011/* LessThan */
IF[ ]\011/* If */
NPUSHB[ ]\011/* 43 values pushed */
0 0 9 1 1 2 0 1 105 0 2 0 3 4 2 3 105 0 6 6 68 77 0 7 7 5 97 0 5 5 74 77 0 8 8 4 97 0 4 4 75 4 78 
ELSE[ ]\011/* Else */
MPPEM[ ]\011/* MeasurePixelPerEm */
PUSHB[ ]\011/* 1 value pushed */
60 
LT[ ]\011/* LessThan */
IF[ ]\011/* If */
NPUSHB[ ]\011/* 46 values pushed */
0 6 5 7 5 6 7 128 0 0 9 1 1 2 0 1 105 0 2 0 3 4 2 3 105 0 7 7 5 97 0 5 5 74 77 0 8 8 4 97 0 4 4 75 4 78 
ELSE[ ]\011/* Else */
NPUSHB[ ]\011/* 44 values pushed */
0 6 5 7 5 6 7 128 0 5 0 7 0 5 7 105 0 0 9 1 1 2 0 1 105 0 2 0 3 4 2 3 105 0 8 8 4 97 0 4 4 75 4 78 
EIF[ ]\011/* EndIf */
EIF[ ]\011/* EndIf */
NPUSHB[ ]\011/* 14 values pushed */
52 50 36 41 18 38 33 34 19 35 17 10 11 31 
CALL[ ]\011/* CallFunction */";
};
width = 1434;
},
{
anchors = (
{
name = bottom;
position = "{755, 0}";
},
{
name = top;
position = "{710, 1358}";
}
);
hints = (
{
horizontal = 1;
origin = "{0, 45}";
target = "{0, 22}";
type = TTStem;
options = 4;
},
{
horizontal = 1;
origin = "{0, 39}";
target = "{0, 28}";
type = TTStem;
options = 4;
},
{
horizontal = 1;
origin = "{0, 14}";
target = "{0, 15}";
type = TTStem;
options = 4;
},
{
horizontal = 1;
origin = "{0, 15}";
target = "{0, 12}";
type = Align;
options = 4;
},
{
origin = "{0, 42}";
type = Anchor;
},
{
origin = "{0, 42}";
target = "{0, 25}";
type = TTStem;
options = 4;
},
{
origin = "{rsb}";
target = "{0, 9}";
type = TTStem;
},
{
origin = "{0, 9}";
target = "{0, 18}";
type = TTStem;
},
{
origin = "{0, 9}";
target = "{0, 32}";
type = TTStem;
},
{
origin = "{0, 32}";
target = "{0, 31}";
type = TTStem;
options = 4;
},
{
origin = "{0, 32}";
target = "{0, 33}";
type = TTStem;
options = 4;
},
{
origin = "{0, 31}";
target = "{0, 34}";
type = TTStem;
options = 4;
},
{
horizontal = 1;
origin = "{0, 45}";
target = "{0, 5}";
type = TTStem;
},
{
horizontal = 1;
origin = "{0, 5}";
target = "{0, 6}";
type = TTStem;
options = 4;
},
{
horizontal = 1;
origin = "{0, 45}";
type = Anchor;
},
{
horizontal = 1;
origin = "{0, 39}";
type = Anchor;
},
{
horizontal = 1;
origin = "{0, 45}";
target = "{0, 39}";
other1 = "{0, 14}";
type = Interpolate;
options = 4;
}
);
layerId = "EBD25FEC-6C57-4903-A936-5FDFC9C63FB2";
paths = (
{
closed = 1;
nodes = (
"843 -27 OFFCURVE",
"942 -21 OFFCURVE",
"1086 12 CURVE SMOOTH",
"1177 34 OFFCURVE",
"1191 37 OFFCURVE",
"1267 50 CURVE",
"1267 89 LINE",
"1242 89 OFFCURVE",
"1230 110 OFFCURVE",
"1230 154 CURVE SMOOTH",
"1230 518 LINE",
"1172 463 LINE",
"1369 493 LINE",
"1369 547 LINE",
"871 547 LINE",
"871 493 LINE",
"1154 463 LINE",
"1097 518 LINE",
"1097 52 LINE",
"1157 157 LINE",
"1043 65 OFFCURVE",
"877 40 OFFCURVE",
"773 40 CURVE SMOOTH",
"432 40 OFFCURVE",
"216 306 OFFCURVE",
"216 681 CURVE SMOOTH",
"216 1064 OFFCURVE",
"443 1322 OFFCURVE",
"746 1322 CURVE SMOOTH",
"951 1322 OFFCURVE",
"1120 1202 OFFCURVE",
"1184 948 CURVE",
"1245 948 LINE",
"1248 1370 LINE",
"1188 1370 LINE",
"1187 1180 LINE",
"1213 1182 LINE",
"1075 1322 OFFCURVE",
"926 1385 OFFCURVE",
"742 1385 CURVE SMOOTH",
"342 1385 OFFCURVE",
"57 1084 OFFCURVE",
"57 674 CURVE SMOOTH",
"57 259 OFFCURVE",
"347 -27 OFFCURVE",
"779 -27 CURVE SMOOTH"
);
}
);
width = 1418;
},
{
anchors = (
{
name = bottom;
position = "{869, 0}";
},
{
name = top;
position = "{834, 1358}";
}
);
layerId = "16DF9356-34D2-4C02-8100-FB39A491A1B7";
paths = (
{
closed = 1;
nodes = (
"957 -27 OFFCURVE",
"1057 -24 OFFCURVE",
"1222 12 CURVE SMOOTH",
"1358 43 OFFCURVE",
"1405 50 OFFCURVE",
"1416 50 CURVE",
"1416 90 LINE",
"1390 90 OFFCURVE",
"1376 110 OFFCURVE",
"1376 155 CURVE SMOOTH",
"1376 512 LINE",
"1315 453 LINE",
"1516 483 LINE",
"1516 546 LINE",
"1007 546 LINE",
"1007 483 LINE",
"1294 453 LINE",
"1233 512 LINE",
"1233 52 LINE",
"1298 157 LINE",
"1176 65 OFFCURVE",
"998 40 OFFCURVE",
"882 40 CURVE SMOOTH",
"518 40 OFFCURVE",
"286 280 OFFCURVE",
"286 666 CURVE SMOOTH",
"286 1051 OFFCURVE",
"520 1322 OFFCURVE",
"855 1322 CURVE SMOOTH",
"1075 1322 OFFCURVE",
"1255 1200 OFFCURVE",
"1324 948 CURVE",
"1389 948 LINE",
"1392 1370 LINE",
"1327 1370 LINE",
"1326 1180 LINE",
"1354 1182 LINE",
"1206 1322 OFFCURVE",
"1046 1385 OFFCURVE",
"848 1385 CURVE SMOOTH",
"420 1385 OFFCURVE",
"123 1083 OFFCURVE",
"123 668 CURVE SMOOTH",
"123 259 OFFCURVE",
"411 -27 OFFCURVE",
"941 -27 CURVE SMOOTH"
);
}
);
width = 1567;
},
{
anchors = (
{
name = bottom;
position = "{783, 0}";
},
{
name = top;
position = "{793, 1358}";
}
);
layerId = "20F63CDD-78BD-4F3A-8DC2-32840B76756A";
paths = (
{
closed = 1;
nodes = (
"868 -27 OFFCURVE",
"952 -25 OFFCURVE",
"1102 5 CURVE SMOOTH",
"1225 31 OFFCURVE",
"1251 36 OFFCURVE",
"1298 38 CURVE",
"1298 114 LINE",
"1270 114 OFFCURVE",
"1257 126 OFFCURVE",
"1257 160 CURVE SMOOTH",
"1257 526 LINE",
"1147 458 LINE",
"1370 488 LINE",
"1370 563 LINE",
"812 563 LINE",
"812 488 LINE",
"1112 458 LINE",
"1002 526 LINE",
"1002 42 LINE",
"1129 185 LINE",
"1020 98 OFFCURVE",
"919 70 OFFCURVE",
"826 70 CURVE SMOOTH",
"551 70 OFFCURVE",
"375 306 OFFCURVE",
"375 691 CURVE SMOOTH",
"375 1048 OFFCURVE",
"529 1295 OFFCURVE",
"788 1295 CURVE SMOOTH",
"1000 1295 OFFCURVE",
"1131 1115 OFFCURVE",
"1176 948 CURVE",
"1285 948 LINE",
"1287 1370 LINE",
"1178 1370 LINE",
"1176 1144 LINE",
"1226 1166 LINE",
"1073 1344 OFFCURVE",
"891 1385 OFFCURVE",
"746 1385 CURVE SMOOTH",
"352 1385 OFFCURVE",
"46 1087 OFFCURVE",
"46 669 CURVE SMOOTH",
"46 235 OFFCURVE",
"372 -27 OFFCURVE",
"825 -27 CURVE SMOOTH"
);
}
);
width = 1418;
}
);
leftKerningGroup = C;
leftMetricsKey = "=O";
note = G;
rightKerningGroup = G;
rightMetricsKey = "=H*0.7";
unicode = 0047;
},
{
glyphname = uni021C;
lastChange = "2019-04-04 01:08:51 +0000";
layers = (
{
layerId = "6CE37295-6E30-426D-87AF-6FEE9061C297";
paths = (
{
closed = 1;
nodes = (
"701 -136 OFFCURVE",
"1052 28 OFFCURVE",
"1052 399 CURVE SMOOTH",
"1052 605 OFFCURVE",
"944 775 OFFCURVE",
"645 807 CURVE",
"688 716 LINE",
"889 816 OFFCURVE",
"983 913 OFFCURVE",
"983 1073 CURVE SMOOTH",
"983 1272 OFFCURVE",
"841 1384 OFFCURVE",
"548 1384 CURVE SMOOTH",
"336 1384 OFFCURVE",
"199 1330 OFFCURVE",
"87 1189 CURVE",
"167 1188 LINE",
"167 1370 LINE",
"65 1370 LINE",
"65 948 LINE",
"167 948 LINE",
"202 1158 OFFCURVE",
"288 1292 OFFCURVE",
"429 1292 CURVE SMOOTH",
"544 1292 OFFCURVE",
"615 1205 OFFCURVE",
"615 1069 CURVE SMOOTH",
"615 949 OFFCURVE",
"564 825 OFFCURVE",
"251 652 CURVE",
"304 572 LINE",
"385 648 OFFCURVE",
"450 664 OFFCURVE",
"496 664 CURVE SMOOTH",
"617 664 OFFCURVE",
"664 559 OFFCURVE",
"664 441 CURVE SMOOTH",
"664 199 OFFCURVE",
"461 0 OFFCURVE",
"45 0 CURVE",
"45 -136 LINE"
);
}
);
userData = {
assembly = "NPUSHB[ ]\011/* 10 values pushed */
37 1 4 5 33 1 2 3 2 76 
MPPEM[ ]\011/* MeasurePixelPerEm */
PUSHB[ ]\011/* 1 value pushed */
60 
LT[ ]\011/* LessThan */
IF[ ]\011/* If */
NPUSHB[ ]\011/* 32 values pushed */
0 2 3 1 3 2 1 128 0 4 0 3 2 4 3 106 0 5 5 74 77 0 1 1 0 97 0 0 0 75 0 78 
ELSE[ ]\011/* Else */
MPPEM[ ]\011/* MeasurePixelPerEm */
PUSHB[ ]\011/* 1 value pushed */
84 
LT[ ]\011/* LessThan */
IF[ ]\011/* If */
NPUSHB[ ]\011/* 32 values pushed */
0 5 4 5 133 0 2 3 1 3 2 1 128 0 4 0 3 2 4 3 106 0 1 1 0 97 0 0 0 75 0 78 
ELSE[ ]\011/* Else */
NPUSHB[ ]\011/* 37 values pushed */
0 5 4 5 133 0 2 3 1 3 2 1 128 0 4 0 3 2 4 3 106 0 1 0 0 1 89 0 1 1 0 97 0 0 1 0 81 
EIF[ ]\011/* EndIf */
EIF[ ]\011/* EndIf */
NPUSHB[ ]\011/* 9 values pushed */
35 25 46 38 34 19 6 11 28 
CALL[ ]\011/* CallFunction */";
};
width = 1075;
},
{
hints = (
{
horizontal = 1;
origin = "{0, 40}";
type = Anchor;
},
{
horizontal = 1;
origin = "{0, 40}";
target = "{0, 39}";
type = TTStem;
options = 4;
},
{
horizontal = 1;
origin = "{0, 23}";
target = "{0, 12}";
type = TTStem;
options = 4;
},
{
horizontal = 1;
origin = "{0, 39}";
target = "{0, 23}";
other1 = "{0, 30}";
type = Interpolate;
},
{
horizontal = 1;
origin = "{0, 30}";
target = "{0, 29}";
type = TTStem;
options = 4;
},
{
origin = "{rsb}";
target = "{0, 2}";
type = TTStem;
},
{
origin = "{0, 2}";
target = "{0, 36}";
type = TTStem;
options = 4;
},
{
origin = "{0, 2}";
target = "{0, 9}";
type = TTStem;
},
{
origin = "{0, 9}";
target = "{0, 26}";
type = TTStem;
options = 4;
},
{
origin = "{lsb}";
target = "{0, 19}";
type = TTStem;
},
{
origin = "{0, 19}";
target = "{0, 20}";
type = TTStem;
},
{
origin = "{0, 19}";
target = "{0, 18}";
type = Align;
options = 4;
},
{
origin = "{0, 20}";
target = "{0, 17}";
type = Align;
options = 4;
},
{
horizontal = 1;
origin = "{0, 12}";
type = Anchor;
}
);
layerId = "EBD25FEC-6C57-4903-A936-5FDFC9C63FB2";
paths = (
{
closed = 1;
nodes = (
"510 -155 OFFCURVE",
"919 77 OFFCURVE",
"919 443 CURVE SMOOTH",
"919 626 OFFCURVE",
"816 746 OFFCURVE",
"621 770 CURVE",
"611 733 LINE",
"769 846 OFFCURVE",
"842 951 OFFCURVE",
"842 1087 CURVE SMOOTH",
"842 1286 OFFCURVE",
"687 1386 OFFCURVE",
"501 1386 CURVE SMOOTH",
"353 1386 OFFCURVE",
"223 1323 OFFCURVE",
"121 1158 CURVE",
"158 1165 LINE",
"158 1370 LINE",
"98 1370 LINE",
"98 948 LINE",
"158 948 LINE",
"160 1156 OFFCURVE",
"299 1315 OFFCURVE",
"462 1315 CURVE SMOOTH",
"587 1315 OFFCURVE",
"695 1223 OFFCURVE",
"695 1062 CURVE SMOOTH",
"695 873 OFFCURVE",
"550 781 OFFCURVE",
"333 653 CURVE",
"365 604 LINE",
"439 663 OFFCURVE",
"498 679 OFFCURVE",
"547 679 CURVE SMOOTH",
"677 679 OFFCURVE",
"765 566 OFFCURVE",
"765 418 CURVE SMOOTH",
"765 102 OFFCURVE",
"375 -95 OFFCURVE",
"92 -95 CURVE",
"92 -155 LINE"
);
}
);
width = 977;
},
{
layerId = "16DF9356-34D2-4C02-8100-FB39A491A1B7";
paths = (
{
closed = 1;
nodes = (
"544 -155 OFFCURVE",
"983 76 OFFCURVE",
"983 440 CURVE SMOOTH",
"983 625 OFFCURVE",
"872 746 OFFCURVE",
"663 771 CURVE",
"653 733 LINE",
"822 846 OFFCURVE",
"900 960 OFFCURVE",
"900 1096 CURVE SMOOTH",
"900 1286 OFFCURVE",
"748 1386 OFFCURVE",
"549 1386 CURVE SMOOTH",
"387 1386 OFFCURVE",
"280 1323 OFFCURVE",
"127 1158 CURVE",
"166 1166 LINE",
"166 1370 LINE",
"102 1370 LINE",
"102 948 LINE",
"166 948 LINE",
"188 1155 OFFCURVE",
"327 1314 OFFCURVE",
"512 1314 CURVE SMOOTH",
"655 1314 OFFCURVE",
"742 1223 OFFCURVE",
"742 1073 CURVE SMOOTH",
"742 873 OFFCURVE",
"586 781 OFFCURVE",
"353 653 CURVE",
"389 604 LINE",
"457 663 OFFCURVE",
"523 679 OFFCURVE",
"580 679 CURVE SMOOTH",
"729 679 OFFCURVE",
"823 566 OFFCURVE",
"823 418 CURVE SMOOTH",
"823 103 OFFCURVE",
"402 -94 OFFCURVE",
"96 -94 CURVE",
"96 -155 LINE"
);
}
);
width = 1106;
},
{
layerId = "20F63CDD-78BD-4F3A-8DC2-32840B76756A";
paths = (
{
closed = 1;
nodes = (
"645 -142 OFFCURVE",
"932 45 OFFCURVE",
"932 405 CURVE SMOOTH",
"932 644 OFFCURVE",
"793 765 OFFCURVE",
"593 777 CURVE",
"632 721 LINE",
"797 829 OFFCURVE",
"855 983 OFFCURVE",
"855 1101 CURVE SMOOTH",
"855 1284 OFFCURVE",
"719 1384 OFFCURVE",
"535 1384 CURVE SMOOTH",
"358 1384 OFFCURVE",
"231 1291 OFFCURVE",
"137 1151 CURVE",
"185 1128 LINE",
"185 1370 LINE",
"85 1370 LINE",
"85 948 LINE",
"185 948 LINE",
"208 1129 OFFCURVE",
"285 1294 OFFCURVE",
"421 1294 CURVE SMOOTH",
"490 1294 OFFCURVE",
"577 1253 OFFCURVE",
"577 1078 CURVE SMOOTH",
"577 945 OFFCURVE",
"529 808 OFFCURVE",
"266 649 CURVE",
"311 581 LINE",
"377 641 OFFCURVE",
"437 648 OFFCURVE",
"464 648 CURVE SMOOTH",
"575 648 OFFCURVE",
"623 543 OFFCURVE",
"623 407 CURVE SMOOTH",
"623 123 OFFCURVE",
"446 -48 OFFCURVE",
"90 -48 CURVE",
"90 -142 LINE"
);
}
);
width = 977;
}
);
note = uni021C;
rightMetricsKey = B;
unicode = 021C;
},
{
glyphname = H;
lastChange = "2019-04-04 00:57:28 +0000";
layers = (
{
anchors = (
{
name = bottom;
position = "{821, 0}";
},
{
name = center;
position = "{821, 679}";
},
{
name = ogonek;
position = "{1555, 10}";
},
{
name = top;
position = "{821, 1358}";
},
{
name = topleft;
position = "{-19, 1358}";
}
);
layerId = "6CE37295-6E30-426D-87AF-6FEE9061C297";
paths = (
{
closed = 1;
nodes = (
"505 39 LINE",
"505 1311 LINE",
"198 1311 LINE",
"198 39 LINE"
);
},
{
closed = 1;
nodes = (
"1453 39 LINE",
"1453 1311 LINE",
"1146 1311 LINE",
"1146 39 LINE"
);
},
{
closed = 1;
nodes = (
"1195 650 LINE",
"1195 751 LINE",
"407 751 LINE",
"407 650 LINE"
);
},
{
closed = 1;
nodes = (
"674 0 LINE",
"674 81 LINE",
"350 111 LINE",
"29 81 LINE",
"29 0 LINE"
);
},
{
closed = 1;
nodes = (
"1622 0 LINE",
"1622 81 LINE",
"1298 111 LINE",
"977 81 LINE",
"977 0 LINE"
);
},
{
closed = 1;
nodes = (
"674 1277 LINE",
"674 1358 LINE",
"29 1358 LINE",
"29 1277 LINE",
"338 1247 LINE"
);
},
{
closed = 1;
nodes = (
"1622 1277 LINE",
"1622 1358 LINE",
"977 1358 LINE",
"977 1277 LINE",
"1286 1247 LINE"
);
}
);
userData = {
assembly = "PUSHB[ ]\011/* 5 values pushed */
62 42 2 8 74 
MPPEM[ ]\011/* MeasurePixelPerEm */
PUSHB[ ]\011/* 1 value pushed */
51 
LT[ ]\011/* LessThan */
IF[ ]\011/* If */
NPUSHB[ ]\011/* 37 values pushed */
0 10 0 3 0 10 3 103 13 11 9 3 7 7 8 97 12 1 8 8 68 77 6 4 2 3 0 0 1 95 5 1 1 1 69 1 78 
ELSE[ ]\011/* Else */
MPPEM[ ]\011/* MeasurePixelPerEm */
PUSHB[ ]\011/* 1 value pushed */
60 
LT[ ]\011/* LessThan */
IF[ ]\011/* If */
NPUSHB[ ]\011/* 34 values pushed */
0 10 0 3 0 10 3 103 6 4 2 3 0 5 1 1 0 1 99 13 11 9 3 7 7 8 97 12 1 8 8 68 7 78 
ELSE[ ]\011/* Else */
NPUSHB[ ]\011/* 43 values pushed */
12 1 8 13 11 9 3 7 10 8 7 105 0 10 0 3 0 10 3 103 6 4 2 3 0 1 1 0 89 6 4 2 3 0 0 1 95 5 1 1 0 1 79 
EIF[ ]\011/* EndIf */
EIF[ ]\011/* EndIf */
NPUSHB[ ]\011/* 22 values pushed */
66 64 61 60 56 55 52 49 46 44 20 19 34 66 19 51 34 66 17 14 11 31 
CALL[ ]\011/* CallFunction */";
};
width = 1651;
},
{
anchors = (
{
name = bottom;
position = "{807, 0}";
},
{
name = center;
position = "{807, 679}";
},
{
name = ogonek;
position = "{1545, 10}";
},
{
name = top;
position = "{807, 1358}";
},
{
name = topleft;
position = "{22, 1358}";
}
);
hints = (
{
horizontal = 1;
origin = "{5, 2}";
target = "{5, 3}";
type = TTStem;
options = 4;
},
{
horizontal = 1;
origin = "{5, 2}";
target = "{6, 2}";
type = Align;
options = 4;
},
{
horizontal = 1;
origin = "{5, 3}";
target = "{5, 0}";
type = Align;
options = 4;
},
{
horizontal = 1;
origin = "{5, 3}";
target = "{6, 3}";
type = Align;
options = 4;
},
{
horizontal = 1;
origin = "{3, 4}";
target = "{3, 3}";
type = TTStem;
options = 4;
},
{
horizontal = 1;
origin = "{3, 4}";
target = "{4, 4}";
type = Align;
options = 4;
},
{
horizontal = 1;
origin = "{3, 3}";
target = "{3, 1}";
type = Align;
options = 4;
},
{
horizontal = 1;
origin = "{3, 3}";
target = "{4, 3}";
type = Align;
options = 4;
},
{
horizontal = 1;
origin = "{5, 3}";
target = "{3, 3}";
other1 = "{2, 3}";
type = Interpolate;
},
{
horizontal = 1;
origin = "{2, 3}";
target = "{2, 2}";
type = TTStem;
},
{
origin = "{0, 3}";
type = Anchor;
},
{
origin = "{0, 3}";
target = "{0, 0}";
type = TTStem;
},
{
origin = "{1, 0}";
type = Anchor;
},
{
origin = "{1, 0}";
target = "{1, 3}";
type = TTStem;
},
{
horizontal = 1;
origin = "{3, 4}";
type = Anchor;
},
{
horizontal = 1;
origin = "{5, 2}";
type = Anchor;
},
{
horizontal = 1;
origin = "{5, 3}";
target = "{5, 2}";
other1 = "{0, 2}";
type = Interpolate;
options = 4;
},
{
horizontal = 1;
origin = "{0, 2}";
target = "{1, 2}";
type = Align;
options = 4;
},
{
horizontal = 1;
origin = "{3, 3}";
target = "{3, 4}";
other1 = "{0, 3}";
type = Interpolate;
options = 4;
},
{
horizontal = 1;
origin = "{0, 3}";
target = "{1, 3}";
type = Align;
options = 4;
}
);
layerId = "EBD25FEC-6C57-4903-A936-5FDFC9C63FB2";
paths = (
{
closed = 1;
nodes = (
"398 31 LINE",
"398 1326 LINE",
"265 1326 LINE",
"265 31 LINE"
);
},
{
closed = 1;
nodes = (
"1359 31 LINE",
"1359 1326 LINE",
"1225 1326 LINE",
"1225 31 LINE"
);
},
{
closed = 1;
nodes = (
"1281 669 LINE",
"1281 732 LINE",
"339 732 LINE",
"339 669 LINE"
);
},
{
closed = 1;
nodes = (
"594 0 LINE",
"594 50 LINE",
"335 80 LINE",
"70 50 LINE",
"70 0 LINE"
);
},
{
closed = 1;
nodes = (
"1554 0 LINE",
"1554 50 LINE",
"1296 80 LINE",
"1030 50 LINE",
"1030 0 LINE"
);
},
{
closed = 1;
nodes = (
"594 1308 LINE",
"594 1358 LINE",
"70 1358 LINE",
"70 1308 LINE",
"330 1278 LINE"
);
},
{
closed = 1;
nodes = (
"1554 1308 LINE",
"1554 1358 LINE",
"1030 1358 LINE",
"1030 1308 LINE",
"1290 1278 LINE"
);
}
);
width = 1624;
},
{
anchors = (
{
name = bottom;
position = "{811, 0}";
},
{
name = center;
position = "{811, 679}";
},
{
name = ogonek;
position = "{1549, 10}";
},
{
name = top;
position = "{811, 1358}";
},
{
name = topleft;
position = "{25, 1358}";
}
);
layerId = "16DF9356-34D2-4C02-8100-FB39A491A1B7";
paths = (
{
closed = 1;
nodes = (
"426 31 LINE",
"426 1322 LINE",
"283 1322 LINE",
"283 31 LINE"
);
},
{
closed = 1;
nodes = (
"1453 31 LINE",
"1453 1322 LINE",
"1310 1322 LINE",
"1310 31 LINE"
);
},
{
closed = 1;
nodes = (
"1348 664 LINE",
"1348 736 LINE",
"385 736 LINE",
"385 664 LINE"
);
},
{
closed = 1;
nodes = (
"634 0 LINE",
"634 50 LINE",
"357 80 LINE",
"73 50 LINE",
"73 0 LINE"
);
},
{
closed = 1;
nodes = (
"1661 0 LINE",
"1661 50 LINE",
"1384 80 LINE",
"1101 50 LINE",
"1101 0 LINE"
);
},
{
closed = 1;
nodes = (
"634 1308 LINE",
"634 1358 LINE",
"73 1358 LINE",
"73 1308 LINE",
"350 1278 LINE"
);
},
{
closed = 1;
nodes = (
"1661 1308 LINE",
"1661 1358 LINE",
"1101 1358 LINE",
"1101 1308 LINE",
"1377 1278 LINE"
);
}
);
width = 1734;
},
{
anchors = (
{
name = bottom;
position = "{808, 0}";
},
{
name = center;
position = "{808, 679}";
},
{
name = ogonek;
position = "{1514, 10}";
},
{
name = top;
position = "{808, 1358}";
},
{
name = topleft;
position = "{-16, 1358}";
}
);
layerId = "20F63CDD-78BD-4F3A-8DC2-32840B76756A";
paths = (
{
closed = 1;
nodes = (
"503 41 LINE",
"503 1319 LINE",
"247 1319 LINE",
"247 41 LINE"
);
},
{
closed = 1;
nodes = (
"1379 41 LINE",
"1379 1319 LINE",
"1123 1319 LINE",
"1123 41 LINE"
);
},
{
closed = 1;
nodes = (
"1169 652 LINE",
"1169 749 LINE",
"427 749 LINE",
"427 652 LINE"
);
},
{
closed = 1;
nodes = (
"680 0 LINE",
"680 72 LINE",
"379 102 LINE",
"70 72 LINE",
"70 0 LINE"
);
},
{
closed = 1;
nodes = (
"1555 0 LINE",
"1555 72 LINE",
"1254 102 LINE",
"946 72 LINE",
"946 0 LINE"
);
},
{
closed = 1;
nodes = (
"680 1286 LINE",
"680 1358 LINE",
"70 1358 LINE",
"70 1286 LINE",
"366 1256 LINE"
);
},
{
closed = 1;
nodes = (
"1555 1286 LINE",
"1555 1358 LINE",
"946 1358 LINE",
"946 1286 LINE",
"1238 1256 LINE"
);
}
);
width = 1624;
}
);
note = H;
unicode = 0048;
},
{
glyphname = I;
lastChange = "2019-04-04 01:10:33 +0000";
layers = (
{
anchors = (
{
name = bottom;
position = "{355, 0}";
},
{
name = ogonek;
position = "{614, 10}";
},
{
name = top;
position = "{355, 1358}";
}
);
layerId = "6CE37295-6E30-426D-87AF-6FEE9061C297";
paths = (
{
closed = 1;
nodes = (
"505 40 LINE",
"505 1311 LINE",
"198 1311 LINE",
"198 40 LINE"
);
},
{
closed = 1;
nodes = (
"674 0 LINE",
"674 81 LINE",
"350 111 LINE",
"29 81 LINE",
"29 0 LINE"
);
},
{
closed = 1;
nodes = (
"674 1277 LINE",
"674 1358 LINE",
"29 1358 LINE",
"29 1277 LINE",
"338 1247 LINE"
);
}
);
userData = {
assembly = "PUSHB[ ]\011/* 4 values pushed */
14 1 2 74 
MPPEM[ ]\011/* MeasurePixelPerEm */
PUSHB[ ]\011/* 1 value pushed */
51 
LT[ ]\011/* LessThan */
IF[ ]\011/* If */
NPUSHB[ ]\011/* 24 values pushed */
3 1 1 1 2 97 0 2 2 68 77 4 1 0 0 5 95 6 1 5 5 69 5 78 
ELSE[ ]\011/* Else */
MPPEM[ ]\011/* MeasurePixelPerEm */
PUSHB[ ]\011/* 1 value pushed */
60 
LT[ ]\011/* LessThan */
IF[ ]\011/* If */
NPUSHB[ ]\011/* 21 values pushed */
4 1 0 6 1 5 0 5 99 3 1 1 1 2 97 0 2 2 68 1 78 
ELSE[ ]\011/* Else */
NPUSHB[ ]\011/* 28 values pushed */
0 2 3 1 1 0 2 1 105 4 1 0 5 5 0 89 4 1 0 0 5 95 6 1 5 0 5 79 
EIF[ ]\011/* EndIf */
EIF[ ]\011/* EndIf */
NPUSHB[ ]\011/* 14 values pushed */
0 0 0 27 0 24 19 35 20 19 34 7 11 27 
CALL[ ]\011/* CallFunction */";
};
width = 703;
},
{
anchors = (
{
name = bottom;
position = "{328, 0}";
},
{
name = ogonek;
position = "{548, 10}";
},
{
name = top;
position = "{328, 1358}";
}
);
hints = (
{
horizontal = 1;
origin = "{1, 4}";
target = "{1, 3}";
type = TTStem;
options = 4;
},
{
horizontal = 1;
origin = "{1, 3}";
target = "{1, 1}";
type = Align;
options = 4;
},
{
horizontal = 1;
origin = "{2, 2}";
target = "{2, 3}";
type = TTStem;
options = 4;
},
{
horizontal = 1;
origin = "{2, 3}";
target = "{2, 0}";
type = Align;
options = 4;
},
{
origin = "{0, 3}";
type = Anchor;
},
{
origin = "{0, 3}";
target = "{0, 0}";
type = TTStem;
options = 4;
},
{
horizontal = 1;
origin = "{1, 4}";
type = Anchor;
},
{
horizontal = 1;
origin = "{2, 2}";
type = Anchor;
},
{
horizontal = 1;
origin = "{2, 3}";
target = "{2, 2}";
other1 = "{0, 2}";
type = Interpolate;
options = 4;
},
{
horizontal = 1;
origin = "{1, 3}";
target = "{1, 4}";
other1 = "{0, 3}";
type = Interpolate;
options = 4;
}
);
layerId = "EBD25FEC-6C57-4903-A936-5FDFC9C63FB2";
paths = (
{
closed = 1;
nodes = (
"398 25 LINE",
"398 1326 LINE",
"265 1326 LINE",
"265 25 LINE"
);
},
{
closed = 1;
nodes = (
"594 0 LINE",
"594 50 LINE",
"335 80 LINE",
"70 50 LINE",
"70 0 LINE"
);
},
{
closed = 1;
nodes = (
"594 1308 LINE",
"594 1358 LINE",
"70 1358 LINE",
"70 1308 LINE",
"330 1278 LINE"
);
}
);
width = 664;
},
{
anchors = (
{
name = bottom;
position = "{346, 0}";
},
{
name = ogonek;
position = "{592, 10}";
},
{
name = top;
position = "{340, 1358}";
}
);
layerId = "16DF9356-34D2-4C02-8100-FB39A491A1B7";
paths = (
{
closed = 1;
nodes = (
"412 25 LINE",
"412 1322 LINE",
"269 1322 LINE",
"269 25 LINE"
);
},
{
closed = 1;
nodes = (
"607 0 LINE",
"607 50 LINE",
"343 80 LINE",
"73 50 LINE",
"73 0 LINE"
);
},
{
closed = 1;
nodes = (
"607 1308 LINE",
"607 1358 LINE",
"73 1358 LINE",
"73 1308 LINE",
"336 1278 LINE"
);
}
);
width = 680;
},
{
anchors = (
{
name = bottom;
position = "{333, 0}";
},
{
name = ogonek;
position = "{590, 10}";
},
{
name = top;
position = "{333, 1358}";
}
);
layerId = "20F63CDD-78BD-4F3A-8DC2-32840B76756A";
leftMetricsKey = "=H-23";
rightMetricsKey = "=H-22";
paths = (
{
closed = 1;
nodes = (
"460 36 LINE",
"460 1319 LINE",
"204 1319 LINE",
"204 36 LINE"
);
},
{
closed = 1;
nodes = (
"617 0 LINE",
"617 72 LINE",
"334 102 LINE",
"47 72 LINE",
"47 0 LINE"
);
},
{
closed = 1;
nodes = (
"617 1286 LINE",
"617 1358 LINE",
"47 1358 LINE",
"47 1286 LINE",
"322 1256 LINE"
);
}
);
width = 664;
}
);
leftMetricsKey = H;
note = I;
rightMetricsKey = H;
unicode = 0049;
},
{
glyphname = Igrave;
lastChange = "2019-04-04 01:10:38 +0000";
layers = (
{
components = (
{
name = I;
},
{
name = gravecomb.case;
transform = "{1, 0, 0, 1, 355, 0}";
}
);
layerId = "6CE37295-6E30-426D-87AF-6FEE9061C297";
width = 703;
},
{
components = (
{
name = I;
},
{
name = gravecomb.case;
transform = "{1, 0, 0, 1, 328, 0}";
}
);
layerId = "EBD25FEC-6C57-4903-A936-5FDFC9C63FB2";
width = 664;
},
{
background = {
paths = (
{
closed = 0;
nodes = (
"89 1777 LINE",
"89 475 LINE"
);
}
);
};
components = (
{
name = I;
},
{
name = gravecomb.case;
transform = "{1, 0, 0, 1, 340, 0}";
}
);
layerId = "16DF9356-34D2-4C02-8100-FB39A491A1B7";
width = 680;
},
{
background = {
paths = (
{
closed = 0;
nodes = (
"89 1777 LINE",
"89 475 LINE"
);
}
);
};
components = (
{
name = I;
},
{
name = gravecomb.case;
transform = "{1, 0, 0, 1, 333, 0}";
}
);
layerId = "20F63CDD-78BD-4F3A-8DC2-32840B76756A";
width = 664;
}
);
leftMetricsKey = "=I";
note = Igrave;
rightMetricsKey = "=I";
unicode = 00CC;
},
{
glyphname = J;
lastChange = "2019-04-04 01:11:10 +0000";
layers = (
{
anchors = (
{
name = bottom;
position = "{487, 0}";
},
{
name = top;
position = "{487, 1358}";
}
);
layerId = "6CE37295-6E30-426D-87AF-6FEE9061C297";
paths = (
{
closed = 1;
nodes = (
"223 -401 OFFCURVE",
"285 -379 OFFCURVE",
"340 -351 CURVE SMOOTH",
"538 -251 OFFCURVE",
"638 -58 OFFCURVE",
"647 214 CURVE SMOOTH",
"655 452 OFFCURVE",
"658 597 OFFCURVE",
"658 648 CURVE SMOOTH",
"658 1311 LINE",
"351 1311 LINE",
"351 273 LINE SMOOTH",
"351 96 OFFCURVE",
"352 -226 OFFCURVE",
"288 -226 CURVE SMOOTH",
"271 -226 OFFCURVE",
"241 -200 OFFCURVE",
"227 -181 CURVE SMOOTH",
"205 -154 OFFCURVE",
"170 -124 OFFCURVE",
"108 -124 CURVE SMOOTH",
"27 -124 OFFCURVE",
"-42 -174 OFFCURVE",
"-42 -246 CURVE SMOOTH",
"-42 -327 OFFCURVE",
"47 -401 OFFCURVE",
"160 -401 CURVE SMOOTH"
);
},
{
closed = 1;
nodes = (
"826 1277 LINE",
"826 1358 LINE",
"182 1358 LINE",
"182 1277 LINE",
"491 1247 LINE"
);
}
);
userData = {
assembly = "NPUSHB[ ]\011/* 10 values pushed */
7 1 4 0 1 76 20 1 2 74 
MPPEM[ ]\011/* MeasurePixelPerEm */
PUSHB[ ]\011/* 1 value pushed */
60 
LT[ ]\011/* LessThan */
IF[ ]\011/* If */
NPUSHB[ ]\011/* 19 values pushed */
0 0 0 4 0 4 101 3 1 1 1 2 97 0 2 2 68 1 78 
ELSE[ ]\011/* Else */
NPUSHB[ ]\011/* 25 values pushed */
0 2 3 1 1 0 2 1 105 0 0 4 4 0 89 0 0 0 4 97 0 4 0 4 81 
EIF[ ]\011/* EndIf */
PUSHB[ ]\011/* 8 values pushed */
40 35 20 25 34 5 11 27 
CALL[ ]\011/* CallFunction */";
};
width = 848;
},
{
anchors = (
{
name = bottom;
position = "{322, 0}";
},
{
name = top;
position = "{322, 1358}";
}
);
hints = (
{
horizontal = 1;
origin = "{1, 2}";
target = "{1, 3}";
type = TTStem;
options = 4;
},
{
horizontal = 1;
origin = "{1, 3}";
target = "{1, 0}";
type = Align;
options = 4;
},
{
horizontal = 1;
origin = "{0, 26}";
type = Anchor;
},
{
horizontal = 1;
origin = "{0, 26}";
target = "{0, 20}";
type = TTStem;
options = 4;
},
{
origin = "{0, 11}";
type = Anchor;
},
{
origin = "{0, 11}";
target = "{0, 8}";
type = TTStem;
},
{
horizontal = 1;
origin = "{1, 2}";
type = Anchor;
},
{
horizontal = 1;
origin = "{1, 3}";
target = "{1, 2}";
other1 = "{0, 10}";
type = Interpolate;
options = 4;
}
);
layerId = "EBD25FEC-6C57-4903-A936-5FDFC9C63FB2";
paths = (
{
closed = 1;
nodes = (
"73 -521 OFFCURVE",
"120 -505 OFFCURVE",
"167 -473 CURVE SMOOTH",
"333 -363 OFFCURVE",
"375 -174 OFFCURVE",
"385 98 CURVE SMOOTH",
"389 214 OFFCURVE",
"392 355 OFFCURVE",
"392 532 CURVE SMOOTH",
"392 1325 LINE",
"259 1325 LINE",
"259 157 LINE SMOOTH",
"259 -119 OFFCURVE",
"253 -418 OFFCURVE",
"154 -418 CURVE SMOOTH",
"128 -418 OFFCURVE",
"102 -399 OFFCURVE",
"85 -380 CURVE SMOOTH",
"67 -360 OFFCURVE",
"32 -333 OFFCURVE",
"-10 -333 CURVE SMOOTH",
"-61 -333 OFFCURVE",
"-100 -371 OFFCURVE",
"-100 -422 CURVE SMOOTH",
"-100 -482 OFFCURVE",
"-46 -521 OFFCURVE",
"26 -521 CURVE SMOOTH"
);
},
{
closed = 1;
nodes = (
"587 1308 LINE",
"587 1358 LINE",
"63 1358 LINE",
"63 1308 LINE",
"324 1278 LINE"
);
}
);
width = 640;
},
{
anchors = (
{
name = bottom;
position = "{319, 0}";
},
{
name = top;
position = "{327, 1358}";
}
);
layerId = "16DF9356-34D2-4C02-8100-FB39A491A1B7";
paths = (
{
closed = 1;
nodes = (
"70 -520 OFFCURVE",
"116 -504 OFFCURVE",
"165 -471 CURVE SMOOTH",
"330 -362 OFFCURVE",
"381 -174 OFFCURVE",
"391 98 CURVE SMOOTH",
"395 215 OFFCURVE",
"398 356 OFFCURVE",
"398 532 CURVE SMOOTH",
"398 1322 LINE",
"254 1322 LINE",
"254 158 LINE SMOOTH",
"254 -118 OFFCURVE",
"255 -402 OFFCURVE",
"150 -402 CURVE SMOOTH",
"127 -402 OFFCURVE",
"102 -390 OFFCURVE",
"81 -371 CURVE SMOOTH",
"62 -352 OFFCURVE",
"28 -332 OFFCURVE",
"-12 -332 CURVE SMOOTH",
"-65 -332 OFFCURVE",
"-105 -370 OFFCURVE",
"-105 -421 CURVE SMOOTH",
"-105 -481 OFFCURVE",
"-51 -520 OFFCURVE",
"22 -520 CURVE SMOOTH"
);
},
{
closed = 1;
nodes = (
"593 1308 LINE",
"593 1358 LINE",
"59 1358 LINE",
"59 1308 LINE",
"322 1278 LINE"
);
}
);
width = 648;
},
{
anchors = (
{
name = bottom;
position = "{367, 0}";
},
{
name = top;
position = "{367, 1358}";
}
);
layerId = "20F63CDD-78BD-4F3A-8DC2-32840B76756A";
paths = (
{
closed = 1;
nodes = (
"46 -435 OFFCURVE",
"105 -416 OFFCURVE",
"155 -388 CURVE SMOOTH",
"348 -283 OFFCURVE",
"429 -88 OFFCURVE",
"439 180 CURVE SMOOTH",
"445 358 OFFCURVE",
"448 536 OFFCURVE",
"448 613 CURVE SMOOTH",
"448 1319 LINE",
"191 1319 LINE",
"191 239 LINE SMOOTH",
"191 33 OFFCURVE",
"192 -282 OFFCURVE",
"117 -282 CURVE SMOOTH",
"97 -282 OFFCURVE",
"71 -258 OFFCURVE",
"55 -242 CURVE SMOOTH",
"28 -214 OFFCURVE",
"-2 -185 OFFCURVE",
"-59 -185 CURVE SMOOTH",
"-130 -185 OFFCURVE",
"-191 -232 OFFCURVE",
"-191 -297 CURVE SMOOTH",
"-191 -372 OFFCURVE",
"-113 -435 OFFCURVE",
"-13 -435 CURVE SMOOTH"
);
},
{
closed = 1;
nodes = (
"605 1286 LINE",
"605 1358 LINE",
"35 1358 LINE",
"35 1286 LINE",
"310 1256 LINE"
);
}
);
width = 640;
}
);
leftKerningGroup = J;
note = J;
rightKerningGroup = J;
unicode = 004A;
},
{
glyphname = K;
lastChange = "2019-04-04 01:11:50 +0000";
layers = (
{
anchors = (
{
name = bottom;
position = "{729, 0}";
},
{
name = top;
position = "{729, 1358}";
}
);
layerId = "6CE37295-6E30-426D-87AF-6FEE9061C297";
paths = (
{
closed = 1;
nodes = (
"1447 0 LINE",
"1447 81 LINE",
"1141 111 LINE",
"1339 26 LINE",
"701 763 LINE",
"1180 1315 LINE",
"1067 1247 LINE",
"1295 1277 LINE",
"1295 1358 LINE",
"824 1358 LINE",
"824 1277 LINE",
"1057 1247 LINE",
"986 1315 LINE",
"573 828 LINE SMOOTH",
"548 797 OFFCURVE",
"533 781 OFFCURVE",
"518 781 CURVE SMOOTH",
"469 781 LINE",
"469 589 LINE",
"518 589 LINE SMOOTH",
"526 589 OFFCURVE",
"559 555 OFFCURVE",
"587 521 CURVE SMOOTH",
"987 26 LINE",
"1116 111 LINE",
"790 81 LINE",
"790 0 LINE"
);
},
{
closed = 1;
nodes = (
"505 40 LINE",
"505 1311 LINE",
"198 1311 LINE",
"198 40 LINE"
);
},
{
closed = 1;
nodes = (
"674 1277 LINE",
"674 1358 LINE",
"29 1358 LINE",
"29 1277 LINE",
"338 1247 LINE"
);
},
{
closed = 1;
nodes = (
"674 0 LINE",
"674 81 LINE",
"350 111 LINE",
"29 81 LINE",
"29 0 LINE"
);
}
);
userData = {
assembly = "PUSHB[ ]\011/* 5 values pushed */
64 44 2 8 74 
MPPEM[ ]\011/* MeasurePixelPerEm */
PUSHB[ ]\011/* 1 value pushed */
51 
LT[ ]\011/* LessThan */
IF[ ]\011/* If */
NPUSHB[ ]\011/* 37 values pushed */
0 10 0 3 0 10 3 105 13 11 9 3 7 7 8 97 12 1 8 8 68 77 6 4 2 3 0 0 1 95 5 1 1 1 69 1 78 
ELSE[ ]\011/* Else */
MPPEM[ ]\011/* MeasurePixelPerEm */
PUSHB[ ]\011/* 1 value pushed */
60 
LT[ ]\011/* LessThan */
IF[ ]\011/* If */
NPUSHB[ ]\011/* 34 values pushed */
0 10 0 3 0 10 3 105 6 4 2 3 0 5 1 1 0 1 99 13 11 9 3 7 7 8 97 12 1 8 8 68 7 78 
ELSE[ ]\011/* Else */
NPUSHB[ ]\011/* 43 values pushed */
12 1 8 13 11 9 3 7 10 8 7 105 0 10 0 3 0 10 3 105 6 4 2 3 0 1 1 0 89 6 4 2 3 0 0 1 95 5 1 1 0 1 79 
EIF[ ]\011/* EndIf */
EIF[ ]\011/* EndIf */
NPUSHB[ ]\011/* 22 values pushed */
68 66 63 62 58 57 53 51 48 46 20 19 34 66 19 21 34 66 19 14 11 31 
CALL[ ]\011/* CallFunction */";
};
width = 1469;
},
{
anchors = (
{
name = bottom;
position = "{660, 0}";
},
{
name = top;
position = "{660, 1358}";
}
);
hints = (
{
horizontal = 1;
origin = "{3, 4}";
target = "{3, 3}";
type = TTStem;
options = 4;
},
{
horizontal = 1;
origin = "{3, 4}";
target = "{0, 26}";
type = Align;
options = 4;
},
{
horizontal = 1;
origin = "{3, 3}";
target = "{3, 1}";
type = Align;
options = 4;
},
{
horizontal = 1;
origin = "{3, 3}";
target = "{0, 25}";
type = Align;
options = 4;
},
{
horizontal = 1;
origin = "{3, 3}";
target = "{0, 1}";
type = Align;
options = 4;
},
{
horizontal = 1;
origin = "{0, 26}";
target = "{0, 25}";
other1 = "{0, 23}";
type = Interpolate;
options = 4;
},
{
horizontal = 1;
origin = "{0, 26}";
target = "{0, 25}";
other1 = "{0, 3}";
type = Interpolate;
options = 4;
},
{
horizontal = 1;
origin = "{2, 2}";
target = "{2, 3}";
type = TTStem;
options = 4;
},
{
horizontal = 1;
origin = "{2, 2}";
target = "{0, 9}";
type = Align;
options = 4;
},
{
horizontal = 1;
origin = "{2, 3}";
target = "{2, 0}";
type = Align;
options = 4;
},
{
horizontal = 1;
origin = "{2, 3}";
target = "{0, 10}";
type = Align;
options = 4;
},
{
horizontal = 1;
origin = "{2, 3}";
target = "{0, 7}";
type = Align;
options = 4;
},
{
horizontal = 1;
origin = "{0, 9}";
target = "{0, 10}";
other1 = "{0, 12}";
type = Interpolate;
options = 4;
},
{
horizontal = 1;
origin = "{0, 9}";
target = "{0, 10}";
other1 = "{0, 5}";
type = Interpolate;
options = 4;
},
{
horizontal = 1;
origin = "{1, 3}";
target = "{1, 2}";
other1 = "{0, 17}";
type = Interpolate;
},
{
horizontal = 1;
origin = "{0, 17}";
target = "{0, 18}";
type = TTStem;
},
{
origin = "{1, 3}";
type = Anchor;
},
{
origin = "{1, 3}";
target = "{1, 0}";
type = TTStem;
},
{
horizontal = 1;
origin = "{2, 2}";
type = Anchor;
},
{
horizontal = 1;
origin = "{3, 4}";
type = Anchor;
},
{
horizontal = 1;
origin = "{2, 3}";
target = "{2, 2}";
other1 = "{1, 2}";
type = Interpolate;
options = 4;
},
{
horizontal = 1;
origin = "{3, 4}";
target = "{3, 3}";
other1 = "{1, 3}";
type = Interpolate;
options = 4;
}
);
layerId = "EBD25FEC-6C57-4903-A936-5FDFC9C63FB2";
paths = (
{
closed = 1;
nodes = (
"1264 0 LINE",
"1264 50 LINE",
"1044 80 LINE",
"1140 33 LINE",
"561 740 LINE",
"1060 1338 LINE",
"986 1278 LINE",
"1159 1308 LINE",
"1159 1358 LINE",
"790 1358 LINE",
"790 1308 LINE",
"967 1278 LINE",
"957 1338 LINE",
"532 811 LINE SMOOTH",
"515 790 OFFCURVE",
"450 713 OFFCURVE",
"417 713 CURVE SMOOTH",
"355 713 LINE",
"355 644 LINE",
"417 644 LINE SMOOTH",
"468 644 OFFCURVE",
"532 593 OFFCURVE",
"574 538 CURVE SMOOTH",
"962 33 LINE",
"1036 80 LINE",
"759 50 LINE",
"759 0 LINE"
);
},
{
closed = 1;
nodes = (
"398 25 LINE",
"398 1326 LINE",
"265 1326 LINE",
"265 25 LINE"
);
},
{
closed = 1;
nodes = (
"594 1308 LINE",
"594 1358 LINE",
"70 1358 LINE",
"70 1308 LINE",
"330 1278 LINE"
);
},
{
closed = 1;
nodes = (
"594 0 LINE",
"594 50 LINE",
"335 80 LINE",
"70 50 LINE",
"70 0 LINE"
);
}
);
width = 1284;
},
{
anchors = (
{
name = bottom;
position = "{664, 0}";
},
{
name = top;
position = "{664, 1358}";
}
);
layerId = "16DF9356-34D2-4C02-8100-FB39A491A1B7";
paths = (
{
closed = 1;
nodes = (
"1319 0 LINE",
"1319 50 LINE",
"1091 80 LINE",
"1213 30 LINE",
"588 744 LINE",
"1117 1334 LINE",
"1032 1278 LINE",
"1204 1308 LINE",
"1204 1358 LINE",
"821 1358 LINE",
"821 1308 LINE",
"1022 1278 LINE",
"1008 1334 LINE",
"553 811 LINE SMOOTH",
"535 790 OFFCURVE",
"469 718 OFFCURVE",
"431 718 CURVE SMOOTH",
"377 718 LINE",
"377 639 LINE",
"431 639 LINE SMOOTH",
"490 639 OFFCURVE",
"549 591 OFFCURVE",
"593 538 CURVE SMOOTH",
"1012 30 LINE",
"1078 80 LINE",
"787 50 LINE",
"787 0 LINE"
);
},
{
closed = 1;
nodes = (
"412 25 LINE",
"412 1322 LINE",
"269 1322 LINE",
"269 25 LINE"
);
},
{
closed = 1;
nodes = (
"607 1308 LINE",
"607 1358 LINE",
"73 1358 LINE",
"73 1308 LINE",
"336 1278 LINE"
);
},
{
closed = 1;
nodes = (
"607 0 LINE",
"607 50 LINE",
"343 80 LINE",
"73 50 LINE",
"73 0 LINE"
);
}
);
width = 1374;
},
{
anchors = (
{
name = bottom;
position = "{667, 0}";
},
{
name = top;
position = "{667, 1358}";
}
);
layerId = "20F63CDD-78BD-4F3A-8DC2-32840B76756A";
paths = (
{
closed = 1;
nodes = (
"1266 0 LINE",
"1266 72 LINE",
"1048 102 LINE",
"1167 31 LINE",
"659 757 LINE",
"1088 1323 LINE",
"982 1256 LINE",
"1175 1286 LINE",
"1175 1358 LINE",
"781 1358 LINE",
"781 1286 LINE",
"973 1256 LINE",
"924 1323 LINE",
"564 823 LINE SMOOTH",
"539 789 OFFCURVE",
"517 761 OFFCURVE",
"494 761 CURVE SMOOTH",
"442 761 LINE",
"442 606 LINE",
"494 606 LINE SMOOTH",
"517 606 OFFCURVE",
"545 563 OFFCURVE",
"569 527 CURVE SMOOTH",
"888 31 LINE",
"1033 102 LINE",
"726 72 LINE",
"726 0 LINE"
);
},
{
closed = 1;
nodes = (
"480 36 LINE",
"480 1319 LINE",
"224 1319 LINE",
"224 36 LINE"
);
},
{
closed = 1;
nodes = (
"637 1286 LINE",
"637 1358 LINE",
"70 1358 LINE",
"70 1286 LINE",
"342 1256 LINE"
);
},
{
closed = 1;
nodes = (
"637 0 LINE",
"637 72 LINE",
"354 102 LINE",
"70 72 LINE",
"70 0 LINE"
);
}
);
width = 1284;
}
);
leftMetricsKey = H;
note = K;
rightKerningGroup = K;
rightMetricsKey = A;
unicode = 004B;
},
{
glyphname = L;
lastChange = "2019-04-04 01:12:35 +0000";
layers = (
{
anchors = (
{
name = bottom;
position = "{721, 0}";
},
{
name = center;
position = "{355, 679}";
},
{
name = top;
position = "{363, 1358}";
},
{
name = topright;
position = "{896, 738}";
}
);
layerId = "6CE37295-6E30-426D-87AF-6FEE9061C297";
paths = (
{
closed = 1;
nodes = (
"505 40 LINE",
"505 1311 LINE",
"198 1311 LINE",
"198 40 LINE"
);
},
{
closed = 1;
nodes = (
"1259 0 LINE",
"1259 405 LINE",
"1166 405 LINE",
"1016 162 LINE SMOOTH",
"986 114 OFFCURVE",
"926 95 OFFCURVE",
"870 95 CURVE SMOOTH",
"207 95 LINE",
"207 0 LINE"
);
},
{
closed = 1;
nodes = (
"674 1277 LINE",
"674 1358 LINE",
"29 1358 LINE",
"29 1277 LINE",
"338 1247 LINE"
);
},
{
closed = 1;
nodes = (
"351 0 LINE",
"351 111 LINE",
"29 81 LINE",
"29 0 LINE"
);
}
);
userData = {
assembly = "NPUSHB[ ]\011/* 10 values pushed */
9 1 0 3 1 76 35 1 4 74 
MPPEM[ ]\011/* MeasurePixelPerEm */
PUSHB[ ]\011/* 1 value pushed */
51 
LT[ ]\011/* LessThan */
IF[ ]\011/* If */
NPUSHB[ ]\011/* 23 values pushed */
5 1 3 3 4 97 0 4 4 68 77 2 1 0 0 1 95 0 1 1 69 1 78 
ELSE[ ]\011/* Else */
MPPEM[ ]\011/* MeasurePixelPerEm */
PUSHB[ ]\011/* 1 value pushed */
60 
LT[ ]\011/* LessThan */
IF[ ]\011/* If */
NPUSHB[ ]\011/* 20 values pushed */
2 1 0 0 1 0 1 99 5 1 3 3 4 97 0 4 4 68 3 78 
ELSE[ ]\011/* Else */
NPUSHB[ ]\011/* 27 values pushed */
0 4 5 1 3 0 4 3 105 2 1 0 1 1 0 89 2 1 0 0 1 95 0 1 0 1 79 
EIF[ ]\011/* EndIf */
EIF[ ]\011/* EndIf */
NPUSHB[ ]\011/* 9 values pushed */
35 20 19 34 75 51 6 11 28 
CALL[ ]\011/* CallFunction */";
};
width = 1281;
},
{
anchors = (
{
name = bottom;
position = "{636, 0}";
},
{
name = center;
position = "{332.008, 679}";
},
{
name = top;
position = "{332, 1358}";
},
{
name = topright;
position = "{739, 763}";
}
);
hints = (
{
horizontal = 1;
origin = "{3, 3}";
target = "{3, 2}";
type = TTStem;
options = 4;
},
{
horizontal = 1;
origin = "{3, 3}";
target = "{1, 8}";
type = Align;
options = 4;
},
{
horizontal = 1;
origin = "{3, 2}";
target = "{1, 7}";
type = Align;
options = 4;
},
{
horizontal = 1;
origin = "{2, 2}";
target = "{2, 3}";
type = TTStem;
options = 4;
},
{
horizontal = 1;
origin = "{2, 2}";
target = "{0, 2}";
type = Align;
options = 4;
},
{
horizontal = 1;
origin = "{2, 3}";
target = "{2, 0}";
type = Align;
options = 4;
},
{
origin = "{0, 3}";
type = Anchor;
},
{
origin = "{0, 3}";
target = "{0, 0}";
type = TTStem;
},
{
origin = "{rsb}";
target = "{1, 1}";
type = TTStem;
},
{
origin = "{1, 1}";
target = "{1, 2}";
type = TTStem;
options = 4;
},
{
horizontal = 1;
origin = "{2, 2}";
type = Anchor;
},
{
horizontal = 1;
origin = "{3, 3}";
type = Anchor;
},
{
horizontal = 1;
origin = "{3, 2}";
target = "{3, 3}";
other1 = "{0, 3}";
type = Interpolate;
options = 4;
},
{
horizontal = 1;
origin = "{2, 3}";
target = "{2, 2}";
other1 = "{0, 2}";
type = Interpolate;
options = 4;
}
);
layerId = "EBD25FEC-6C57-4903-A936-5FDFC9C63FB2";
paths = (
{
closed = 1;
nodes = (
"398 25 LINE",
"398 1326 LINE",
"265 1326 LINE",
"265 25 LINE"
);
},
{
closed = 1;
nodes = (
"1182 0 LINE",
"1182 382 LINE",
"1139 382 LINE",
"1076 127 LINE SMOOTH",
"1061 66 OFFCURVE",
"1009 63 OFFCURVE",
"935 63 CURVE SMOOTH",
"219 63 LINE",
"219 0 LINE"
);
},
{
closed = 1;
nodes = (
"594 1308 LINE",
"594 1358 LINE",
"70 1358 LINE",
"70 1308 LINE",
"330 1278 LINE"
);
},
{
closed = 1;
nodes = (
"381 0 LINE",
"381 80 LINE",
"70 50 LINE",
"70 0 LINE"
);
}
);
width = 1202;
},
{
anchors = (
{
name = bottom;
position = "{641, 0}";
},
{
name = center;
position = "{346, 679}";
},
{
name = top;
position = "{337, 1358}";
},
{
name = topright;
position = "{792, 827}";
}
);
layerId = "16DF9356-34D2-4C02-8100-FB39A491A1B7";
paths = (
{
closed = 1;
nodes = (
"412 25 LINE",
"412 1322 LINE",
"269 1322 LINE",
"269 25 LINE"
);
},
{
closed = 1;
nodes = (
"1249 0 LINE",
"1249 383 LINE",
"1215 383 LINE",
"1122 137 LINE SMOOTH",
"1107 97 OFFCURVE",
"1042 72 OFFCURVE",
"981 72 CURVE SMOOTH",
"273 72 LINE",
"273 0 LINE"
);
},
{
closed = 1;
nodes = (
"607 1308 LINE",
"607 1358 LINE",
"73 1358 LINE",
"73 1308 LINE",
"336 1278 LINE"
);
},
{
closed = 1;
nodes = (
"394 0 LINE",
"394 80 LINE",
"73 50 LINE",
"73 0 LINE"
);
}
);
width = 1304;
},
{
anchors = (
{
name = bottom;
position = "{678, 0}";
},
{
name = center;
position = "{359, 679}";
},
{
name = top;
position = "{365, 1358}";
},
{
name = topright;
position = "{825, 745}";
}
);
layerId = "20F63CDD-78BD-4F3A-8DC2-32840B76756A";
paths = (
{
closed = 1;
nodes = (
"478 36 LINE",
"478 1319 LINE",
"222 1319 LINE",
"222 36 LINE"
);
},
{
closed = 1;
nodes = (
"1184 0 LINE",
"1184 356 LINE",
"1115 356 LINE",
"999 154 LINE SMOOTH",
"975 112 OFFCURVE",
"924 97 OFFCURVE",
"876 97 CURVE SMOOTH",
"226 97 LINE",
"226 0 LINE"
);
},
{
closed = 1;
nodes = (
"631 1286 LINE",
"631 1358 LINE",
"70 1358 LINE",
"70 1286 LINE",
"340 1256 LINE"
);
},
{
closed = 1;
nodes = (
"391 0 LINE",
"391 102 LINE",
"70 72 LINE",
"70 0 LINE"
);
}
);
width = 1202;
}
);
leftMetricsKey = H;
note = L;
rightKerningGroup = L;
rightMetricsKey = A;
unicode = 004C;
},
{
glyphname = M;
lastChange = "2019-04-04 01:12:59 +0000";
layers = (
{
anchors = (
{
name = bottom;
position = "{942, 0}";
},
{
name = top;
position = "{942, 1358}";
}
);
guideLines = (
{
position = "{459, 981}";
}
);
layerId = "6CE37295-6E30-426D-87AF-6FEE9061C297";
paths = (
{
closed = 1;
nodes = (
"1699 40 LINE",
"1663 1358 LINE",
"1489 1358 LINE",
"1427 1358 OFFCURVE",
"1388 1339 OFFCURVE",
"1368 1291 CURVE SMOOTH",
"948 279 LINE",
"1038 279 LINE",
"554 1285 LINE SMOOTH",
"528 1340 OFFCURVE",
"494 1358 OFFCURVE",
"428 1358 CURVE SMOOTH",
"99 1358 LINE",
"99 1277 LINE",
"225 1277 OFFCURVE",
"251 1238 OFFCURVE",
"356 1023 CURVE SMOOTH",
"845 21 LINE",
"1007 21 LINE",
"1476 1161 LINE",
"1379 1161 LINE",
"1407 40 LINE"
);
},
{
closed = 1;
nodes = (
"340 40 LINE",
"412 1289 LINE",
"262 1299 LINE",
"185 40 LINE"
);
},
{
closed = 1;
nodes = (
"515 0 LINE",
"515 81 LINE",
"273 111 LINE",
"26 81 LINE",
"26 0 LINE"
);
},
{
closed = 1;
nodes = (
"1864 0 LINE",
"1864 81 LINE",
"1553 111 LINE",
"1244 81 LINE",
"1244 0 LINE"
);
},
{
closed = 1;
nodes = (
"1828 1277 LINE",
"1828 1358 LINE",
"1531 1358 LINE",
"1531 1247 LINE"
);
}
);
userData = {
assembly = "MPPEM[ ]\011/* MeasurePixelPerEm */
PUSHB[ ]\011/* 1 value pushed */
34 
LT[ ]\011/* LessThan */
IF[ ]\011/* If */
NPUSHB[ ]\011/* 14 values pushed */
25 1 9 7 1 76 62 1 8 74 35 1 1 73 
ELSE[ ]\011/* Else */
NPUSHB[ ]\011/* 14 values pushed */
25 1 9 7 35 1 3 1 2 76 62 1 8 74 
EIF[ ]\011/* EndIf */
MPPEM[ ]\011/* MeasurePixelPerEm */
PUSHB[ ]\011/* 1 value pushed */
34 
LT[ ]\011/* LessThan */
IF[ ]\011/* If */
NPUSHB[ ]\011/* 36 values pushed */
0 9 7 0 7 9 0 128 11 1 7 7 8 97 10 1 8 8 68 77 6 4 2 3 0 0 1 97 5 3 2 1 1 69 1 78 
ELSE[ ]\011/* Else */
MPPEM[ ]\011/* MeasurePixelPerEm */
PUSHB[ ]\011/* 1 value pushed */
51 
LT[ ]\011/* LessThan */
IF[ ]\011/* If */
NPUSHB[ ]\011/* 40 values pushed */
0 9 7 0 7 9 0 128 11 1 7 7 8 97 10 1 8 8 68 77 6 4 2 3 0 0 1 97 5 1 1 1 69 77 0 3 3 69 3 78 
ELSE[ ]\011/* Else */
MPPEM[ ]\011/* MeasurePixelPerEm */
PUSHB[ ]\011/* 1 value pushed */
60 
LT[ ]\011/* LessThan */
IF[ ]\011/* If */
NPUSHB[ ]\011/* 38 values pushed */
0 9 7 0 7 9 0 128 6 4 2 3 0 5 1 1 3 0 1 105 11 1 7 7 8 97 10 1 8 8 68 77 0 3 3 69 3 78 
ELSE[ ]\011/* Else */
MPPEM[ ]\011/* MeasurePixelPerEm */
PUSHB[ ]\011/* 1 value pushed */
147 
LT[ ]\011/* LessThan */
IF[ ]\011/* If */
NPUSHB[ ]\011/* 36 values pushed */
0 9 7 0 7 9 0 128 10 1 8 11 1 7 9 8 7 105 6 4 2 3 0 5 1 1 3 0 1 105 0 3 3 69 3 78 
ELSE[ ]\011/* Else */
NPUSHB[ ]\011/* 41 values pushed */
0 9 7 0 7 9 0 128 0 8 10 7 8 87 0 10 11 1 7 9 10 7 105 6 4 2 3 0 5 1 1 3 0 1 105 0 3 3 69 3 78 
EIF[ ]\011/* EndIf */
EIF[ ]\011/* EndIf */
EIF[ ]\011/* EndIf */
EIF[ ]\011/* EndIf */
NPUSHB[ ]\011/* 18 values pushed */
66 64 61 58 55 54 82 20 35 50 24 23 34 66 17 12 11 31 
CALL[ ]\011/* CallFunction */";
};
width = 1890;
},
{
anchors = (
{
name = bottom;
position = "{891, 0}";
},
{
name = top;
position = "{891, 1358}";
}
);
hints = (
{
horizontal = 1;
origin = "{2, 4}";
target = "{2, 3}";
type = TTStem;
options = 4;
},
{
horizontal = 1;
origin = "{2, 3}";
target = "{2, 1}";
type = Align;
options = 4;
},
{
horizontal = 1;
origin = "{2, 4}";
target = "{3, 4}";
type = Align;
options = 4;
},
{
horizontal = 1;
origin = "{2, 3}";
target = "{3, 3}";
type = Align;
options = 4;
},
{
horizontal = 1;
origin = "{2, 3}";
target = "{3, 1}";
type = Align;
options = 4;
},
{
horizontal = 1;
origin = "{0, 12}";
target = "{0, 13}";
type = TTStem;
options = 4;
},
{
horizontal = 1;
origin = "{4, 1}";
target = "{4, 0}";
type = TTStem;
options = 4;
},
{
origin = "{0, 0}";
type = Anchor;
},
{
origin = "{0, 0}";
target = "{0, 21}";
type = TTStem;
},
{
origin = "{1, 3}";
type = Anchor;
},
{
origin = "{1, 3}";
target = "{1, 0}";
type = TTStem;
options = 4;
},
{
horizontal = 1;
origin = "{0, 12}";
type = Anchor;
},
{
horizontal = 1;
origin = "{2, 4}";
type = Anchor;
},
{
horizontal = 1;
origin = "{2, 3}";
target = "{2, 4}";
other1 = "{1, 3}";
type = Interpolate;
options = 4;
},
{
horizontal = 1;
origin = "{1, 3}";
target = "{0, 21}";
type = Align;
options = 4;
},
{
horizontal = 1;
origin = "{0, 12}";
target = "{4, 1}";
type = Align;
options = 4;
}
);
layerId = "EBD25FEC-6C57-4903-A936-5FDFC9C63FB2";
paths = (
{
closed = 1;
nodes = (
"1526 25 LINE",
"1490 1358 LINE",
"1441 1358 LINE",
"1379 1358 OFFCURVE",
"1340 1339 OFFCURVE",
"1320 1291 CURVE SMOOTH",
"900 279 LINE",
"918 279 LINE",
"478 1285 LINE SMOOTH",
"454 1340 OFFCURVE",
"418 1358 OFFCURVE",
"352 1358 CURVE SMOOTH",
"133 1358 LINE",
"133 1308 LINE",
"287 1308 OFFCURVE",
"363 1205 OFFCURVE",
"430 1056 CURVE SMOOTH",
"861 83 LINE",
"900 83 LINE",
"1382 1255 LINE",
"1362 1255 LINE",
"1393 25 LINE"
);
},
{
closed = 1;
nodes = (
"308 25 LINE",
"382 1289 LINE",
"299 1299 LINE",
"220 25 LINE"
);
},
{
closed = 1;
nodes = (
"485 0 LINE",
"485 50 LINE",
"277 80 LINE",
"63 50 LINE",
"63 0 LINE"
);
},
{
closed = 1;
nodes = (
"1690 0 LINE",
"1690 50 LINE",
"1465 80 LINE",
"1230 50 LINE",
"1230 0 LINE"
);
},
{
closed = 1;
nodes = (
"1654 1308 LINE",
"1654 1358 LINE",
"1460 1358 LINE",
"1460 1278 LINE"
);
}
);
width = 1753;
},
{
anchors = (
{
name = bottom;
position = "{881, 0}";
},
{
name = top;
position = "{881, 1358}";
}
);
guideLines = (
{
angle = 90;
position = "{322, 1202}";
}
);
layerId = "16DF9356-34D2-4C02-8100-FB39A491A1B7";
paths = (
{
closed = 1;
nodes = (
"1636 25 LINE",
"1598 1358 LINE",
"1543 1358 LINE",
"1476 1358 OFFCURVE",
"1434 1339 OFFCURVE",
"1413 1291 CURVE SMOOTH",
"963 279 LINE",
"990 279 LINE",
"519 1285 LINE SMOOTH",
"493 1340 OFFCURVE",
"455 1358 OFFCURVE",
"384 1358 CURVE SMOOTH",
"154 1358 LINE",
"154 1298 LINE",
"259 1298 OFFCURVE",
"354 1276 OFFCURVE",
"459 1056 CURVE SMOOTH",
"921 83 LINE",
"963 83 LINE",
"1480 1256 LINE",
"1458 1256 LINE",
"1491 25 LINE"
);
},
{
closed = 1;
nodes = (
"329 25 LINE",
"408 1289 LINE",
"319 1299 LINE",
"235 25 LINE"
);
},
{
closed = 1;
nodes = (
"518 0 LINE",
"518 50 LINE",
"291 80 LINE",
"66 50 LINE",
"66 0 LINE"
);
},
{
closed = 1;
nodes = (
"1813 0 LINE",
"1813 50 LINE",
"1569 80 LINE",
"1317 50 LINE",
"1317 0 LINE"
);
},
{
closed = 1;
nodes = (
"1774 1298 LINE",
"1774 1358 LINE",
"1561 1358 LINE",
"1561 1268 LINE"
);
}
);
width = 1879;
},
{
anchors = (
{
name = bottom;
position = "{928, 0}";
},
{
name = top;
position = "{928, 1358}";
}
);
guideLines = (
{
position = "{541, 972}";
}
);
layerId = "20F63CDD-78BD-4F3A-8DC2-32840B76756A";
paths = (
{
closed = 1;
nodes = (
"1525 36 LINE",
"1491 1358 LINE",
"1358 1358 LINE",
"1296 1358 OFFCURVE",
"1253 1339 OFFCURVE",
"1237 1291 CURVE SMOOTH",
"874 221 LINE",
"930 231 LINE",
"530 1285 LINE SMOOTH",
"509 1340 OFFCURVE",
"470 1358 OFFCURVE",
"404 1358 CURVE SMOOTH",
"113 1358 LINE",
"113 1268 LINE",
"231 1268 OFFCURVE",
"288 1245 OFFCURVE",
"373 1026 CURVE SMOOTH",
"757 27 LINE",
"928 27 LINE",
"1321 1169 LINE",
"1241 1169 LINE",
"1269 36 LINE"
);
},
{
closed = 1;
nodes = (
"370 36 LINE",
"440 1289 LINE",
"296 1299 LINE",
"221 36 LINE"
);
},
{
closed = 1;
nodes = (
"546 0 LINE",
"546 72 LINE",
"306 102 LINE",
"63 72 LINE",
"63 0 LINE"
);
},
{
closed = 1;
nodes = (
"1691 0 LINE",
"1691 72 LINE",
"1401 102 LINE",
"1107 72 LINE",
"1107 0 LINE"
);
},
{
closed = 1;
nodes = (
"1656 1286 LINE",
"1656 1358 LINE",
"1388 1358 LINE",
"1388 1256 LINE"
);
}
);
width = 1753;
}
);
leftMetricsKey = "=H*0.9";
note = M;
rightMetricsKey = "=H*0.9";
unicode = 004D;
},
{
glyphname = N;
lastChange = "2019-04-04 01:13:56 +0000";
layers = (
{
anchors = (
{
name = bottom;
position = "{741, 0}";
},
{
name = top;
position = "{741, 1358}";
}
);
layerId = "6CE37295-6E30-426D-87AF-6FEE9061C297";
paths = (
{
closed = 1;
nodes = (
"1334 -21 LINE",
"1334 1311 LINE",
"1179 1311 LINE",
"1179 243 LINE",
"1294 344 LINE",
"443 1309 LINE SMOOTH",
"409 1348 OFFCURVE",
"363 1358 OFFCURVE",
"305 1358 CURVE SMOOTH",
"23 1358 LINE",
"23 1277 LINE",
"122 1277 OFFCURVE",
"185 1204 OFFCURVE",
"287 1085 CURVE SMOOTH",
"1241 -21 LINE"
);
},
{
closed = 1;
nodes = (
"355 40 LINE",
"355 1296 LINE",
"200 1296 LINE",
"200 40 LINE"
);
},
{
closed = 1;
nodes = (
"524 0 LINE",
"524 81 LINE",
"280 111 LINE",
"23 81 LINE",
"23 0 LINE"
);
},
{
closed = 1;
nodes = (
"1480 1277 LINE",
"1480 1358 LINE",
"998 1358 LINE",
"998 1277 LINE",
"1248 1247 LINE"
);
}
);
userData = {
assembly = "PUSHB[ ]\011/* 6 values pushed */
9 1 6 4 1 76 
MPPEM[ ]\011/* MeasurePixelPerEm */
PUSHB[ ]\011/* 1 value pushed */
51 
LT[ ]\011/* LessThan */
IF[ ]\011/* If */
NPUSHB[ ]\011/* 38 values pushed */
0 6 4 1 4 6 1 128 9 7 2 4 4 5 95 8 1 5 5 68 77 3 1 1 1 2 95 0 2 2 69 77 0 0 0 69 0 78 
ELSE[ ]\011/* Else */
MPPEM[ ]\011/* MeasurePixelPerEm */
PUSHB[ ]\011/* 1 value pushed */
60 
LT[ ]\011/* LessThan */
IF[ ]\011/* If */
NPUSHB[ ]\011/* 36 values pushed */
0 6 4 1 4 6 1 128 3 1 1 0 2 0 1 2 103 9 7 2 4 4 5 95 8 1 5 5 68 77 0 0 0 69 0 78 
ELSE[ ]\011/* Else */
NPUSHB[ ]\011/* 34 values pushed */
0 6 4 1 4 6 1 128 8 1 5 9 7 2 4 6 5 4 105 3 1 1 0 2 0 1 2 103 0 0 0 69 0 78 
EIF[ ]\011/* EndIf */
EIF[ ]\011/* EndIf */
NPUSHB[ ]\011/* 14 values pushed */
55 53 82 19 37 66 19 34 52 24 33 10 11 31 
CALL[ ]\011/* CallFunction */";
};
width = 1500;
},
{
anchors = (
{
name = bottom;
position = "{762, 0}";
},
{
name = top;
position = "{762, 1358}";
}
);
hints = (
{
horizontal = 1;
origin = "{2, 4}";
target = "{2, 3}";
type = TTStem;
options = 4;
},
{
horizontal = 1;
origin = "{2, 3}";
target = "{2, 1}";
type = Align;
options = 4;
},
{
horizontal = 1;
origin = "{0, 14}";
type = Anchor;
},
{
horizontal = 1;
origin = "{0, 9}";
target = "{0, 10}";
type = TTStem;
options = 4;
},
{
origin = "{1, 3}";
type = Anchor;
},
{
origin = "{0, 1}";
type = Anchor;
},
{
origin = "{0, 1}";
target = "{0, 2}";
type = TTStem;
},
{
origin = "{1, 3}";
target = "{1, 0}";
type = TTStem;
},
{
horizontal = 1;
origin = "{2, 4}";
type = Anchor;
},
{
horizontal = 1;
origin = "{0, 9}";
type = Anchor;
},
{
horizontal = 1;
origin = "{0, 9}";
target = "{3, 2}";
type = Align;
options = 4;
},
{
horizontal = 1;
origin = "{0, 10}";
target = "{3, 3}";
type = Align;
options = 4;
},
{
horizontal = 1;
origin = "{2, 3}";
target = "{2, 4}";
other1 = "{1, 3}";
type = Interpolate;
options = 4;
},
{
horizontal = 1;
origin = "{3, 2}";
target = "{3, 3}";
other1 = "{0, 2}";
type = Interpolate;
options = 4;
}
);
layerId = "EBD25FEC-6C57-4903-A936-5FDFC9C63FB2";
paths = (
{
closed = 1;
nodes = (
"1323 -21 LINE",
"1323 1326 LINE",
"1255 1326 LINE",
"1255 220 LINE",
"1274 241 LINE",
"332 1309 LINE SMOOTH",
"297 1348 OFFCURVE",
"252 1358 OFFCURVE",
"194 1358 CURVE SMOOTH",
"56 1358 LINE",
"56 1308 LINE",
"154 1308 OFFCURVE",
"218 1233 OFFCURVE",
"320 1115 CURVE SMOOTH",
"1299 -21 LINE"
);
},
{
closed = 1;
nodes = (
"302 25 LINE",
"302 1285 LINE",
"233 1285 LINE",
"233 25 LINE"
);
},
{
closed = 1;
nodes = (
"471 0 LINE",
"471 50 LINE",
"268 80 LINE",
"56 50 LINE",
"56 0 LINE"
);
},
{
closed = 1;
nodes = (
"1469 1308 LINE",
"1469 1358 LINE",
"1074 1358 LINE",
"1074 1308 LINE",
"1287 1278 LINE"
);
}
);
width = 1518;
},
{
anchors = (
{
name = bottom;
position = "{729, 0}";
},
{
name = top;
position = "{789, 1358}";
}
);
layerId = "16DF9356-34D2-4C02-8100-FB39A491A1B7";
paths = (
{
closed = 1;
nodes = (
"1416 -21 LINE",
"1416 1322 LINE",
"1342 1322 LINE",
"1342 221 LINE",
"1380 236 LINE",
"367 1309 LINE SMOOTH",
"330 1349 OFFCURVE",
"281 1358 OFFCURVE",
"219 1358 CURVE SMOOTH",
"58 1358 LINE",
"58 1308 LINE",
"160 1308 OFFCURVE",
"231 1233 OFFCURVE",
"340 1115 CURVE SMOOTH",
"1389 -21 LINE"
);
},
{
closed = 1;
nodes = (
"321 25 LINE",
"321 1295 LINE",
"247 1295 LINE",
"247 25 LINE"
);
},
{
closed = 1;
nodes = (
"502 0 LINE",
"502 50 LINE",
"290 80 LINE",
"58 50 LINE",
"58 0 LINE"
);
},
{
closed = 1;
nodes = (
"1572 1308 LINE",
"1572 1358 LINE",
"1148 1358 LINE",
"1148 1308 LINE",
"1377 1278 LINE"
);
}
);
width = 1623;
},
{
anchors = (
{
name = bottom;
position = "{692, 0}";
},
{
name = top;
position = "{752, 1358}";
}
);
layerId = "20F63CDD-78BD-4F3A-8DC2-32840B76756A";
paths = (
{
closed = 1;
nodes = (
"1333 -21 LINE",
"1333 1319 LINE",
"1186 1319 LINE",
"1186 241 LINE",
"1293 334 LINE",
"473 1309 LINE SMOOTH",
"440 1349 OFFCURVE",
"393 1358 OFFCURVE",
"335 1358 CURVE SMOOTH",
"56 1358 LINE",
"56 1268 LINE",
"178 1268 OFFCURVE",
"232 1206 OFFCURVE",
"329 1088 CURVE SMOOTH",
"1246 -21 LINE"
);
},
{
closed = 1;
nodes = (
"369 36 LINE",
"369 1295 LINE",
"222 1295 LINE",
"222 36 LINE"
);
},
{
closed = 1;
nodes = (
"538 0 LINE",
"538 72 LINE",
"296 102 LINE",
"56 72 LINE",
"56 0 LINE"
);
},
{
closed = 1;
nodes = (
"1470 1286 LINE",
"1470 1358 LINE",
"1015 1358 LINE",
"1015 1286 LINE",
"1254 1256 LINE"
);
}
);
width = 1518;
}
);
leftMetricsKey = "=H*0.8";
note = N;
rightMetricsKey = "=H*0.7";
unicode = 004E;
},
{
glyphname = Eng;
lastChange = "2019-04-04 01:14:47 +0000";
layers = (
{
anchors = (
{
name = bottom;
position = "{708, 0}";
},
{
name = top;
position = "{708, 1358}";
}
);
hints = (
{
horizontal = 1;
origin = "{1, 4}";
target = "{1, 3}";
type = TTStem;
options = 4;
},
{
horizontal = 1;
origin = "{1, 3}";
target = "{1, 1}";
type = Align;
options = 4;
},
{
horizontal = 1;
origin = "{0, 14}";
target = "{0, 15}";
type = TTStem;
options = 4;
},
{
horizontal = 1;
origin = "{0, 35}";
type = Anchor;
},
{
horizontal = 1;
origin = "{0, 35}";
target = "{0, 29}";
type = TTStem;
},
{
origin = "{2, 3}";
type = Anchor;
},
{
origin = "{2, 3}";
target = "{2, 0}";
type = TTStem;
},
{
origin = "{0, 6}";
type = Anchor;
},
{
origin = "{0, 6}";
target = "{0, 7}";
type = TTStem;
options = 4;
},
{
origin = "{0, 19}";
target = "{0, 7}";
type = Align;
options = 4;
},
{
horizontal = 1;
origin = "{0, 14}";
target = "{3, 2}";
type = Align;
options = 4;
},
{
horizontal = 1;
origin = "{0, 15}";
target = "{3, 3}";
type = Align;
options = 4;
},
{
horizontal = 1;
origin = "{0, 14}";
type = Anchor;
},
{
horizontal = 1;
origin = "{1, 4}";
type = Anchor;
},
{
horizontal = 1;
origin = "{1, 3}";
target = "{1, 4}";
other1 = "{2, 3}";
type = Interpolate;
options = 4;
},
{
horizontal = 1;
origin = "{3, 2}";
target = "{3, 3}";
other1 = "{0, 7}";
type = Interpolate;
options = 4;
}
);
layerId = "EBD25FEC-6C57-4903-A936-5FDFC9C63FB2";
paths = (
{
closed = 1;
nodes = (
"1020 -518 OFFCURVE",
"1113 -432 OFFCURVE",
"1166 -310 CURVE SMOOTH",
"1219 -190 OFFCURVE",
"1221 -66 OFFCURVE",
"1221 116 CURVE SMOOTH",
"1221 1326 LINE",
"1152 1326 LINE",
"1152 210 LINE",
"1180 240 LINE",
"371 1308 LINE SMOOTH",
"340 1349 OFFCURVE",
"293 1358 OFFCURVE",
"232 1358 CURVE SMOOTH",
"56 1358 LINE",
"56 1298 LINE",
"172 1298 OFFCURVE",
"211 1284 OFFCURVE",
"337 1117 CURVE SMOOTH",
"1148 43 LINE",
"1148 -156 LINE SMOOTH",
"1148 -284 OFFCURVE",
"1052 -432 OFFCURVE",
"984 -432 CURVE SMOOTH",
"969 -432 OFFCURVE",
"949 -420 OFFCURVE",
"923 -396 CURVE SMOOTH",
"896 -371 OFFCURVE",
"869 -359 OFFCURVE",
"839 -359 CURVE SMOOTH",
"790 -359 OFFCURVE",
"766 -383 OFFCURVE",
"766 -426 CURVE SMOOTH",
"766 -479 OFFCURVE",
"808 -518 OFFCURVE",
"872 -518 CURVE SMOOTH"
);
},
{
closed = 1;
nodes = (
"490 0 LINE",
"490 50 LINE",
"288 80 LINE",
"77 50 LINE",
"77 0 LINE"
);
},
{
closed = 1;
nodes = (
"322 25 LINE",
"322 1298 LINE",
"253 1298 LINE",
"253 25 LINE"
);
},
{
closed = 1;
nodes = (
"1367 1308 LINE",
"1367 1358 LINE",
"973 1358 LINE",
"973 1308 LINE",
"1187 1278 LINE"
);
}
);
width = 1416;
},
{
anchors = (
{
name = bottom;
position = "{752, 0}";
},
{
name = top;
position = "{752, 1358}";
}
);
layerId = "6CE37295-6E30-426D-87AF-6FEE9061C297";
paths = (
{
closed = 1;
nodes = (
"1080 -518 OFFCURVE",
"1187 -456 OFFCURVE",
"1270 -327 CURVE SMOOTH",
"1324 -244 OFFCURVE",
"1329 -179 OFFCURVE",
"1329 53 CURVE SMOOTH",
"1329 1311 LINE",
"1177 1311 LINE",
"1177 386 LINE",
"1215 391 LINE",
"459 1296 LINE SMOOTH",
"439 1320 OFFCURVE",
"402 1358 OFFCURVE",
"303 1358 CURVE SMOOTH",
"23 1358 LINE",
"23 1265 LINE",
"116 1265 OFFCURVE",
"131 1261 OFFCURVE",
"250 1123 CURVE SMOOTH",
"1178 38 LINE",
"1178 -95 LINE SMOOTH",
"1178 -220 OFFCURVE",
"1146 -376 OFFCURVE",
"1074 -376 CURVE SMOOTH",
"1030 -376 OFFCURVE",
"1014 -364 OFFCURVE",
"989 -340 CURVE SMOOTH",
"964 -316 OFFCURVE",
"934 -304 OFFCURVE",
"898 -304 CURVE SMOOTH",
"824 -304 OFFCURVE",
"795 -348 OFFCURVE",
"795 -399 CURVE SMOOTH",
"795 -465 OFFCURVE",
"849 -518 OFFCURVE",
"931 -518 CURVE SMOOTH"
);
},
{
closed = 1;
nodes = (
"516 0 LINE",
"516 81 LINE",
"279 111 LINE",
"37 81 LINE",
"37 0 LINE"
);
},
{
closed = 1;
nodes = (
"357 40 LINE",
"357 1265 LINE",
"202 1265 LINE",
"202 40 LINE"
);
},
{
closed = 1;
nodes = (
"1473 1277 LINE",
"1473 1358 LINE",
"1016 1358 LINE",
"1016 1277 LINE",
"1258 1247 LINE"
);
}
);
width = 1493;
},
{
anchors = (
{
name = bottom;
position = "{750, 0}";
},
{
name = top;
position = "{750, 1358}";
}
);
layerId = "16DF9356-34D2-4C02-8100-FB39A491A1B7";
paths = (
{
closed = 1;
nodes = (
"1083 -518 OFFCURVE",
"1174 -431 OFFCURVE",
"1232 -310 CURVE SMOOTH",
"1289 -190 OFFCURVE",
"1290 -67 OFFCURVE",
"1290 115 CURVE SMOOTH",
"1290 1322 LINE",
"1217 1322 LINE",
"1217 232 LINE",
"1255 230 LINE",
"381 1308 LINE SMOOTH",
"349 1348 OFFCURVE",
"297 1358 OFFCURVE",
"235 1358 CURVE SMOOTH",
"58 1358 LINE",
"58 1286 LINE",
"196 1286 OFFCURVE",
"209 1286 OFFCURVE",
"293 1181 CURVE SMOOTH",
"1212 43 LINE",
"1212 -66 LINE SMOOTH",
"1212 -283 OFFCURVE",
"1109 -432 OFFCURVE",
"1037 -432 CURVE SMOOTH",
"1021 -432 OFFCURVE",
"1002 -420 OFFCURVE",
"976 -396 CURVE SMOOTH",
"950 -371 OFFCURVE",
"922 -359 OFFCURVE",
"893 -359 CURVE SMOOTH",
"843 -359 OFFCURVE",
"819 -382 OFFCURVE",
"819 -426 CURVE SMOOTH",
"819 -479 OFFCURVE",
"862 -518 OFFCURVE",
"926 -518 CURVE SMOOTH"
);
},
{
closed = 1;
nodes = (
"509 0 LINE",
"509 50 LINE",
"294 80 LINE",
"79 50 LINE",
"79 0 LINE"
);
},
{
closed = 1;
nodes = (
"328 25 LINE",
"328 1286 LINE",
"255 1286 LINE",
"255 25 LINE"
);
},
{
closed = 1;
nodes = (
"1436 1308 LINE",
"1436 1358 LINE",
"1038 1358 LINE",
"1038 1308 LINE",
"1255 1278 LINE"
);
}
);
width = 1487;
},
{
anchors = (
{
name = bottom;
position = "{717, 0}";
},
{
name = top;
position = "{717, 1358}";
}
);
layerId = "20F63CDD-78BD-4F3A-8DC2-32840B76756A";
paths = (
{
closed = 1;
nodes = (
"1013 -518 OFFCURVE",
"1110 -448 OFFCURVE",
"1179 -321 CURVE SMOOTH",
"1232 -224 OFFCURVE",
"1232 -125 OFFCURVE",
"1232 71 CURVE SMOOTH",
"1232 1319 LINE",
"1107 1319 LINE",
"1107 344 LINE",
"1144 342 LINE",
"438 1300 LINE SMOOTH",
"413 1335 OFFCURVE",
"371 1358 OFFCURVE",
"297 1358 CURVE SMOOTH",
"56 1358 LINE",
"56 1275 LINE",
"141 1275 OFFCURVE",
"173 1269 OFFCURVE",
"241 1179 CURVE SMOOTH",
"1107 40 LINE",
"1107 -113 LINE SMOOTH",
"1107 -238 OFFCURVE",
"1067 -392 OFFCURVE",
"1001 -392 CURVE SMOOTH",
"964 -392 OFFCURVE",
"950 -380 OFFCURVE",
"927 -356 CURVE SMOOTH",
"905 -332 OFFCURVE",
"875 -320 OFFCURVE",
"845 -320 CURVE SMOOTH",
"781 -320 OFFCURVE",
"755 -358 OFFCURVE",
"755 -407 CURVE SMOOTH",
"755 -469 OFFCURVE",
"804 -518 OFFCURVE",
"875 -518 CURVE SMOOTH"
);
},
{
closed = 1;
nodes = (
"500 0 LINE",
"500 72 LINE",
"295 102 LINE",
"70 72 LINE",
"70 0 LINE"
);
},
{
closed = 1;
nodes = (
"352 36 LINE",
"352 1275 LINE",
"224 1275 LINE",
"224 36 LINE"
);
},
{
closed = 1;
nodes = (
"1368 1286 LINE",
"1368 1358 LINE",
"956 1358 LINE",
"956 1286 LINE",
"1173 1256 LINE"
);
}
);
width = 1416;
}
);
leftMetricsKey = N;
rightMetricsKey = N;
unicode = 014A;
},
{
glyphname = O;
lastChange = "2019-04-04 01:01:38 +0000";
layers = (
{
anchors = (
{
name = bottom;
position = "{799, 0}";
},
{
name = center;
position = "{799, 655}";
},
{
name = ogonek;
position = "{909, 1}";
},
{
name = top;
position = "{764, 1358}";
},
{
name = topleft;
position = "{47, 1358}";
},
{
name = topright;
position = "{1550, 1358}";
}
);
layerId = "6CE37295-6E30-426D-87AF-6FEE9061C297";
paths = (
{
closed = 1;
nodes = (
"1183 -27 OFFCURVE",
"1526 264 OFFCURVE",
"1526 673 CURVE SMOOTH",
"1526 1074 OFFCURVE",
"1197 1384 OFFCURVE",
"781 1384 CURVE SMOOTH",
"371 1384 OFFCURVE",
"23 1086 OFFCURVE",
"23 659 CURVE SMOOTH",
"23 245 OFFCURVE",
"352 -27 OFFCURVE",
"761 -27 CURVE SMOOTH"
);
},
{
closed = 1;
nodes = (
"558 73 OFFCURVE",
"423 345 OFFCURVE",
"423 719 CURVE SMOOTH",
"423 1054 OFFCURVE",
"591 1291 OFFCURVE",
"774 1291 CURVE SMOOTH",
"978 1291 OFFCURVE",
"1126 982 OFFCURVE",
"1126 617 CURVE SMOOTH",
"1126 297 OFFCURVE",
"982 73 OFFCURVE",
"790 73 CURVE SMOOTH"
);
}
);
userData = {
assembly = "MPPEM[ ]\011/* MeasurePixelPerEm */
PUSHB[ ]\011/* 1 value pushed */
60 
LT[ ]\011/* LessThan */
IF[ ]\011/* If */
NPUSHB[ ]\011/* 21 values pushed */
0 2 2 1 97 0 1 1 74 77 0 3 3 0 97 0 0 0 75 0 78 
ELSE[ ]\011/* Else */
NPUSHB[ ]\011/* 19 values pushed */
0 1 0 2 3 1 2 105 0 3 3 0 97 0 0 0 75 0 78 
EIF[ ]\011/* EndIf */
PUSHB[ ]\011/* 7 values pushed */
38 38 38 35 4 11 26 
CALL[ ]\011/* CallFunction */";
};
width = 1549;
},
{
anchors = (
{
name = bottom;
position = "{680, 0}";
},
{
name = center;
position = "{680, 678}";
},
{
name = ogonek;
position = "{788, -5}";
},
{
name = top;
position = "{678, 1358}";
},
{
name = topleft;
position = "{-12, 1358}";
},
{
name = topright;
position = "{1371, 1358}";
}
);
hints = (
{
horizontal = 1;
origin = "{0, 11}";
target = "{1, 11}";
type = TTStem;
options = 4;
},
{
horizontal = 1;
origin = "{0, 5}";
target = "{1, 5}";
type = TTStem;
options = 4;
},
{
origin = "{0, 8}";
type = Anchor;
},
{
origin = "{0, 8}";
target = "{1, 2}";
type = TTStem;
options = 4;
},
{
origin = "{0, 2}";
type = Anchor;
},
{
origin = "{0, 2}";
target = "{1, 8}";
type = TTStem;
options = 4;
},
{
origin = "{rsb}";
target = "{0, 2}";
type = TTStem;
},
{
horizontal = 1;
origin = "{0, 5}";
type = Anchor;
},
{
horizontal = 1;
origin = "{0, 11}";
type = Anchor;
}
);
layerId = "EBD25FEC-6C57-4903-A936-5FDFC9C63FB2";
paths = (
{
closed = 1;
nodes = (
"1081 -27 OFFCURVE",
"1312 313 OFFCURVE",
"1312 677 CURVE SMOOTH",
"1312 1068 OFFCURVE",
"1045 1385 OFFCURVE",
"682 1385 CURVE SMOOTH",
"294 1385 OFFCURVE",
"57 1022 OFFCURVE",
"57 659 CURVE SMOOTH",
"57 288 OFFCURVE",
"295 -27 OFFCURVE",
"682 -27 CURVE SMOOTH"
);
},
{
closed = 1;
nodes = (
"415 40 OFFCURVE",
"216 328 OFFCURVE",
"216 711 CURVE SMOOTH",
"216 1062 OFFCURVE",
"421 1322 OFFCURVE",
"679 1322 CURVE SMOOTH",
"952 1322 OFFCURVE",
"1154 1026 OFFCURVE",
"1154 640 CURVE SMOOTH",
"1154 299 OFFCURVE",
"963 40 OFFCURVE",
"697 40 CURVE SMOOTH"
);
}
);
width = 1370;
},
{
anchors = (
{
name = bottom;
position = "{781, 0}";
},
{
name = center;
position = "{781, 677}";
},
{
name = ogonek;
position = "{897, -6}";
},
{
name = top;
position = "{779, 1358}";
},
{
name = topleft;
position = "{59, 1358}";
},
{
name = topright;
position = "{1442, 1358}";
}
);
layerId = "16DF9356-34D2-4C02-8100-FB39A491A1B7";
paths = (
{
closed = 1;
nodes = (
"1225 -27 OFFCURVE",
"1474 312 OFFCURVE",
"1474 676 CURVE SMOOTH",
"1474 1067 OFFCURVE",
"1185 1385 OFFCURVE",
"799 1385 CURVE SMOOTH",
"407 1385 OFFCURVE",
"123 1059 OFFCURVE",
"123 660 CURVE SMOOTH",
"123 289 OFFCURVE",
"380 -27 OFFCURVE",
"795 -27 CURVE SMOOTH"
);
},
{
closed = 1;
nodes = (
"513 40 OFFCURVE",
"286 343 OFFCURVE",
"286 712 CURVE SMOOTH",
"286 1052 OFFCURVE",
"520 1322 OFFCURVE",
"790 1322 CURVE SMOOTH",
"1078 1322 OFFCURVE",
"1310 1016 OFFCURVE",
"1310 640 CURVE SMOOTH",
"1310 310 OFFCURVE",
"1094 40 OFFCURVE",
"812 40 CURVE SMOOTH"
);
}
);
width = 1597;
},
{
anchors = (
{
name = bottom;
position = "{676, 0}";
},
{
name = center;
position = "{710, 661}";
},
{
name = ogonek;
position = "{810, -3}";
},
{
name = top;
position = "{718, 1358}";
},
{
name = topleft;
position = "{111, 1358}";
},
{
name = topright;
position = "{1429, 1358}";
}
);
layerId = "20F63CDD-78BD-4F3A-8DC2-32840B76756A";
paths = (
{
closed = 1;
nodes = (
"1039 -27 OFFCURVE",
"1325 286 OFFCURVE",
"1325 675 CURVE SMOOTH",
"1325 1063 OFFCURVE",
"1045 1384 OFFCURVE",
"690 1384 CURVE SMOOTH",
"335 1384 OFFCURVE",
"46 1060 OFFCURVE",
"46 659 CURVE SMOOTH",
"46 266 OFFCURVE",
"322 -27 OFFCURVE",
"673 -27 CURVE SMOOTH"
);
},
{
closed = 1;
nodes = (
"470 70 OFFCURVE",
"330 385 OFFCURVE",
"330 717 CURVE SMOOTH",
"330 1034 OFFCURVE",
"498 1294 OFFCURVE",
"683 1294 CURVE SMOOTH",
"889 1294 OFFCURVE",
"1040 982 OFFCURVE",
"1040 624 CURVE SMOOTH",
"1040 312 OFFCURVE",
"894 70 OFFCURVE",
"698 70 CURVE SMOOTH"
);
}
);
width = 1370;
}
);
leftKerningGroup = C;
note = O;
rightKerningGroup = O;
unicode = 004F;
},
{
glyphname = OE;
lastChange = "2019-04-04 01:15:42 +0000";
layers = (
{
anchors = (
{
name = bottom;
position = "{1049, 0}";
},
{
name = top;
position = "{1049, 1358}";
}
);
layerId = "6CE37295-6E30-426D-87AF-6FEE9061C297";
paths = (
{
closed = 1;
nodes = (
"1323 0 LINE",
"1323 1358 LINE",
"755 1358 LINE",
"325 1358 OFFCURVE",
"23 1054 OFFCURVE",
"23 658 CURVE SMOOTH",
"23 274 OFFCURVE",
"295 0 OFFCURVE",
"752 0 CURVE"
);
},
{
closed = 1;
nodes = (
"579 100 OFFCURVE",
"423 406 OFFCURVE",
"423 750 CURVE SMOOTH",
"423 1038 OFFCURVE",
"516 1267 OFFCURVE",
"798 1267 CURVE SMOOTH",
"866 1267 OFFCURVE",
"963 1248 OFFCURVE",
"1016 1168 CURVE",
"1016 200 LINE",
"984 137 OFFCURVE",
"916 100 OFFCURVE",
"843 100 CURVE SMOOTH"
);
},
{
closed = 1;
nodes = (
"1986 999 LINE",
"1986 1358 LINE",
"1038 1358 LINE",
"1038 1259 LINE",
"1670 1259 LINE SMOOTH",
"1743 1259 OFFCURVE",
"1766 1248 OFFCURVE",
"1793 1205 CURVE SMOOTH",
"1925 999 LINE"
);
},
{
closed = 1;
nodes = (
"2039 0 LINE",
"2039 356 LINE",
"1978 356 LINE",
"1858 151 LINE SMOOTH",
"1835 111 OFFCURVE",
"1782 95 OFFCURVE",
"1735 95 CURVE SMOOTH",
"1016 95 LINE",
"1016 0 LINE"
);
},
{
closed = 1;
nodes = (
"1642 632 LINE",
"1642 729 LINE",
"1132 729 LINE",
"1132 632 LINE"
);
},
{
closed = 1;
nodes = (
"1710 462 LINE",
"1710 918 LINE",
"1584 918 LINE",
"1584 462 LINE"
);
}
);
userData = {
assembly = "NPUSHB[ ]\011/* 13 values pushed */
45 39 27 3 3 2 71 52 2 5 4 2 76 
MPPEM[ ]\011/* MeasurePixelPerEm */
PUSHB[ ]\011/* 1 value pushed */
48 
LT[ ]\011/* LessThan */
IF[ ]\011/* If */
NPUSHB[ ]\011/* 31 values pushed */
0 3 0 4 5 3 4 105 6 1 2 2 1 95 0 1 1 68 77 7 1 5 5 0 95 0 0 0 69 0 78 
ELSE[ ]\011/* Else */
MPPEM[ ]\011/* MeasurePixelPerEm */
PUSHB[ ]\011/* 1 value pushed */
56 
LT[ ]\011/* LessThan */
IF[ ]\011/* If */
NPUSHB[ ]\011/* 43 values pushed */
0 2 6 3 6 2 114 0 5 4 7 7 5 114 0 3 0 4 5 3 4 105 0 6 6 1 95 0 1 1 68 77 0 7 7 0 96 0 0 0 69 0 78 
ELSE[ ]\011/* Else */
MPPEM[ ]\011/* MeasurePixelPerEm */
PUSHB[ ]\011/* 1 value pushed */
60 
LT[ ]\011/* LessThan */
IF[ ]\011/* If */
NPUSHB[ ]\011/* 40 values pushed */
0 2 6 3 6 2 114 0 5 4 7 7 5 114 0 3 0 4 5 3 4 105 0 7 0 0 7 0 100 0 6 6 1 95 0 1 1 68 6 78 
ELSE[ ]\011/* Else */
NPUSHB[ ]\011/* 46 values pushed */
0 2 6 3 6 2 114 0 5 4 7 7 5 114 0 1 0 6 2 1 6 105 0 3 0 4 5 3 4 105 0 7 0 0 7 89 0 7 7 0 96 0 0 7 0 80 
EIF[ ]\011/* EndIf */
EIF[ ]\011/* EndIf */
EIF[ ]\011/* EndIf */
NPUSHB[ ]\011/* 11 values pushed */
36 58 53 62 36 74 132 131 8 11 30 
CALL[ ]\011/* CallFunction */";
};
width = 2054;
},
{
anchors = (
{
name = bottom;
position = "{913, 0}";
},
{
name = top;
position = "{913, 1358}";
}
);
hints = (
{
horizontal = 1;
origin = "{0, 8}";
target = "{1, 12}";
type = TTStem;
options = 4;
},
{
horizontal = 1;
origin = "{0, 8}";
target = "{3, 8}";
type = Align;
options = 4;
},
{
horizontal = 1;
origin = "{1, 12}";
target = "{3, 7}";
type = Align;
options = 4;
},
{
horizontal = 1;
origin = "{0, 2}";
target = "{1, 5}";
type = TTStem;
options = 4;
},
{
horizontal = 1;
origin = "{0, 2}";
target = "{2, 2}";
type = Align;
options = 4;
},
{
horizontal = 1;
origin = "{1, 5}";
target = "{2, 3}";
type = Align;
options = 4;
},
{
horizontal = 1;
origin = "{1, 12}";
target = "{1, 5}";
other1 = "{4, 2}";
type = Interpolate;
},
{
horizontal = 1;
origin = "{4, 2}";
target = "{4, 3}";
type = TTStem;
},
{
origin = "{0, 5}";
type = Anchor;
},
{
origin = "{0, 5}";
target = "{1, 2}";
type = TTStem;
options = 4;
},
{
origin = "{1, 9}";
type = Anchor;
},
{
origin = "{1, 9}";
target = "{0, 0}";
type = TTStem;
},
{
origin = "{rsb}";
target = "{3, 1}";
type = TTStem;
},
{
origin = "{3, 1}";
target = "{3, 2}";
type = TTStem;
},
{
origin = "{3, 2}";
target = "{5, 0}";
type = TTStem;
},
{
origin = "{5, 0}";
target = "{5, 3}";
type = TTStem;
},
{
origin = "{3, 1}";
target = "{2, 0}";
type = TTStem;
},
{
origin = "{2, 0}";
target = "{2, 8}";
type = TTStem;
},
{
horizontal = 1;
origin = "{0, 2}";
type = Anchor;
},
{
horizontal = 1;
origin = "{0, 8}";
type = Anchor;
}
);
layerId = "EBD25FEC-6C57-4903-A936-5FDFC9C63FB2";
paths = (
{
closed = 1;
nodes = (
"1063 0 LINE",
"1063 1358 LINE",
"671 1358 LINE",
"287 1358 OFFCURVE",
"57 1008 OFFCURVE",
"57 666 CURVE SMOOTH",
"57 301 OFFCURVE",
"289 0 OFFCURVE",
"666 0 CURVE"
);
},
{
closed = 1;
nodes = (
"465 70 OFFCURVE",
"216 332 OFFCURVE",
"216 726 CURVE SMOOTH",
"216 1015 OFFCURVE",
"390 1288 OFFCURVE",
"662 1288 CURVE SMOOTH",
"783 1288 OFFCURVE",
"868 1281 OFFCURVE",
"930 1206 CURVE",
"930 127 LINE",
"872 77 OFFCURVE",
"823 70 OFFCURVE",
"685 70 CURVE SMOOTH"
);
},
{
closed = 1;
nodes = (
"1712 1014 LINE",
"1712 1358 LINE",
"931 1358 LINE",
"931 1294 LINE",
"1484 1294 LINE SMOOTH",
"1556 1294 OFFCURVE",
"1587 1280 OFFCURVE",
"1607 1228 CURVE SMOOTH",
"1686 1014 LINE"
);
},
{
closed = 1;
nodes = (
"1778 0 LINE",
"1778 343 LINE",
"1752 343 LINE",
"1657 119 LINE SMOOTH",
"1635 68 OFFCURVE",
"1599 63 OFFCURVE",
"1534 63 CURVE SMOOTH",
"930 63 LINE",
"930 0 LINE"
);
},
{
closed = 1;
nodes = (
"1442 659 LINE",
"1442 722 LINE",
"987 722 LINE",
"987 659 LINE"
);
},
{
closed = 1;
nodes = (
"1472 445 LINE",
"1472 951 LINE",
"1403 951 LINE",
"1403 445 LINE"
);
}
);
width = 1813;
},
{
anchors = (
{
name = bottom;
position = "{1130, 0}";
},
{
name = top;
position = "{1130, 1358}";
}
);
layerId = "16DF9356-34D2-4C02-8100-FB39A491A1B7";
paths = (
{
closed = 1;
nodes = (
"1201 0 LINE",
"1201 1358 LINE",
"780 1358 LINE",
"369 1358 OFFCURVE",
"123 1008 OFFCURVE",
"123 666 CURVE SMOOTH",
"123 301 OFFCURVE",
"371 0 OFFCURVE",
"775 0 CURVE"
);
},
{
closed = 1;
nodes = (
"557 70 OFFCURVE",
"286 332 OFFCURVE",
"286 726 CURVE SMOOTH",
"286 1016 OFFCURVE",
"475 1287 OFFCURVE",
"771 1287 CURVE SMOOTH",
"899 1287 OFFCURVE",
"990 1281 OFFCURVE",
"1058 1205 CURVE",
"1058 127 LINE",
"995 77 OFFCURVE",
"942 70 OFFCURVE",
"795 70 CURVE SMOOTH"
);
},
{
closed = 1;
nodes = (
"1894 1007 LINE",
"1894 1358 LINE",
"1059 1358 LINE",
"1059 1285 LINE",
"1669 1285 LINE SMOOTH",
"1746 1285 OFFCURVE",
"1778 1272 OFFCURVE",
"1792 1230 CURVE SMOOTH",
"1866 1007 LINE"
);
},
{
closed = 1;
nodes = (
"2029 0 LINE",
"2029 343 LINE",
"2001 343 LINE",
"1923 128 LINE SMOOTH",
"1911 94 OFFCURVE",
"1854 72 OFFCURVE",
"1800 72 CURVE SMOOTH",
"1058 72 LINE",
"1058 0 LINE"
);
},
{
closed = 1;
nodes = (
"1598 654 LINE",
"1598 727 LINE",
"1107 727 LINE",
"1107 654 LINE"
);
},
{
closed = 1;
nodes = (
"1638 440 LINE",
"1638 955 LINE",
"1564 955 LINE",
"1564 440 LINE"
);
}
);
width = 2066;
},
{
anchors = (
{
name = bottom;
position = "{914, 0}";
},
{
name = top;
position = "{914, 1358}";
}
);
layerId = "20F63CDD-78BD-4F3A-8DC2-32840B76756A";
paths = (
{
closed = 1;
nodes = (
"1151 0 LINE",
"1151 1358 LINE",
"671 1358 LINE",
"302 1358 OFFCURVE",
"46 1041 OFFCURVE",
"46 667 CURVE SMOOTH",
"46 282 OFFCURVE",
"278 0 OFFCURVE",
"668 0 CURVE"
);
},
{
closed = 1;
nodes = (
"516 97 OFFCURVE",
"374 389 OFFCURVE",
"374 725 CURVE SMOOTH",
"374 1029 OFFCURVE",
"499 1268 OFFCURVE",
"669 1268 CURVE SMOOTH",
"806 1268 OFFCURVE",
"849 1253 OFFCURVE",
"895 1180 CURVE",
"895 181 LINE",
"840 109 OFFCURVE",
"809 97 OFFCURVE",
"685 97 CURVE SMOOTH"
);
},
{
closed = 1;
nodes = (
"1731 1000 LINE",
"1731 1358 LINE",
"896 1358 LINE",
"896 1260 LINE",
"1428 1260 LINE SMOOTH",
"1501 1260 OFFCURVE",
"1524 1250 OFFCURVE",
"1551 1205 CURVE SMOOTH",
"1674 1000 LINE"
);
},
{
closed = 1;
nodes = (
"1778 0 LINE",
"1778 355 LINE",
"1721 355 LINE",
"1609 153 LINE SMOOTH",
"1586 112 OFFCURVE",
"1535 97 OFFCURVE",
"1486 97 CURVE SMOOTH",
"895 97 LINE",
"895 0 LINE"
);
},
{
closed = 1;
nodes = (
"1435 619 LINE",
"1435 717 LINE",
"998 717 LINE",
"998 619 LINE"
);
},
{
closed = 1;
nodes = (
"1495 442 LINE",
"1495 911 LINE",
"1388 911 LINE",
"1388 442 LINE"
);
}
);
width = 1813;
}
);
leftKerningGroup = C;
leftMetricsKey = "=O";
note = OE;
rightMetricsKey = "=E";
unicode = 0152;
},
{
glyphname = P;
lastChange = "2019-04-04 01:18:33 +0000";
layers = (
{
anchors = (
{
name = bottom;
position = "{610, 0}";
},
{
name = top;
position = "{610, 1358}";
}
);
layerId = "6CE37295-6E30-426D-87AF-6FEE9061C297";
paths = (
{
closed = 1;
nodes = (
"505 40 LINE",
"505 652 LINE",
"417 619 LINE",
"474 597 OFFCURVE",
"563 596 OFFCURVE",
"649 596 CURVE SMOOTH",
"986 596 OFFCURVE",
"1222 715 OFFCURVE",
"1222 967 CURVE SMOOTH",
"1222 1209 OFFCURVE",
"989 1358 OFFCURVE",
"655 1358 CURVE SMOOTH",
"198 1358 LINE",
"198 40 LINE"
);
},
{
closed = 1;
nodes = (
"674 0 LINE",
"674 81 LINE",
"350 111 LINE",
"29 81 LINE",
"29 0 LINE"
);
},
{
closed = 1;
nodes = (
"349 1358 LINE",
"29 1358 LINE",
"29 1277 LINE",
"349 1247 LINE"
);
},
{
closed = 1;
nodes = (
"488 690 OFFCURVE",
"477 700 OFFCURVE",
"402 754 CURVE",
"505 598 LINE",
"505 1264 LINE",
"573 1264 LINE SMOOTH",
"760 1264 OFFCURVE",
"853 1127 OFFCURVE",
"853 966 CURVE SMOOTH",
"853 785 OFFCURVE",
"765 690 OFFCURVE",
"589 690 CURVE SMOOTH"
);
}
);
userData = {
assembly = "PUSHB[ ]\011/* 6 values pushed */
44 1 8 3 1 76 
MPPEM[ ]\011/* MeasurePixelPerEm */
PUSHB[ ]\011/* 1 value pushed */
39 
LT[ ]\011/* LessThan */
IF[ ]\011/* If */
NPUSHB[ ]\011/* 32 values pushed */
0 8 6 1 5 0 8 5 105 7 1 3 3 4 95 0 4 4 68 77 2 1 0 0 1 95 0 1 1 69 1 78 
ELSE[ ]\011/* Else */
MPPEM[ ]\011/* MeasurePixelPerEm */
PUSHB[ ]\011/* 1 value pushed */
51 
LT[ ]\011/* LessThan */
IF[ ]\011/* If */
NPUSHB[ ]\011/* 38 values pushed */
0 3 7 8 7 3 114 0 8 6 1 5 0 8 5 105 0 7 7 4 95 0 4 4 68 77 2 1 0 0 1 95 0 1 1 69 1 78 
ELSE[ ]\011/* Else */
MPPEM[ ]\011/* MeasurePixelPerEm */
PUSHB[ ]\011/* 1 value pushed */
60 
LT[ ]\011/* LessThan */
IF[ ]\011/* If */
NPUSHB[ ]\011/* 35 values pushed */
0 3 7 8 7 3 114 0 8 6 1 5 0 8 5 105 2 1 0 0 1 0 1 99 0 7 7 4 95 0 4 4 68 7 78 
ELSE[ ]\011/* Else */
MPPEM[ ]\011/* MeasurePixelPerEm */
PUSHB[ ]\011/* 1 value pushed */
93 
LT[ ]\011/* LessThan */
IF[ ]\011/* If */
NPUSHB[ ]\011/* 42 values pushed */
0 3 7 8 7 3 114 0 4 0 7 3 4 7 105 0 8 6 1 5 0 8 5 105 2 1 0 1 1 0 89 2 1 0 0 1 95 0 1 0 1 79 
ELSE[ ]\011/* Else */
NPUSHB[ ]\011/* 49 values pushed */
0 3 7 8 7 3 114 0 6 8 5 8 6 5 128 0 4 0 7 3 4 7 105 0 8 0 5 0 8 5 105 2 1 0 1 1 0 89 2 1 0 0 1 95 0 1 0 1 79 
EIF[ ]\011/* EndIf */
EIF[ ]\011/* EndIf */
EIF[ ]\011/* EndIf */
EIF[ ]\011/* EndIf */
NPUSHB[ ]\011/* 12 values pushed */
39 37 17 38 114 19 34 82 17 9 11 31 
CALL[ ]\011/* CallFunction */";
};
width = 1238;
},
{
anchors = (
{
name = bottom;
position = "{558, 0}";
},
{
name = top;
position = "{558, 1358}";
}
);
hints = (
{
horizontal = 1;
origin = "{1, 4}";
target = "{1, 3}";
type = TTStem;
options = 4;
},
{
horizontal = 1;
origin = "{1, 3}";
target = "{1, 1}";
type = Align;
options = 4;
},
{
horizontal = 1;
origin = "{2, 1}";
target = "{2, 2}";
type = TTStem;
options = 4;
},
{
horizontal = 1;
origin = "{2, 2}";
target = "{3, 4}";
type = Align;
options = 4;
},
{
horizontal = 1;
origin = "{1, 3}";
target = "{2, 2}";
other1 = "{3, 11}";
type = Interpolate;
},
{
horizontal = 1;
origin = "{3, 11}";
target = "{0, 5}";
type = TTStem;
},
{
origin = "{0, 13}";
type = Anchor;
},
{
origin = "{0, 13}";
target = "{0, 0}";
type = TTStem;
},
{
origin = "{rsb}";
target = "{0, 8}";
type = TTStem;
},
{
origin = "{0, 8}";
target = "{3, 8}";
type = TTStem;
},
{
horizontal = 1;
origin = "{1, 4}";
type = Anchor;
},
{
horizontal = 1;
origin = "{2, 1}";
type = Anchor;
},
{
horizontal = 1;
origin = "{1, 3}";
target = "{1, 4}";
other1 = "{0, 13}";
type = Interpolate;
options = 4;
},
{
horizontal = 1;
origin = "{2, 1}";
target = "{0, 12}";
type = Align;
options = 4;
}
);
layerId = "EBD25FEC-6C57-4903-A936-5FDFC9C63FB2";
paths = (
{
closed = 1;
nodes = (
"398 25 LINE",
"398 621 LINE",
"339 623 LINE",
"412 597 OFFCURVE",
"488 596 OFFCURVE",
"602 596 CURVE SMOOTH",
"893 596 OFFCURVE",
"1067 738 OFFCURVE",
"1067 979 CURVE SMOOTH",
"1067 1219 OFFCURVE",
"881 1358 OFFCURVE",
"608 1358 CURVE SMOOTH",
"265 1358 LINE",
"265 25 LINE"
);
},
{
closed = 1;
nodes = (
"594 0 LINE",
"594 50 LINE",
"335 80 LINE",
"70 50 LINE",
"70 0 LINE"
);
},
{
closed = 1;
nodes = (
"389 1358 LINE",
"70 1358 LINE",
"70 1308 LINE",
"389 1278 LINE"
);
},
{
closed = 1;
nodes = (
"442 652 OFFCURVE",
"368 669 OFFCURVE",
"325 702 CURVE",
"398 640 LINE",
"398 1302 LINE",
"530 1302 LINE SMOOTH",
"756 1302 OFFCURVE",
"920 1154 OFFCURVE",
"920 983 CURVE SMOOTH",
"920 768 OFFCURVE",
"780 652 OFFCURVE",
"540 652 CURVE SMOOTH"
);
}
);
width = 1108;
},
{
anchors = (
{
name = bottom;
position = "{562, 0}";
},
{
name = top;
position = "{562, 1358}";
}
);
layerId = "16DF9356-34D2-4C02-8100-FB39A491A1B7";
paths = (
{
closed = 1;
nodes = (
"412 25 LINE",
"412 621 LINE",
"347 623 LINE",
"426 597 OFFCURVE",
"508 596 OFFCURVE",
"629 596 CURVE SMOOTH",
"940 596 OFFCURVE",
"1127 738 OFFCURVE",
"1127 979 CURVE SMOOTH",
"1127 1219 OFFCURVE",
"927 1358 OFFCURVE",
"635 1358 CURVE SMOOTH",
"269 1358 LINE",
"269 25 LINE"
);
},
{
closed = 1;
nodes = (
"607 0 LINE",
"607 50 LINE",
"343 80 LINE",
"73 50 LINE",
"73 0 LINE"
);
},
{
closed = 1;
nodes = (
"394 1358 LINE",
"73 1358 LINE",
"73 1298 LINE",
"394 1268 LINE"
);
},
{
closed = 1;
nodes = (
"459 669 OFFCURVE",
"378 685 OFFCURVE",
"333 719 CURVE",
"412 640 LINE",
"412 1285 LINE",
"553 1285 LINE SMOOTH",
"793 1285 OFFCURVE",
"968 1145 OFFCURVE",
"968 983 CURVE SMOOTH",
"968 778 OFFCURVE",
"819 669 OFFCURVE",
"563 669 CURVE SMOOTH"
);
}
);
width = 1213;
},
{
anchors = (
{
name = bottom;
position = "{572, 0}";
},
{
name = top;
position = "{572, 1358}";
}
);
layerId = "20F63CDD-78BD-4F3A-8DC2-32840B76756A";
leftMetricsKey = "=H-8";
paths = (
{
closed = 1;
nodes = (
"475 36 LINE",
"475 643 LINE",
"400 621 LINE",
"449 597 OFFCURVE",
"524 596 OFFCURVE",
"598 596 CURVE SMOOTH",
"888 596 OFFCURVE",
"1091 722 OFFCURVE",
"1091 970 CURVE SMOOTH",
"1091 1212 OFFCURVE",
"890 1358 OFFCURVE",
"603 1358 CURVE SMOOTH",
"219 1358 LINE",
"219 36 LINE"
);
},
{
closed = 1;
nodes = (
"632 0 LINE",
"632 72 LINE",
"349 102 LINE",
"62 72 LINE",
"62 0 LINE"
);
},
{
closed = 1;
nodes = (
"398 1358 LINE",
"77 1358 LINE",
"77 1286 LINE",
"398 1256 LINE"
);
},
{
closed = 1;
nodes = (
"465 687 OFFCURVE",
"451 697 OFFCURVE",
"388 747 CURVE",
"475 611 LINE",
"475 1267 LINE",
"534 1267 LINE SMOOTH",
"707 1267 OFFCURVE",
"796 1130 OFFCURVE",
"796 971 CURVE SMOOTH",
"796 785 OFFCURVE",
"712 687 OFFCURVE",
"547 687 CURVE SMOOTH"
);
}
);
width = 1108;
}
);
leftMetricsKey = H;
note = P;
rightKerningGroup = P;
unicode = 0050;
},
{
glyphname = Thorn;
lastChange = "2019-04-04 01:24:08 +0000";
layers = (
{
anchors = (
{
name = bottom;
position = "{643, 0}";
},
{
name = top;
position = "{643, 1358}";
}
);
layerId = "6CE37295-6E30-426D-87AF-6FEE9061C297";
paths = (
{
closed = 1;
nodes = (
"556 -12 OFFCURVE",
"687 32 OFFCURVE",
"755 64 CURVE SMOOTH",
"1046 200 OFFCURVE",
"1244 466 OFFCURVE",
"1244 725 CURVE SMOOTH",
"1244 1001 OFFCURVE",
"1039 1329 OFFCURVE",
"830 1329 CURVE SMOOTH",
"765 1329 OFFCURVE",
"690 1300 OFFCURVE",
"623 1244 CURVE SMOOTH",
"536 1171 OFFCURVE",
"483 1128 OFFCURVE",
"424 1089 CURVE",
"382 943 LINE",
"502 1014 OFFCURVE",
"596 1073 OFFCURVE",
"681 1158 CURVE SMOOTH",
"703 1180 OFFCURVE",
"709 1186 OFFCURVE",
"722 1186 CURVE SMOOTH",
"757 1186 OFFCURVE",
"844 934 OFFCURVE",
"844 725 CURVE SMOOTH",
"844 504 OFFCURVE",
"766 284 OFFCURVE",
"659 176 CURVE SMOOTH",
"616 133 OFFCURVE",
"547 79 OFFCURVE",
"408 79 CURVE",
"404 -28 LINE"
);
},
{
closed = 1;
nodes = (
"452 -344 LINE",
"494 -285 LINE",
"494 1226 LINE SMOOTH",
"494 1265 OFFCURVE",
"494 1305 OFFCURVE",
"499 1348 CURVE",
"441 1394 LINE",
"24 1322 LINE",
"24 1231 LINE",
"237 1235 LINE",
"187 1286 LINE",
"187 -317 LINE",
"211 -264 LINE",
"78 -446 LINE",
"155 -540 LINE"
);
}
);
userData = {
assembly = "MPPEM[ ]\011/* MeasurePixelPerEm */
PUSHB[ ]\011/* 1 value pushed */
27 
LT[ ]\011/* LessThan */
IF[ ]\011/* If */
NPUSHB[ ]\011/* 36 values pushed */
0 5 0 3 0 5 3 128 0 3 6 0 3 6 126 0 6 6 132 0 2 2 74 77 0 0 0 1 97 4 1 1 1 68 0 78 
ELSE[ ]\011/* Else */
MPPEM[ ]\011/* MeasurePixelPerEm */
PUSHB[ ]\011/* 1 value pushed */
60 
LT[ ]\011/* LessThan */
IF[ ]\011/* If */
NPUSHB[ ]\011/* 34 values pushed */
0 5 0 3 0 5 3 128 0 3 6 0 3 6 126 0 6 6 132 4 1 1 0 0 5 1 0 105 0 2 2 74 2 78 
ELSE[ ]\011/* Else */
NPUSHB[ ]\011/* 45 values pushed */
0 2 4 2 133 0 4 1 4 133 0 5 0 3 0 5 3 128 0 3 6 0 3 6 126 0 6 6 132 0 1 0 0 1 89 0 1 1 0 97 0 0 1 0 81 
EIF[ ]\011/* EndIf */
EIF[ ]\011/* EndIf */
NPUSHB[ ]\011/* 17 values pushed */
66 65 56 54 46 44 40 38 35 33 31 29 27 26 7 11 22 
CALL[ ]\011/* CallFunction */";
};
width = 1295;
},
{
anchors = (
{
name = bottom;
position = "{580, 0}";
},
{
name = top;
position = "{580, 1358}";
}
);
hints = (
{
horizontal = 1;
origin = "{0, 31}";
target = "{0, 30}";
type = TTStem;
},
{
horizontal = 1;
origin = "{1, 6}";
target = "{1, 8}";
type = TTStem;
options = 4;
},
{
horizontal = 1;
origin = "{0, 8}";
target = "{0, 21}";
type = TTStem;
options = 4;
},
{
origin = "{1, 11}";
type = Anchor;
},
{
origin = "{1, 11}";
target = "{1, 1}";
type = TTStem;
options = 4;
},
{
origin = "{rsb}";
target = "{0, 5}";
type = TTStem;
},
{
origin = "{0, 5}";
target = "{0, 24}";
type = TTStem;
},
{
horizontal = 1;
origin = "{1, 8}";
target = "{1, 7}";
type = TTStem;
options = 4;
},
{
horizontal = 1;
origin = "{1, 6}";
type = Anchor;
},
{
horizontal = 1;
origin = "{1, 6}";
target = "{0, 8}";
type = TTStem;
stem = -1;
},
{
horizontal = 1;
origin = "{0, 31}";
type = Anchor;
}
);
layerId = "EBD25FEC-6C57-4903-A936-5FDFC9C63FB2";
paths = (
{
closed = 1;
nodes = (
"498 -12 OFFCURVE",
"604 33 OFFCURVE",
"686 84 CURVE SMOOTH",
"917 227 OFFCURVE",
"1047 487 OFFCURVE",
"1047 740 CURVE SMOOTH",
"1047 1024 OFFCURVE",
"944 1327 OFFCURVE",
"737 1327 CURVE SMOOTH",
"683 1327 OFFCURVE",
"632 1292 OFFCURVE",
"585 1252 CURVE SMOOTH",
"509 1186 OFFCURVE",
"439 1134 OFFCURVE",
"349 1075 CURVE",
"313 974 LINE",
"469 1070 OFFCURVE",
"543 1134 OFFCURVE",
"618 1201 CURVE SMOOTH",
"634 1216 OFFCURVE",
"652 1221 OFFCURVE",
"664 1221 CURVE SMOOTH",
"800 1221 OFFCURVE",
"889 970 OFFCURVE",
"889 740 CURVE SMOOTH",
"889 480 OFFCURVE",
"827 311 OFFCURVE",
"660 161 CURVE SMOOTH",
"577 87 OFFCURVE",
"472 55 OFFCURVE",
"329 52 CURVE",
"321 -27 LINE"
);
},
{
closed = 1;
nodes = (
"358 -343 LINE",
"374 -308 LINE",
"374 1190 LINE SMOOTH",
"374 1254 OFFCURVE",
"374 1315 OFFCURVE",
"379 1352 CURVE",
"350 1386 LINE",
"56 1317 LINE",
"56 1257 LINE",
"280 1257 LINE",
"241 1297 LINE",
"241 -332 LINE",
"265 -271 LINE",
"104 -467 LINE",
"142 -509 LINE"
);
}
);
width = 1170;
},
{
anchors = (
{
name = bottom;
position = "{583, 0}";
},
{
name = top;
position = "{583, 1358}";
}
);
layerId = "16DF9356-34D2-4C02-8100-FB39A491A1B7";
paths = (
{
closed = 1;
nodes = (
"520 -12 OFFCURVE",
"633 33 OFFCURVE",
"721 84 CURVE SMOOTH",
"968 227 OFFCURVE",
"1108 486 OFFCURVE",
"1108 740 CURVE SMOOTH",
"1108 1030 OFFCURVE",
"992 1327 OFFCURVE",
"774 1327 CURVE SMOOTH",
"717 1327 OFFCURVE",
"661 1293 OFFCURVE",
"612 1252 CURVE SMOOTH",
"532 1186 OFFCURVE",
"457 1134 OFFCURVE",
"359 1075 CURVE",
"322 974 LINE",
"488 1070 OFFCURVE",
"567 1133 OFFCURVE",
"647 1201 CURVE SMOOTH",
"664 1216 OFFCURVE",
"685 1220 OFFCURVE",
"696 1220 CURVE SMOOTH",
"846 1220 OFFCURVE",
"944 969 OFFCURVE",
"944 740 CURVE SMOOTH",
"944 480 OFFCURVE",
"876 311 OFFCURVE",
"692 161 CURVE SMOOTH",
"603 88 OFFCURVE",
"491 55 OFFCURVE",
"338 52 CURVE",
"330 -27 LINE"
);
},
{
closed = 1;
nodes = (
"369 -343 LINE",
"387 -308 LINE",
"387 1191 LINE SMOOTH",
"387 1254 OFFCURVE",
"387 1315 OFFCURVE",
"392 1352 CURVE",
"360 1386 LINE",
"59 1317 LINE",
"59 1257 LINE",
"292 1257 LINE",
"244 1303 LINE",
"244 -332 LINE",
"270 -270 LINE",
"101 -460 LINE",
"146 -509 LINE"
);
}
);
width = 1236;
},
{
anchors = (
{
name = bottom;
position = "{587, 0}";
},
{
name = top;
position = "{587, 1358}";
}
);
layerId = "20F63CDD-78BD-4F3A-8DC2-32840B76756A";
paths = (
{
closed = 1;
nodes = (
"493 -12 OFFCURVE",
"595 31 OFFCURVE",
"659 70 CURVE SMOOTH",
"885 206 OFFCURVE",
"1046 464 OFFCURVE",
"1046 731 CURVE SMOOTH",
"1046 1015 OFFCURVE",
"889 1329 OFFCURVE",
"719 1329 CURVE SMOOTH",
"662 1329 OFFCURVE",
"597 1296 OFFCURVE",
"549 1246 CURVE SMOOTH",
"483 1177 OFFCURVE",
"445 1141 OFFCURVE",
"384 1086 CURVE",
"349 952 LINE",
"458 1039 OFFCURVE",
"513 1086 OFFCURVE",
"589 1166 CURVE SMOOTH",
"610 1188 OFFCURVE",
"619 1196 OFFCURVE",
"634 1196 CURVE SMOOTH",
"663 1196 OFFCURVE",
"726 946 OFFCURVE",
"726 735 CURVE SMOOTH",
"726 497 OFFCURVE",
"669 295 OFFCURVE",
"580 171 CURVE SMOOTH",
"542 118 OFFCURVE",
"486 71 OFFCURVE",
"371 71 CURVE",
"367 -28 LINE"
);
},
{
closed = 1;
nodes = (
"412 -344 LINE",
"446 -292 LINE",
"446 1215 LINE SMOOTH",
"446 1262 OFFCURVE",
"446 1308 OFFCURVE",
"450 1350 CURVE",
"403 1392 LINE",
"55 1320 LINE",
"55 1238 LINE",
"288 1238 LINE",
"191 1303 LINE",
"191 -322 LINE",
"211 -264 LINE",
"77 -418 LINE",
"163 -531 LINE"
);
}
);
width = 1170;
},
{
anchors = (
{
name = bottom;
position = "{650, 0}";
},
{
name = top;
position = "{650, 1358}";
}
);
associatedMasterId = "20F63CDD-78BD-4F3A-8DC2-32840B76756A";
hints = (
{
horizontal = 1;
origin = "{0, 31}";
target = "{0, 30}";
type = TTStem;
},
{
horizontal = 1;
origin = "{1, 6}";
target = "{1, 8}";
type = TTStem;
options = 4;
},
{
horizontal = 1;
origin = "{0, 8}";
target = "{0, 21}";
type = TTStem;
options = 4;
},
{
origin = "{1, 11}";
type = Anchor;
},
{
origin = "{1, 11}";
target = "{1, 1}";
type = TTStem;
options = 4;
},
{
origin = "{rsb}";
target = "{0, 5}";
type = TTStem;
},
{
origin = "{0, 5}";
target = "{0, 24}";
type = TTStem;
},
{
horizontal = 1;
origin = "{1, 8}";
target = "{1, 7}";
type = TTStem;
options = 4;
},
{
horizontal = 1;
origin = "{1, 6}";
type = Anchor;
},
{
horizontal = 1;
origin = "{1, 6}";
target = "{0, 8}";
type = TTStem;
stem = -1;
},
{
horizontal = 1;
origin = "{0, 31}";
type = Anchor;
}
);
layerId = "205E76CA-6D3E-45B6-A54B-EE0D90D4EDFF";
name = "{800, 18, 500, 0}";
paths = (
{
closed = 1;
nodes = (
"551 -12 OFFCURVE",
"678 27 OFFCURVE",
"728 50 CURVE SMOOTH",
"1014 179 OFFCURVE",
"1243 443 OFFCURVE",
"1243 716 CURVE SMOOTH",
"1243 1092 OFFCURVE",
"984 1331 OFFCURVE",
"812 1331 CURVE SMOOTH",
"744 1331 OFFCURVE",
"657 1303 OFFCURVE",
"587 1238 CURVE SMOOTH",
"508 1164 OFFCURVE",
"489 1141 OFFCURVE",
"459 1100 CURVE",
"418 921 LINE",
"498 981 OFFCURVE",
"555 1034 OFFCURVE",
"637 1128 CURVE SMOOTH",
"663 1158 OFFCURVE",
"676 1161 OFFCURVE",
"685 1161 CURVE SMOOTH",
"708 1161 OFFCURVE",
"731 910 OFFCURVE",
"731 720 CURVE SMOOTH",
"731 521 OFFCURVE",
"658 263 OFFCURVE",
"604 181 CURVE SMOOTH",
"581 147 OFFCURVE",
"541 98 OFFCURVE",
"450 98 CURVE",
"450 -29 LINE"
);
},
{
closed = 1;
nodes = (
"506 -345 LINE",
"566 -269 LINE",
"566 1251 LINE SMOOTH",
"566 1273 OFFCURVE",
"566 1298 OFFCURVE",
"570 1346 CURVE",
"494 1400 LINE",
"23 1325 LINE",
"23 1212 LINE",
"245 1216 LINE",
"137 1292 LINE",
"137 -307 LINE",
"157 -257 LINE",
"51 -397 LINE",
"176 -562 LINE"
);
}
);
width = 1295;
}
);
note = Thorn;
rightKerningGroup = Thorn;
unicode = 00DE;
},
{
glyphname = Q;
lastChange = "2019-04-04 01:24:36 +0000";
layers = (
{
anchors = (
{
name = bottom;
position = "{865, 0}";
},
{
name = top;
position = "{865, 1358}";
}
);
layerId = "6CE37295-6E30-426D-87AF-6FEE9061C297";
paths = (
{
closed = 1;
nodes = (
"2196 -311 OFFCURVE",
"2392 -246 OFFCURVE",
"2538 -147 CURVE",
"2512 -81 LINE",
"2343 -132 OFFCURVE",
"2218 -151 OFFCURVE",
"1984 -151 CURVE SMOOTH",
"1581 -151 OFFCURVE",
"1045 -77 OFFCURVE",
"805 28 CURVE SMOOTH",
"502 158 OFFCURVE",
"423 379 OFFCURVE",
"423 696 CURVE SMOOTH",
"423 1127 OFFCURVE",
"575 1292 OFFCURVE",
"762 1292 CURVE SMOOTH",
"1003 1292 OFFCURVE",
"1119 1048 OFFCURVE",
"1119 693 CURVE SMOOTH",
"1119 318 OFFCURVE",
"974 96 OFFCURVE",
"683 96 CURVE SMOOTH",
"642 96 OFFCURVE",
"574 103 OFFCURVE",
"535 111 CURVE",
"651 -4 LINE",
"669 -6 OFFCURVE",
"687 -6 OFFCURVE",
"705 -6 CURVE SMOOTH",
"1113 -6 OFFCURVE",
"1519 233 OFFCURVE",
"1519 724 CURVE SMOOTH",
"1519 1174 OFFCURVE",
"1199 1385 OFFCURVE",
"795 1385 CURVE SMOOTH",
"294 1385 OFFCURVE",
"23 1018 OFFCURVE",
"23 657 CURVE SMOOTH",
"23 270 OFFCURVE",
"329 44 OFFCURVE",
"740 -113 CURVE SMOOTH",
"1149 -269 OFFCURVE",
"1551 -311 OFFCURVE",
"1837 -311 CURVE SMOOTH"
);
}
);
userData = {
assembly = "MPPEM[ ]\011/* MeasurePixelPerEm */
PUSHB[ ]\011/* 1 value pushed */
60 
LT[ ]\011/* LessThan */
IF[ ]\011/* If */
NPUSHB[ ]\011/* 16 values pushed */
0 2 1 2 134 0 1 1 0 97 0 0 0 74 1 78 
ELSE[ ]\011/* Else */
NPUSHB[ ]\011/* 21 values pushed */
0 2 1 2 134 0 0 1 1 0 89 0 0 0 1 97 0 1 0 1 81 
EIF[ ]\011/* EndIf */
NPUSHB[ ]\011/* 9 values pushed */
45 43 37 35 29 27 3 11 22 
CALL[ ]\011/* CallFunction */";
};
width = 1549;
},
{
anchors = (
{
name = bottom;
position = "{695, 0}";
},
{
name = top;
position = "{695, 1358}";
}
);
hints = (
{
horizontal = 1;
origin = "{0, 34}";
target = "{0, 15}";
type = TTStem;
options = 4;
},
{
horizontal = 1;
origin = "{0, 43}";
target = "{0, 6}";
type = TTStem;
options = 4;
},
{
horizontal = 1;
origin = "{0, 28}";
target = "{0, 21}";
type = TTStem;
options = 4;
},
{
origin = "{0, 37}";
type = Anchor;
},
{
origin = "{0, 37}";
target = "{0, 12}";
type = TTStem;
},
{
origin = "{rsb}";
target = "{0, 31}";
type = TTStem;
},
{
origin = "{0, 31}";
target = "{0, 18}";
type = TTStem;
},
{
horizontal = 1;
origin = "{0, 34}";
type = Anchor;
},
{
horizontal = 1;
origin = "{0, 28}";
type = Anchor;
},
{
horizontal = 1;
origin = "{0, 28}";
target = "{0, 43}";
type = TTStem;
stem = -1;
}
);
layerId = "EBD25FEC-6C57-4903-A936-5FDFC9C63FB2";
paths = (
{
closed = 1;
nodes = (
"2097 -278 OFFCURVE",
"2319 -223 OFFCURVE",
"2437 -143 CURVE",
"2425 -114 LINE",
"2306 -153 OFFCURVE",
"2128 -184 OFFCURVE",
"1957 -184 CURVE SMOOTH",
"1504 -184 OFFCURVE",
"1119 -128 OFFCURVE",
"678 28 CURVE SMOOTH",
"350 145 OFFCURVE",
"216 371 OFFCURVE",
"216 709 CURVE SMOOTH",
"216 1067 OFFCURVE",
"420 1322 OFFCURVE",
"678 1322 CURVE SMOOTH",
"954 1322 OFFCURVE",
"1153 1030 OFFCURVE",
"1153 704 CURVE SMOOTH",
"1153 267 OFFCURVE",
"901 52 OFFCURVE",
"615 52 CURVE SMOOTH",
"550 52 OFFCURVE",
"503 57 OFFCURVE",
"448 67 CURVE",
"564 -4 LINE",
"582 -6 OFFCURVE",
"600 -6 OFFCURVE",
"618 -6 CURVE SMOOTH",
"965 -6 OFFCURVE",
"1312 231 OFFCURVE",
"1312 717 CURVE SMOOTH",
"1312 1074 OFFCURVE",
"1045 1385 OFFCURVE",
"683 1385 CURVE SMOOTH",
"289 1385 OFFCURVE",
"57 1018 OFFCURVE",
"57 659 CURVE SMOOTH",
"57 305 OFFCURVE",
"291 64 OFFCURVE",
"645 -63 CURVE SMOOTH",
"1042 -206 OFFCURVE",
"1537 -278 OFFCURVE",
"1884 -278 CURVE SMOOTH"
);
}
);
width = 1370;
},
{
anchors = (
{
name = bottom;
position = "{856, 0}";
},
{
name = top;
position = "{856, 1358}";
}
);
layerId = "16DF9356-34D2-4C02-8100-FB39A491A1B7";
paths = (
{
closed = 1;
nodes = (
"2312 -278 OFFCURVE",
"2550 -224 OFFCURVE",
"2677 -143 CURVE",
"2664 -114 LINE",
"2536 -152 OFFCURVE",
"2346 -184 OFFCURVE",
"2162 -184 CURVE SMOOTH",
"1676 -184 OFFCURVE",
"1263 -125 OFFCURVE",
"791 28 CURVE SMOOTH",
"432 145 OFFCURVE",
"286 371 OFFCURVE",
"286 709 CURVE SMOOTH",
"286 1067 OFFCURVE",
"509 1322 OFFCURVE",
"791 1322 CURVE SMOOTH",
"1092 1322 OFFCURVE",
"1310 1030 OFFCURVE",
"1310 704 CURVE SMOOTH",
"1310 268 OFFCURVE",
"1036 52 OFFCURVE",
"723 52 CURVE SMOOTH",
"654 52 OFFCURVE",
"604 57 OFFCURVE",
"545 67 CURVE",
"669 -4 LINE",
"688 -6 OFFCURVE",
"708 -6 OFFCURVE",
"727 -6 CURVE SMOOTH",
"1100 -6 OFFCURVE",
"1473 231 OFFCURVE",
"1473 718 CURVE SMOOTH",
"1473 1075 OFFCURVE",
"1186 1385 OFFCURVE",
"796 1385 CURVE SMOOTH",
"372 1385 OFFCURVE",
"123 1018 OFFCURVE",
"123 659 CURVE SMOOTH",
"123 304 OFFCURVE",
"374 64 OFFCURVE",
"755 -64 CURVE SMOOTH",
"1182 -206 OFFCURVE",
"1711 -278 OFFCURVE",
"2083 -278 CURVE SMOOTH"
);
}
);
width = 1597;
},
{
anchors = (
{
name = bottom;
position = "{681, 0}";
},
{
name = top;
position = "{691, 1358}";
}
);
layerId = "20F63CDD-78BD-4F3A-8DC2-32840B76756A";
paths = (
{
closed = 1;
nodes = (
"2097 -308 OFFCURVE",
"2319 -250 OFFCURVE",
"2437 -169 CURVE",
"2425 -86 LINE",
"2305 -124 OFFCURVE",
"2128 -154 OFFCURVE",
"1956 -154 CURVE SMOOTH",
"1503 -154 OFFCURVE",
"1117 -103 OFFCURVE",
"723 35 CURVE SMOOTH",
"433 137 OFFCURVE",
"355 371 OFFCURVE",
"355 709 CURVE SMOOTH",
"355 1050 OFFCURVE",
"498 1292 OFFCURVE",
"678 1292 CURVE SMOOTH",
"873 1292 OFFCURVE",
"1013 1014 OFFCURVE",
"1013 704 CURVE SMOOTH",
"1013 288 OFFCURVE",
"828 82 OFFCURVE",
"614 82 CURVE SMOOTH",
"550 82 OFFCURVE",
"503 87 OFFCURVE",
"448 97 CURVE",
"564 -4 LINE",
"582 -6 OFFCURVE",
"600 -6 OFFCURVE",
"618 -6 CURVE SMOOTH",
"970 -6 OFFCURVE",
"1322 231 OFFCURVE",
"1322 718 CURVE SMOOTH",
"1322 1075 OFFCURVE",
"1051 1385 OFFCURVE",
"683 1385 CURVE SMOOTH",
"282 1385 OFFCURVE",
"46 1018 OFFCURVE",
"46 659 CURVE SMOOTH",
"46 309 OFFCURVE",
"286 50 OFFCURVE",
"644 -77 CURVE SMOOTH",
"1046 -218 OFFCURVE",
"1536 -308 OFFCURVE",
"1882 -308 CURVE SMOOTH"
);
}
);
width = 1370;
}
);
leftKerningGroup = C;
leftMetricsKey = "=O";
widthMetricsKey = O;
note = Q;
unicode = 0051;
},
{
glyphname = R;
lastChange = "2019-04-04 01:28:46 +0000";
layers = (
{
anchors = (
{
name = bottom;
position = "{694, 0}";
},
{
name = top;
position = "{596, 1358}";
}
);
layerId = "6CE37295-6E30-426D-87AF-6FEE9061C297";
paths = (
{
closed = 1;
nodes = (
"1372 -25 OFFCURVE",
"1414 -22 OFFCURVE",
"1450 -17 CURVE",
"1450 48 LINE",
"1395 54 OFFCURVE",
"1345 89 OFFCURVE",
"1270 167 CURVE SMOOTH",
"1143 301 OFFCURVE",
"1043 437 OFFCURVE",
"924 626 CURVE",
"1166 697 OFFCURVE",
"1272 802 OFFCURVE",
"1272 978 CURVE SMOOTH",
"1272 1244 OFFCURVE",
"988 1358 OFFCURVE",
"655 1358 CURVE SMOOTH",
"198 1358 LINE",
"198 40 LINE",
"505 40 LINE",
"505 1264 LINE",
"556 1264 LINE SMOOTH",
"764 1264 OFFCURVE",
"904 1145 OFFCURVE",
"904 966 CURVE SMOOTH",
"904 773 OFFCURVE",
"799 675 OFFCURVE",
"589 675 CURVE SMOOTH",
"533 675 OFFCURVE",
"484 684 OFFCURVE",
"462 692 CURVE",
"467 586 LINE",
"560 586 LINE SMOOTH",
"580 586 OFFCURVE",
"584 582 OFFCURVE",
"605 563 CURVE SMOOTH",
"614 553 OFFCURVE",
"673 487 OFFCURVE",
"712 427 CURVE SMOOTH",
"744 375 OFFCURVE",
"832 252 OFFCURVE",
"888 197 CURVE SMOOTH",
"1057 31 OFFCURVE",
"1189 -25 OFFCURVE",
"1331 -25 CURVE SMOOTH"
);
},
{
closed = 1;
nodes = (
"674 0 LINE",
"674 81 LINE",
"350 111 LINE",
"29 81 LINE",
"29 0 LINE"
);
},
{
closed = 1;
nodes = (
"349 1358 LINE",
"29 1358 LINE",
"29 1277 LINE",
"349 1247 LINE"
);
}
);
userData = {
assembly = "NPUSHB[ ]\011/* 10 values pushed */
27 1 2 1 12 1 3 2 2 76 
MPPEM[ ]\011/* MeasurePixelPerEm */
PUSHB[ ]\011/* 1 value pushed */
39 
LT[ ]\011/* LessThan */
IF[ ]\011/* If */
NPUSHB[ ]\011/* 36 values pushed */
0 8 0 1 2 8 1 103 7 1 5 5 6 95 0 6 6 68 77 4 1 2 2 3 95 0 3 3 69 77 0 0 0 69 0 78 
ELSE[ ]\011/* Else */
MPPEM[ ]\011/* MeasurePixelPerEm */
PUSHB[ ]\011/* 1 value pushed */
51 
LT[ ]\011/* LessThan */
IF[ ]\011/* If */
NPUSHB[ ]\011/* 42 values pushed */
0 5 7 8 7 5 114 0 8 0 1 2 8 1 103 0 7 7 6 95 0 6 6 68 77 4 1 2 2 3 95 0 3 3 69 77 0 0 0 69 0 78 
ELSE[ ]\011/* Else */
MPPEM[ ]\011/* MeasurePixelPerEm */
PUSHB[ ]\011/* 1 value pushed */
60 
LT[ ]\011/* LessThan */
IF[ ]\011/* If */
NPUSHB[ ]\011/* 40 values pushed */
0 5 7 8 7 5 114 0 8 0 1 2 8 1 103 4 1 2 0 3 0 2 3 103 0 7 7 6 95 0 6 6 68 77 0 0 0 69 0 78 
ELSE[ ]\011/* Else */
NPUSHB[ ]\011/* 38 values pushed */
0 5 7 8 7 5 114 0 6 0 7 5 6 7 105 0 8 0 1 2 8 1 103 4 1 2 0 3 0 2 3 103 0 0 0 69 0 78 
EIF[ ]\011/* EndIf */
EIF[ ]\011/* EndIf */
EIF[ ]\011/* EndIf */
NPUSHB[ ]\011/* 12 values pushed */
38 38 114 19 34 82 20 24 46 9 11 31 
CALL[ ]\011/* CallFunction */";
};
width = 1472;
},
{
anchors = (
{
name = bottom;
position = "{679, 0}";
},
{
name = top;
position = "{570, 1358}";
}
);
hints = (
{
horizontal = 1;
origin = "{1, 4}";
target = "{1, 3}";
type = TTStem;
options = 4;
},
{
horizontal = 1;
origin = "{1, 3}";
target = "{1, 1}";
type = Align;
options = 4;
},
{
horizontal = 1;
origin = "{0, 43}";
target = "{0, 3}";
type = TTStem;
options = 4;
},
{
horizontal = 1;
origin = "{2, 1}";
target = "{2, 2}";
type = TTStem;
options = 4;
},
{
horizontal = 1;
origin = "{2, 1}";
target = "{0, 16}";
type = Align;
options = 4;
},
{
horizontal = 1;
origin = "{2, 1}";
target = "{0, 15}";
type = Align;
options = 4;
},
{
horizontal = 1;
origin = "{2, 2}";
target = "{0, 19}";
type = Align;
options = 4;
},
{
horizontal = 1;
origin = "{1, 4}";
target = "{2, 1}";
other1 = "{0, 26}";
type = Interpolate;
},
{
horizontal = 1;
origin = "{0, 26}";
target = "{0, 31}";
type = TTStem;
options = 4;
},
{
origin = "{0, 17}";
type = Anchor;
},
{
origin = "{0, 17}";
target = "{0, 18}";
type = TTStem;
},
{
origin = "{0, 12}";
type = Anchor;
},
{
origin = "{0, 12}";
target = "{0, 23}";
type = TTStem;
},
{
horizontal = 1;
origin = "{1, 4}";
type = Anchor;
},
{
horizontal = 1;
origin = "{2, 1}";
type = Anchor;
},
{
horizontal = 1;
origin = "{1, 3}";
target = "{1, 4}";
other1 = "{0, 17}";
type = Interpolate;
options = 4;
}
);
layerId = "EBD25FEC-6C57-4903-A936-5FDFC9C63FB2";
paths = (
{
closed = 1;
nodes = (
"1332 -25 OFFCURVE",
"1356 -24 OFFCURVE",
"1379 -22 CURVE",
"1379 17 LINE",
"1326 17 OFFCURVE",
"1227 66 OFFCURVE",
"1151 138 CURVE SMOOTH",
"1025 257 OFFCURVE",
"844 476 OFFCURVE",
"774 624 CURVE",
"978 674 OFFCURVE",
"1088 787 OFFCURVE",
"1088 984 CURVE SMOOTH",
"1088 1236 OFFCURVE",
"916 1358 OFFCURVE",
"608 1358 CURVE SMOOTH",
"265 1358 LINE",
"265 25 LINE",
"398 25 LINE",
"398 1302 LINE",
"529 1302 LINE SMOOTH",
"775 1302 OFFCURVE",
"941 1168 OFFCURVE",
"941 983 CURVE SMOOTH",
"941 758 OFFCURVE",
"795 652 OFFCURVE",
"540 652 CURVE SMOOTH",
"493 652 OFFCURVE",
"394 652 OFFCURVE",
"338 705 CURVE",
"349 600 LINE",
"534 600 LINE SMOOTH",
"570 600 OFFCURVE",
"605 589 OFFCURVE",
"624 576 CURVE SMOOTH",
"643 563 OFFCURVE",
"676 513 OFFCURVE",
"730 428 CURVE SMOOTH",
"784 343 OFFCURVE",
"849 258 OFFCURVE",
"900 204 CURVE SMOOTH",
"963 137 OFFCURVE",
"1155 -25 OFFCURVE",
"1309 -25 CURVE SMOOTH"
);
},
{
closed = 1;
nodes = (
"594 0 LINE",
"594 50 LINE",
"335 80 LINE",
"70 50 LINE",
"70 0 LINE"
);
},
{
closed = 1;
nodes = (
"389 1358 LINE",
"70 1358 LINE",
"70 1308 LINE",
"389 1278 LINE"
);
}
);
width = 1399;
},
{
anchors = (
{
name = bottom;
position = "{684, 0}";
},
{
name = top;
position = "{574, 1358}";
}
);
layerId = "16DF9356-34D2-4C02-8100-FB39A491A1B7";
paths = (
{
closed = 1;
nodes = (
"1410 -25 OFFCURVE",
"1437 -24 OFFCURVE",
"1461 -22 CURVE",
"1461 17 LINE",
"1404 18 OFFCURVE",
"1307 67 OFFCURVE",
"1226 138 CURVE SMOOTH",
"1091 258 OFFCURVE",
"911 480 OFFCURVE",
"835 629 CURVE",
"1029 678 OFFCURVE",
"1150 790 OFFCURVE",
"1150 984 CURVE SMOOTH",
"1150 1236 OFFCURVE",
"966 1358 OFFCURVE",
"635 1358 CURVE SMOOTH",
"269 1358 LINE",
"269 25 LINE",
"412 25 LINE",
"412 1285 LINE",
"551 1285 LINE SMOOTH",
"813 1285 OFFCURVE",
"991 1158 OFFCURVE",
"991 983 CURVE SMOOTH",
"991 772 OFFCURVE",
"835 673 OFFCURVE",
"563 673 CURVE SMOOTH",
"512 673 OFFCURVE",
"407 673 OFFCURVE",
"346 726 CURVE",
"359 600 LINE",
"556 600 LINE SMOOTH",
"595 600 OFFCURVE",
"633 589 OFFCURVE",
"653 576 CURVE SMOOTH",
"672 563 OFFCURVE",
"708 513 OFFCURVE",
"766 428 CURVE SMOOTH",
"824 343 OFFCURVE",
"893 258 OFFCURVE",
"948 203 CURVE SMOOTH",
"1015 136 OFFCURVE",
"1221 -25 OFFCURVE",
"1386 -25 CURVE SMOOTH"
);
},
{
closed = 1;
nodes = (
"607 0 LINE",
"607 50 LINE",
"343 80 LINE",
"73 50 LINE",
"73 0 LINE"
);
},
{
closed = 1;
nodes = (
"394 1358 LINE",
"73 1358 LINE",
"73 1298 LINE",
"394 1268 LINE"
);
}
);
width = 1516;
},
{
anchors = (
{
name = bottom;
position = "{704, 0}";
},
{
name = top;
position = "{610, 1358}";
}
);
layerId = "20F63CDD-78BD-4F3A-8DC2-32840B76756A";
paths = (
{
closed = 1;
nodes = (
"1311 -25 OFFCURVE",
"1345 -23 OFFCURVE",
"1381 -19 CURVE",
"1381 39 LINE",
"1329 42 OFFCURVE",
"1268 90 OFFCURVE",
"1209 158 CURVE SMOOTH",
"1105 278 OFFCURVE",
"991 447 OFFCURVE",
"894 627 CURVE",
"1108 690 OFFCURVE",
"1207 800 OFFCURVE",
"1207 974 CURVE SMOOTH",
"1207 1238 OFFCURVE",
"966 1358 OFFCURVE",
"661 1358 CURVE SMOOTH",
"221 1358 LINE",
"221 36 LINE",
"476 36 LINE",
"476 1268 LINE",
"571 1268 LINE SMOOTH",
"775 1268 OFFCURVE",
"913 1149 OFFCURVE",
"913 971 CURVE SMOOTH",
"913 779 OFFCURVE",
"806 681 OFFCURVE",
"598 681 CURVE SMOOTH",
"545 681 OFFCURVE",
"461 687 OFFCURVE",
"432 709 CURVE",
"439 590 LINE",
"569 590 LINE SMOOTH",
"587 590 OFFCURVE",
"606 587 OFFCURVE",
"627 567 CURVE SMOOTH",
"636 558 OFFCURVE",
"686 492 OFFCURVE",
"722 427 CURVE SMOOTH",
"760 359 OFFCURVE",
"836 247 OFFCURVE",
"886 195 CURVE SMOOTH",
"1007 70 OFFCURVE",
"1146 -25 OFFCURVE",
"1280 -25 CURVE SMOOTH"
);
},
{
closed = 1;
nodes = (
"632 0 LINE",
"632 72 LINE",
"350 102 LINE",
"70 72 LINE",
"70 0 LINE"
);
},
{
closed = 1;
nodes = (
"346 1358 LINE",
"70 1358 LINE",
"70 1286 LINE",
"346 1256 LINE"
);
}
);
width = 1399;
},
{
anchors = (
{
name = bottom;
position = "{690, 0}";
},
{
name = top;
position = "{605, 1358}";
}
);
associatedMasterId = "20F63CDD-78BD-4F3A-8DC2-32840B76756A";
hints = (
{
horizontal = 1;
origin = "{1, 4}";
target = "{1, 3}";
type = TTStem;
options = 4;
},
{
horizontal = 1;
origin = "{1, 3}";
target = "{1, 1}";
type = Align;
options = 4;
},
{
horizontal = 1;
origin = "{0, 43}";
target = "{0, 3}";
type = TTStem;
options = 4;
},
{
horizontal = 1;
origin = "{2, 1}";
target = "{2, 2}";
type = TTStem;
options = 4;
},
{
horizontal = 1;
origin = "{2, 1}";
target = "{0, 16}";
type = Align;
options = 4;
},
{
horizontal = 1;
origin = "{2, 1}";
target = "{0, 15}";
type = Align;
options = 4;
},
{
horizontal = 1;
origin = "{2, 2}";
target = "{0, 19}";
type = Align;
options = 4;
},
{
horizontal = 1;
origin = "{1, 4}";
target = "{2, 1}";
other1 = "{0, 26}";
type = Interpolate;
},
{
horizontal = 1;
origin = "{0, 26}";
target = "{0, 31}";
type = TTStem;
options = 4;
},
{
origin = "{0, 17}";
type = Anchor;
},
{
origin = "{0, 17}";
target = "{0, 18}";
type = TTStem;
},
{
origin = "{0, 12}";
type = Anchor;
},
{
origin = "{0, 12}";
target = "{0, 23}";
type = TTStem;
},
{
horizontal = 1;
origin = "{1, 4}";
type = Anchor;
},
{
horizontal = 1;
origin = "{2, 1}";
type = Anchor;
},
{
horizontal = 1;
origin = "{1, 3}";
target = "{1, 4}";
other1 = "{0, 17}";
type = Interpolate;
options = 4;
}
);
layerId = "F2AB8AE8-1D79-4746-AD81-7669920B62A9";
leftMetricsKey = "=4";
name = "{800, 18, 500, 0}";
paths = (
{
closed = 1;
nodes = (
"1336 -25 OFFCURVE",
"1386 -21 OFFCURVE",
"1434 -15 CURVE",
"1434 65 LINE",
"1378 73 OFFCURVE",
"1348 109 OFFCURVE",
"1288 182 CURVE SMOOTH",
"1179 315 OFFCURVE",
"1119 414 OFFCURVE",
"993 629 CURVE",
"1239 709 OFFCURVE",
"1335 832 OFFCURVE",
"1335 997 CURVE SMOOTH",
"1335 1301 OFFCURVE",
"1000 1358 OFFCURVE",
"674 1358 CURVE SMOOTH",
"138 1358 LINE",
"138 49 LINE",
"539 49 LINE",
"539 1236 LINE",
"567 1236 LINE SMOOTH",
"739 1236 OFFCURVE",
"855 1149 OFFCURVE",
"855 958 CURVE SMOOTH",
"855 811 OFFCURVE",
"783 700 OFFCURVE",
"612 700 CURVE SMOOTH",
"552 700 OFFCURVE",
"531 700 OFFCURVE",
"509 700 CURVE",
"511 578 LINE",
"556 578 LINE SMOOTH",
"569 578 OFFCURVE",
"579 575 OFFCURVE",
"602 550 CURVE SMOOTH",
"616 535 OFFCURVE",
"659 470 OFFCURVE",
"684 426 CURVE SMOOTH",
"706 387 OFFCURVE",
"802 242 OFFCURVE",
"919 132 CURVE SMOOTH",
"1055 4 OFFCURVE",
"1162 -25 OFFCURVE",
"1290 -25 CURVE SMOOTH"
);
},
{
closed = 1;
nodes = (
"674 0 LINE",
"674 98 LINE",
"336 128 LINE",
"4 98 LINE",
"4 0 LINE"
);
},
{
closed = 1;
nodes = (
"286 1358 LINE",
"4 1358 LINE",
"4 1260 LINE",
"286 1230 LINE"
);
}
);
width = 1454;
}
);
leftMetricsKey = H;
note = R;
rightKerningGroup = R;
rightMetricsKey = A;
unicode = 0052;
},
{
glyphname = S;
lastChange = "2019-04-04 01:29:42 +0000";
layers = (
{
anchors = (
{
name = bottom;
position = "{525, 0}";
},
{
name = top;
position = "{563, 1358}";
}
);
layerId = "6CE37295-6E30-426D-87AF-6FEE9061C297";
paths = (
{
closed = 1;
nodes = (
"840 -27 OFFCURVE",
"1006 143 OFFCURVE",
"1006 404 CURVE SMOOTH",
"1006 694 OFFCURVE",
"801 776 OFFCURVE",
"644 825 CURVE SMOOTH",
"500 869 OFFCURVE",
"346 917 OFFCURVE",
"346 1079 CURVE SMOOTH",
"346 1195 OFFCURVE",
"432 1291 OFFCURVE",
"577 1291 CURVE SMOOTH",
"721 1291 OFFCURVE",
"855 1186 OFFCURVE",
"853 968 CURVE",
"967 968 LINE",
"1028 1370 LINE",
"914 1370 LINE",
"880 1154 LINE",
"945 1208 LINE",
"832 1324 OFFCURVE",
"714 1384 OFFCURVE",
"555 1384 CURVE SMOOTH",
"299 1384 OFFCURVE",
"101 1231 OFFCURVE",
"101 988 CURVE SMOOTH",
"101 740 OFFCURVE",
"337 629 OFFCURVE",
"499 576 CURVE SMOOTH",
"676 518 OFFCURVE",
"733 453 OFFCURVE",
"733 314 CURVE SMOOTH",
"733 177 OFFCURVE",
"675 74 OFFCURVE",
"539 74 CURVE SMOOTH",
"374 74 OFFCURVE",
"229 228 OFFCURVE",
"229 455 CURVE",
"125 468 LINE",
"77 141 LINE",
"175 16 OFFCURVE",
"386 -27 OFFCURVE",
"539 -27 CURVE SMOOTH"
);
}
);
userData = {
assembly = "MPPEM[ ]\011/* MeasurePixelPerEm */
PUSHB[ ]\011/* 1 value pushed */
60 
LT[ ]\011/* LessThan */
IF[ ]\011/* If */
NPUSHB[ ]\011/* 34 values pushed */
0 1 5 2 5 1 2 128 0 4 4 68 77 0 5 5 3 97 0 3 3 74 77 0 2 2 0 97 0 0 0 75 0 78 
ELSE[ ]\011/* Else */
NPUSHB[ ]\011/* 35 values pushed */
0 4 3 5 3 4 5 128 0 1 5 2 5 1 2 128 0 3 0 5 1 3 5 105 0 2 2 0 97 0 0 0 75 0 78 
EIF[ ]\011/* EndIf */
NPUSHB[ ]\011/* 9 values pushed */
41 34 42 36 37 35 6 11 28 
CALL[ ]\011/* CallFunction */";
};
width = 1074;
},
{
anchors = (
{
name = bottom;
position = "{494, 0}";
},
{
name = top;
position = "{543, 1358}";
}
);
guideLines = (
{
angle = -21.0375;
position = "{479, 649}";
}
);
hints = (
{
origin = "{rsb}";
target = "{0, 2}";
type = TTStem;
},
{
origin = "{0, 2}";
target = "{0, 31}";
type = TTStem;
},
{
origin = "{0, 15}";
target = "{0, 2}";
type = TTStem;
stem = -1;
},
{
origin = "{0, 15}";
target = "{0, 14}";
type = TTStem;
},
{
origin = "{0, 15}";
target = "{0, 16}";
type = TTStem;
stem = -1;
options = 4;
},
{
origin = "{0, 14}";
target = "{0, 17}";
type = TTStem;
stem = -1;
options = 4;
},
{
origin = "{0, 25}";
type = Anchor;
},
{
origin = "{0, 25}";
target = "{0, 8}";
type = TTStem;
options = 4;
},
{
origin = "{0, 25}";
target = "{0, 38}";
type = TTStem;
stem = -1;
},
{
origin = "{0, 38}";
target = "{0, 37}";
type = TTStem;
},
{
horizontal = 1;
origin = "{0, 22}";
type = Anchor;
},
{
horizontal = 1;
origin = "{0, 22}";
target = "{0, 11}";
type = TTStem;
options = 4;
},
{
horizontal = 1;
origin = "{0, 42}";
type = Anchor;
},
{
horizontal = 1;
origin = "{0, 42}";
target = "{0, 34}";
type = TTStem;
options = 4;
}
);
layerId = "EBD25FEC-6C57-4903-A936-5FDFC9C63FB2";
paths = (
{
closed = 1;
nodes = (
"753 -27 OFFCURVE",
"911 142 OFFCURVE",
"911 371 CURVE SMOOTH",
"911 608 OFFCURVE",
"744 700 OFFCURVE",
"569 771 CURVE SMOOTH",
"403 837 OFFCURVE",
"255 896 OFFCURVE",
"255 1062 CURVE SMOOTH",
"255 1220 OFFCURVE",
"368 1322 OFFCURVE",
"510 1322 CURVE SMOOTH",
"641 1322 OFFCURVE",
"797 1236 OFFCURVE",
"809 966 CURVE",
"869 966 LINE",
"924 1371 LINE",
"864 1371 LINE",
"843 1178 LINE",
"864 1202 LINE",
"756 1349 OFFCURVE",
"620 1385 OFFCURVE",
"513 1385 CURVE SMOOTH",
"300 1385 OFFCURVE",
"146 1243 OFFCURVE",
"146 1025 CURVE SMOOTH",
"146 791 OFFCURVE",
"324 704 OFFCURVE",
"483 644 CURVE SMOOTH",
"637 585 OFFCURVE",
"799 520 OFFCURVE",
"799 329 CURVE SMOOTH",
"799 163 OFFCURVE",
"676 36 OFFCURVE",
"500 36 CURVE SMOOTH",
"330 36 OFFCURVE",
"204 153 OFFCURVE",
"204 467 CURVE",
"146 475 LINE",
"107 156 LINE",
"202 27 OFFCURVE",
"344 -27 OFFCURVE",
"492 -27 CURVE SMOOTH"
);
}
);
width = 1029;
},
{
anchors = (
{
name = bottom;
position = "{547, 0}";
},
{
name = top;
position = "{576, 1358}";
}
);
layerId = "16DF9356-34D2-4C02-8100-FB39A491A1B7";
paths = (
{
closed = 1;
nodes = (
"830 -27 OFFCURVE",
"989 142 OFFCURVE",
"989 370 CURVE SMOOTH",
"989 671 OFFCURVE",
"708 753 OFFCURVE",
"582 791 CURVE SMOOTH",
"380 851 OFFCURVE",
"289 928 OFFCURVE",
"289 1075 CURVE SMOOTH",
"289 1245 OFFCURVE",
"408 1322 OFFCURVE",
"564 1322 CURVE SMOOTH",
"706 1322 OFFCURVE",
"848 1237 OFFCURVE",
"878 966 CURVE",
"952 966 LINE",
"1011 1371 LINE",
"937 1371 LINE",
"905 1159 LINE",
"936 1213 LINE",
"813 1349 OFFCURVE",
"674 1385 OFFCURVE",
"562 1385 CURVE SMOOTH",
"336 1385 OFFCURVE",
"170 1257 OFFCURVE",
"170 1028 CURVE SMOOTH",
"170 825 OFFCURVE",
"311 698 OFFCURVE",
"573 626 CURVE SMOOTH",
"705 590 OFFCURVE",
"870 521 OFFCURVE",
"870 319 CURVE SMOOTH",
"870 150 OFFCURVE",
"754 37 OFFCURVE",
"574 37 CURVE SMOOTH",
"391 37 OFFCURVE",
"252 173 OFFCURVE",
"252 467 CURVE",
"179 474 LINE",
"130 106 LINE",
"275 9 OFFCURVE",
"397 -27 OFFCURVE",
"534 -27 CURVE SMOOTH"
);
}
);
width = 1139;
},
{
anchors = (
{
name = bottom;
position = "{510, 0}";
},
{
name = top;
position = "{546, 1358}";
}
);
layerId = "20F63CDD-78BD-4F3A-8DC2-32840B76756A";
paths = (
{
closed = 1;
nodes = (
"759 -27 OFFCURVE",
"909 115 OFFCURVE",
"909 388 CURVE SMOOTH",
"909 611 OFFCURVE",
"807 711 OFFCURVE",
"590 814 CURVE SMOOTH",
"421 894 OFFCURVE",
"343 960 OFFCURVE",
"343 1086 CURVE SMOOTH",
"343 1211 OFFCURVE",
"425 1294 OFFCURVE",
"546 1294 CURVE SMOOTH",
"694 1294 OFFCURVE",
"776 1165 OFFCURVE",
"776 968 CURVE",
"885 968 LINE",
"932 1370 LINE",
"823 1370 LINE",
"796 1143 LINE",
"864 1209 LINE",
"800 1324 OFFCURVE",
"690 1384 OFFCURVE",
"526 1384 CURVE SMOOTH",
"289 1384 OFFCURVE",
"141 1259 OFFCURVE",
"141 1022 CURVE SMOOTH",
"141 844 OFFCURVE",
"227 712 OFFCURVE",
"438 609 CURVE SMOOTH",
"636 512 OFFCURVE",
"686 432 OFFCURVE",
"686 305 CURVE SMOOTH",
"686 154 OFFCURVE",
"607 71 OFFCURVE",
"487 71 CURVE SMOOTH",
"327 71 OFFCURVE",
"240 220 OFFCURVE",
"240 464 CURVE",
"140 479 LINE",
"98 118 LINE",
"216 22 OFFCURVE",
"346 -27 OFFCURVE",
"497 -27 CURVE SMOOTH"
);
}
);
width = 1029;
}
);
leftKerningGroup = S;
note = S;
rightKerningGroup = S;
unicode = 0053;
},
{
glyphname = uni1E9E;
lastChange = "2019-04-04 01:30:54 +0000";
layers = (
{
anchors = (
{
name = bottom;
position = "{746, 0}";
},
{
name = top;
position = "{746, 1358}";
}
);
layerId = "6CE37295-6E30-426D-87AF-6FEE9061C297";
paths = (
{
closed = 1;
nodes = (
"1283 -26 OFFCURVE",
"1484 116 OFFCURVE",
"1484 373 CURVE SMOOTH",
"1484 609 OFFCURVE",
"1278 739 OFFCURVE",
"977 739 CURVE",
"1016 713 LINE",
"1374 1300 LINE",
"1362 1319 LINE",
"1265 1360 OFFCURVE",
"1103 1384 OFFCURVE",
"927 1384 CURVE SMOOTH",
"520 1384 OFFCURVE",
"187 1176 OFFCURVE",
"187 770 CURVE SMOOTH",
"187 40 LINE",
"494 40 LINE",
"494 737 LINE SMOOTH",
"494 1061 OFFCURVE",
"560 1291 OFFCURVE",
"877 1291 CURVE SMOOTH",
"970 1291 OFFCURVE",
"1039 1275 OFFCURVE",
"1068 1247 CURVE",
"1061 1285 LINE",
"731 721 LINE",
"793 660 LINE",
"1034 660 OFFCURVE",
"1163 552 OFFCURVE",
"1163 336 CURVE SMOOTH",
"1163 158 OFFCURVE",
"1124 73 OFFCURVE",
"1008 73 CURVE SMOOTH",
"886 73 OFFCURVE",
"796 186 OFFCURVE",
"774 375 CURVE",
"629 375 LINE",
"629 274 OFFCURVE",
"643 192 OFFCURVE",
"677 82 CURVE",
"732 23 OFFCURVE",
"880 -26 OFFCURVE",
"1001 -26 CURVE SMOOTH"
);
},
{
closed = 1;
nodes = (
"639 0 LINE",
"639 81 LINE",
"339 111 LINE",
"42 81 LINE",
"42 0 LINE"
);
}
);
userData = {
assembly = "NPUSHB[ ]\011/* 18 values pushed */
59 1 4 8 30 1 9 4 25 1 3 9 8 1 5 1 4 76 
MPPEM[ ]\011/* MeasurePixelPerEm */
PUSHB[ ]\011/* 1 value pushed */
51 
LT[ ]\011/* LessThan */
IF[ ]\011/* If */
NPUSHB[ ]\011/* 54 values pushed */
0 9 4 3 4 9 3 128 0 3 1 4 3 1 126 0 1 5 4 1 5 126 0 4 4 8 97 0 8 8 74 77 7 1 5 5 6 95 0 6 6 69 77 0 2 2 0 98 0 0 0 75 0 78 
ELSE[ ]\011/* Else */
MPPEM[ ]\011/* MeasurePixelPerEm */
PUSHB[ ]\011/* 1 value pushed */
60 
LT[ ]\011/* LessThan */
IF[ ]\011/* If */
NPUSHB[ ]\011/* 52 values pushed */
0 9 4 3 4 9 3 128 0 3 1 4 3 1 126 0 1 5 4 1 5 126 7 1 5 0 6 0 5 6 103 0 4 4 8 97 0 8 8 74 77 0 2 2 0 98 0 0 0 75 0 78 
ELSE[ ]\011/* Else */
NPUSHB[ ]\011/* 50 values pushed */
0 9 4 3 4 9 3 128 0 3 1 4 3 1 126 0 1 5 4 1 5 126 0 8 0 4 9 8 4 105 7 1 5 0 6 0 5 6 103 0 2 2 0 98 0 0 0 75 0 78 
EIF[ ]\011/* EndIf */
EIF[ ]\011/* EndIf */
NPUSHB[ ]\011/* 14 values pushed */
64 63 36 34 66 20 41 36 36 23 34 10 11 31 
CALL[ ]\011/* CallFunction */";
};
width = 1499;
},
{
anchors = (
{
name = bottom;
position = "{732, 0}";
},
{
name = top;
position = "{732, 1358}";
}
);
hints = (
{
horizontal = 1;
origin = "{1, 4}";
target = "{1, 3}";
type = TTStem;
options = 4;
},
{
horizontal = 1;
origin = "{1, 3}";
target = "{1, 1}";
type = Align;
options = 4;
},
{
horizontal = 1;
origin = "{0, 42}";
target = "{0, 32}";
type = TTStem;
options = 4;
},
{
horizontal = 1;
origin = "{0, 11}";
target = "{0, 20}";
type = TTStem;
options = 4;
},
{
horizontal = 1;
origin = "{0, 26}";
target = "{0, 5}";
type = TTStem;
options = 4;
},
{
horizontal = 1;
origin = "{0, 32}";
target = "{0, 20}";
other1 = "{0, 26}";
type = Interpolate;
},
{
origin = "{0, 15}";
type = Anchor;
},
{
origin = "{rsb}";
target = "{0, 2}";
type = TTStem;
stem = -1;
options = 4;
},
{
origin = "{0, 15}";
target = "{0, 16}";
type = TTStem;
options = 4;
},
{
origin = "{0, 2}";
target = "{0, 29}";
type = TTStem;
options = 4;
},
{
origin = "{0, 36}";
target = "{0, 35}";
type = TTStem;
options = 4;
},
{
horizontal = 1;
origin = "{1, 4}";
type = Anchor;
},
{
horizontal = 1;
origin = "{0, 42}";
type = Anchor;
},
{
horizontal = 1;
origin = "{0, 11}";
type = Anchor;
},
{
horizontal = 1;
origin = "{1, 3}";
target = "{1, 4}";
other1 = "{0, 15}";
type = Interpolate;
options = 4;
}
);
layerId = "EBD25FEC-6C57-4903-A936-5FDFC9C63FB2";
paths = (
{
closed = 1;
nodes = (
"1201 -34 OFFCURVE",
"1366 130 OFFCURVE",
"1366 372 CURVE SMOOTH",
"1366 591 OFFCURVE",
"1191 739 OFFCURVE",
"930 739 CURVE",
"932 721 LINE",
"1279 1288 LINE",
"1260 1329 LINE",
"1145 1367 OFFCURVE",
"1038 1385 OFFCURVE",
"908 1385 CURVE SMOOTH",
"506 1385 OFFCURVE",
"248 1182 OFFCURVE",
"248 770 CURVE SMOOTH",
"248 25 LINE",
"381 25 LINE",
"381 738 LINE SMOOTH",
"381 1098 OFFCURVE",
"527 1320 OFFCURVE",
"858 1320 CURVE SMOOTH",
"938 1320 OFFCURVE",
"1051 1298 OFFCURVE",
"1090 1240 CURVE",
"1109 1291 LINE",
"774 719 LINE",
"798 683 LINE",
"1042 683 OFFCURVE",
"1206 553 OFFCURVE",
"1206 360 CURVE SMOOTH",
"1206 189 OFFCURVE",
"1137 43 OFFCURVE",
"982 43 CURVE SMOOTH",
"828 43 OFFCURVE",
"725 179 OFFCURVE",
"703 374 CURVE",
"637 374 LINE",
"637 275 OFFCURVE",
"653 177 OFFCURVE",
"686 74 CURVE",
"755 9 OFFCURVE",
"858 -34 OFFCURVE",
"964 -34 CURVE SMOOTH"
);
},
{
closed = 1;
nodes = (
"575 0 LINE",
"575 50 LINE",
"318 80 LINE",
"54 50 LINE",
"54 0 LINE"
);
}
);
width = 1401;
},
{
anchors = (
{
name = bottom;
position = "{773, 0}";
},
{
name = top;
position = "{773, 1358}";
}
);
layerId = "16DF9356-34D2-4C02-8100-FB39A491A1B7";
paths = (
{
closed = 1;
nodes = (
"1269 -34 OFFCURVE",
"1444 130 OFFCURVE",
"1444 372 CURVE SMOOTH",
"1444 591 OFFCURVE",
"1258 739 OFFCURVE",
"978 739 CURVE",
"981 721 LINE",
"1352 1288 LINE",
"1332 1329 LINE",
"1208 1366 OFFCURVE",
"1094 1385 OFFCURVE",
"954 1385 CURVE SMOOTH",
"534 1385 OFFCURVE",
"248 1190 OFFCURVE",
"248 770 CURVE SMOOTH",
"248 25 LINE",
"392 25 LINE",
"392 738 LINE SMOOTH",
"392 1106 OFFCURVE",
"554 1320 OFFCURVE",
"901 1320 CURVE SMOOTH",
"987 1320 OFFCURVE",
"1112 1301 OFFCURVE",
"1171 1226 CURVE",
"1189 1291 LINE",
"831 719 LINE",
"836 682 LINE",
"1108 682 OFFCURVE",
"1290 553 OFFCURVE",
"1290 360 CURVE SMOOTH",
"1290 189 OFFCURVE",
"1211 43 OFFCURVE",
"1034 43 CURVE SMOOTH",
"871 43 OFFCURVE",
"759 174 OFFCURVE",
"735 374 CURVE",
"665 374 LINE",
"665 275 OFFCURVE",
"682 177 OFFCURVE",
"717 74 CURVE",
"791 9 OFFCURVE",
"901 -34 OFFCURVE",
"1015 -34 CURVE SMOOTH"
);
},
{
closed = 1;
nodes = (
"585 0 LINE",
"585 50 LINE",
"322 80 LINE",
"55 50 LINE",
"55 0 LINE"
);
}
);
width = 1481;
},
{
anchors = (
{
name = bottom;
position = "{735, 0}";
},
{
name = top;
position = "{735, 1358}";
}
);
layerId = "20F63CDD-78BD-4F3A-8DC2-32840B76756A";
paths = (
{
closed = 1;
nodes = (
"1197 -28 OFFCURVE",
"1366 136 OFFCURVE",
"1366 373 CURVE SMOOTH",
"1366 595 OFFCURVE",
"1191 739 OFFCURVE",
"935 739 CURVE",
"965 715 LINE",
"1294 1297 LINE",
"1281 1322 LINE",
"1188 1361 OFFCURVE",
"1051 1384 OFFCURVE",
"893 1384 CURVE SMOOTH",
"513 1384 OFFCURVE",
"212 1178 OFFCURVE",
"212 770 CURVE SMOOTH",
"212 36 LINE",
"469 36 LINE",
"469 737 LINE SMOOTH",
"469 1035 OFFCURVE",
"526 1294 OFFCURVE",
"847 1294 CURVE SMOOTH",
"929 1294 OFFCURVE",
"1002 1278 OFFCURVE",
"1030 1245 CURVE",
"1028 1287 LINE",
"723 721 LINE",
"773 666 LINE",
"992 666 OFFCURVE",
"1114 552 OFFCURVE",
"1114 343 CURVE SMOOTH",
"1114 170 OFFCURVE",
"1075 68 OFFCURVE",
"967 68 CURVE SMOOTH",
"850 68 OFFCURVE",
"764 186 OFFCURVE",
"744 375 CURVE",
"623 375 LINE",
"623 276 OFFCURVE",
"636 188 OFFCURVE",
"667 80 CURVE",
"720 19 OFFCURVE",
"850 -28 OFFCURVE",
"959 -28 CURVE SMOOTH"
);
},
{
closed = 1;
nodes = (
"624 0 LINE",
"624 72 LINE",
"342 102 LINE",
"59 72 LINE",
"59 0 LINE"
);
}
);
width = 1401;
}
);
note = uni1E9E;
rightMetricsKey = "=H/2";
unicode = 1E9E;
},
{
glyphname = T;
lastChange = "2019-04-04 01:31:45 +0000";
layers = (
{
anchors = (
{
name = bottom;
position = "{721, 0}";
},
{
name = center;
position = "{721, 679}";
},
{
name = overlay;
position = "{721, 684}";
},
{
name = top;
position = "{721, 1358}";
}
);
layerId = "6CE37295-6E30-426D-87AF-6FEE9061C297";
paths = (
{
closed = 1;
nodes = (
"875 40 LINE",
"875 1257 LINE",
"1117 1257 LINE SMOOTH",
"1184 1257 OFFCURVE",
"1218 1248 OFFCURVE",
"1240 1204 CURVE SMOOTH",
"1328 1022 LINE",
"1398 1022 LINE",
"1374 1121 OFFCURVE",
"1350 1288 OFFCURVE",
"1350 1319 CURVE SMOOTH",
"1350 1340 OFFCURVE",
"1350 1381 OFFCURVE",
"1357 1403 CURVE",
"1263 1400 LINE",
"1234 1368 OFFCURVE",
"1191 1358 OFFCURVE",
"1155 1358 CURVE",
"278 1358 LINE",
"246 1358 OFFCURVE",
"224 1370 OFFCURVE",
"206 1406 CURVE",
"128 1406 LINE",
"22 1021 LINE",
"91 1021 LINE",
"207 1202 LINE SMOOTH",
"231 1239 OFFCURVE",
"273 1257 OFFCURVE",
"426 1257 CURVE SMOOTH",
"568 1257 LINE",
"568 40 LINE"
);
},
{
closed = 1;
nodes = (
"1044 0 LINE",
"1044 81 LINE",
"720 111 LINE",
"399 81 LINE",
"399 0 LINE"
);
}
);
userData = {
assembly = "NPUSHB[ ]\011/* 11 values pushed */
35 1 3 4 36 20 2 0 3 2 76 
MPPEM[ ]\011/* MeasurePixelPerEm */
PUSHB[ ]\011/* 1 value pushed */
51 
LT[ ]\011/* LessThan */
IF[ ]\011/* If */
NPUSHB[ ]\011/* 23 values pushed */
5 1 3 3 4 95 0 4 4 68 77 2 1 0 0 1 95 0 1 1 69 1 78 
ELSE[ ]\011/* Else */
MPPEM[ ]\011/* MeasurePixelPerEm */
PUSHB[ ]\011/* 1 value pushed */
60 
LT[ ]\011/* LessThan */
IF[ ]\011/* If */
NPUSHB[ ]\011/* 20 values pushed */
2 1 0 0 1 0 1 99 5 1 3 3 4 95 0 4 4 68 3 78 
ELSE[ ]\011/* Else */
NPUSHB[ ]\011/* 27 values pushed */
0 4 5 1 3 0 4 3 105 2 1 0 1 1 0 89 2 1 0 0 1 95 0 1 0 1 79 
EIF[ ]\011/* EndIf */
EIF[ ]\011/* EndIf */
NPUSHB[ ]\011/* 9 values pushed */
57 89 51 34 66 17 6 11 28 
CALL[ ]\011/* CallFunction */";
};
width = 1420;
},
{
anchors = (
{
name = bottom;
position = "{733, 0}";
},
{
name = center;
position = "{733, 679}";
},
{
name = overlay;
position = "{733, 676}";
},
{
name = top;
position = "{733, 1358}";
}
);
hints = (
{
horizontal = 1;
origin = "{1, 4}";
target = "{1, 3}";
type = TTStem;
options = 4;
},
{
horizontal = 1;
origin = "{1, 3}";
target = "{1, 1}";
type = Align;
options = 4;
},
{
horizontal = 1;
origin = "{0, 18}";
target = "{0, 29}";
type = TTStem;
options = 4;
},
{
horizontal = 1;
origin = "{0, 29}";
target = "{0, 1}";
type = Align;
options = 4;
},
{
origin = "{0, 30}";
type = Anchor;
},
{
origin = "{0, 30}";
target = "{0, 0}";
type = TTStem;
options = 4;
},
{
horizontal = 1;
origin = "{0, 18}";
type = Anchor;
},
{
horizontal = 1;
origin = "{1, 4}";
type = Anchor;
},
{
horizontal = 1;
origin = "{1, 3}";
target = "{1, 4}";
other1 = "{0, 30}";
type = Interpolate;
options = 4;
}
);
layerId = "EBD25FEC-6C57-4903-A936-5FDFC9C63FB2";
paths = (
{
closed = 1;
nodes = (
"795 25 LINE",
"795 1295 LINE",
"1140 1295 LINE SMOOTH",
"1222 1295 OFFCURVE",
"1263 1284 OFFCURVE",
"1291 1219 CURVE SMOOTH",
"1377 1021 LINE",
"1419 1021 LINE",
"1393 1115 OFFCURVE",
"1369 1267 OFFCURVE",
"1369 1298 CURVE SMOOTH",
"1369 1326 OFFCURVE",
"1370 1352 OFFCURVE",
"1382 1380 CURVE",
"1329 1392 LINE",
"1304 1368 OFFCURVE",
"1267 1358 OFFCURVE",
"1236 1358 CURVE SMOOTH",
"263 1358 LINE SMOOTH",
"236 1358 OFFCURVE",
"195 1372 OFFCURVE",
"175 1399 CURVE",
"122 1399 LINE",
"24 1029 LINE",
"66 1029 LINE",
"181 1220 LINE SMOOTH",
"218 1281 OFFCURVE",
"249 1295 OFFCURVE",
"326 1295 CURVE SMOOTH",
"662 1295 LINE",
"662 25 LINE"
);
},
{
closed = 1;
nodes = (
"990 0 LINE",
"990 50 LINE",
"732 80 LINE",
"467 50 LINE",
"467 0 LINE"
);
}
);
width = 1448;
},
{
anchors = (
{
name = bottom;
position = "{773, 0}";
},
{
name = center;
position = "{773, 679}";
},
{
name = overlay;
position = "{773, 676}";
},
{
name = top;
position = "{773, 1358}";
}
);
layerId = "16DF9356-34D2-4C02-8100-FB39A491A1B7";
paths = (
{
closed = 1;
nodes = (
"840 25 LINE",
"840 1289 LINE",
"1194 1289 LINE SMOOTH",
"1280 1289 OFFCURVE",
"1323 1271 OFFCURVE",
"1348 1222 CURVE SMOOTH",
"1453 1016 LINE",
"1506 1016 LINE",
"1479 1110 OFFCURVE",
"1453 1268 OFFCURVE",
"1453 1299 CURVE SMOOTH",
"1453 1326 OFFCURVE",
"1454 1352 OFFCURVE",
"1467 1381 CURVE",
"1410 1392 LINE",
"1384 1368 OFFCURVE",
"1344 1358 OFFCURVE",
"1310 1358 CURVE",
"270 1358 LINE",
"241 1358 OFFCURVE",
"197 1372 OFFCURVE",
"175 1400 CURVE",
"119 1400 LINE",
"20 1024 LINE",
"73 1024 LINE",
"204 1226 LINE SMOOTH",
"240 1281 OFFCURVE",
"287 1289 OFFCURVE",
"376 1289 CURVE SMOOTH",
"696 1289 LINE",
"696 25 LINE"
);
},
{
closed = 1;
nodes = (
"1035 0 LINE",
"1035 50 LINE",
"770 80 LINE",
"501 50 LINE",
"501 0 LINE"
);
}
);
width = 1526;
},
{
anchors = (
{
name = bottom;
position = "{736, 0}";
},
{
name = center;
position = "{736, 679}";
},
{
name = overlay;
position = "{736, 682}";
},
{
name = top;
position = "{736, 1358}";
}
);
layerId = "20F63CDD-78BD-4F3A-8DC2-32840B76756A";
paths = (
{
closed = 1;
nodes = (
"863 36 LINE",
"863 1260 LINE",
"1104 1260 LINE SMOOTH",
"1187 1260 OFFCURVE",
"1226 1250 OFFCURVE",
"1252 1202 CURVE SMOOTH",
"1350 1021 LINE",
"1418 1021 LINE",
"1395 1118 OFFCURVE",
"1371 1283 OFFCURVE",
"1371 1314 CURVE SMOOTH",
"1371 1336 OFFCURVE",
"1371 1372 OFFCURVE",
"1379 1397 CURVE",
"1295 1398 LINE",
"1267 1368 OFFCURVE",
"1226 1358 OFFCURVE",
"1191 1358 CURVE",
"282 1358 LINE",
"252 1358 OFFCURVE",
"224 1370 OFFCURVE",
"205 1405 CURVE",
"132 1405 LINE",
"30 1022 LINE",
"98 1022 LINE",
"217 1189 LINE SMOOTH",
"255 1242 OFFCURVE",
"283 1260 OFFCURVE",
"380 1260 CURVE SMOOTH",
"606 1260 LINE",
"606 36 LINE"
);
},
{
closed = 1;
nodes = (
"1020 0 LINE",
"1020 72 LINE",
"736 102 LINE",
"450 72 LINE",
"450 0 LINE"
);
}
);
width = 1448;
}
);
leftKerningGroup = T;
note = T;
rightKerningGroup = T;
unicode = 0054;
},
{
glyphname = U;
lastChange = "2019-04-04 01:35:28 +0000";
layers = (
{
anchors = (
{
name = bottom;
position = "{702, 0}";
},
{
name = ogonek;
position = "{1187, 102}";
},
{
name = top;
position = "{786, 1358}";
}
);
layerId = "6CE37295-6E30-426D-87AF-6FEE9061C297";
paths = (
{
closed = 1;
nodes = (
"1012 -27 OFFCURVE",
"1199 41 OFFCURVE",
"1286 246 CURVE SMOOTH",
"1330 350 OFFCURVE",
"1351 501 OFFCURVE",
"1351 741 CURVE SMOOTH",
"1351 1311 LINE",
"1152 1311 LINE",
"1152 498 LINE SMOOTH",
"1152 210 OFFCURVE",
"1047 73 OFFCURVE",
"814 73 CURVE SMOOTH",
"572 73 OFFCURVE",
"497 205 OFFCURVE",
"497 530 CURVE SMOOTH",
"497 1311 LINE",
"190 1311 LINE",
"190 546 LINE SMOOTH",
"190 272 OFFCURVE",
"262 129 OFFCURVE",
"441 37 CURVE SMOOTH",
"515 -1 OFFCURVE",
"650 -27 OFFCURVE",
"772 -27 CURVE SMOOTH"
);
},
{
closed = 1;
nodes = (
"666 1277 LINE",
"666 1358 LINE",
"22 1358 LINE",
"22 1277 LINE",
"331 1247 LINE"
);
},
{
closed = 1;
nodes = (
"1508 1277 LINE",
"1508 1358 LINE",
"991 1358 LINE",
"991 1277 LINE",
"1240 1247 LINE"
);
}
);
userData = {
assembly = "PUSHB[ ]\011/* 6 values pushed */
2 1 4 1 1 76 
MPPEM[ ]\011/* MeasurePixelPerEm */
PUSHB[ ]\011/* 1 value pushed */
60 
LT[ ]\011/* LessThan */
IF[ ]\011/* If */
NPUSHB[ ]\011/* 25 values pushed */
7 5 3 3 1 1 2 95 6 1 2 2 68 77 0 4 4 0 97 0 0 0 75 0 78 
ELSE[ ]\011/* Else */
NPUSHB[ ]\011/* 23 values pushed */
6 1 2 7 5 3 3 1 4 2 1 105 0 4 4 0 97 0 0 0 75 0 78 
EIF[ ]\011/* EndIf */
NPUSHB[ ]\011/* 11 values pushed */
34 82 21 38 34 82 23 37 8 11 30 
CALL[ ]\011/* CallFunction */";
};
width = 1530;
},
{
anchors = (
{
name = bottom;
position = "{726, 0}";
},
{
name = ogonek;
position = "{1114, 102}";
},
{
name = top;
position = "{787, 1358}";
}
);
hints = (
{
horizontal = 1;
origin = "{0, 23}";
target = "{0, 11}";
type = TTStem;
options = 4;
},
{
horizontal = 1;
origin = "{1, 2}";
target = "{1, 3}";
type = TTStem;
options = 4;
},
{
horizontal = 1;
origin = "{1, 2}";
target = "{2, 2}";
type = Align;
options = 4;
},
{
horizontal = 1;
origin = "{1, 3}";
target = "{1, 0}";
type = Align;
options = 4;
},
{
horizontal = 1;
origin = "{1, 3}";
target = "{2, 3}";
type = Align;
options = 4;
},
{
horizontal = 1;
origin = "{1, 3}";
target = "{2, 0}";
type = Align;
options = 4;
},
{
origin = "{0, 16}";
target = "{0, 15}";
type = TTStem;
options = 4;
},
{
origin = "{0, 7}";
target = "{0, 6}";
type = TTStem;
stem = -1;
options = 4;
},
{
horizontal = 1;
origin = "{0, 23}";
type = Anchor;
},
{
horizontal = 1;
origin = "{1, 2}";
type = Anchor;
},
{
horizontal = 1;
origin = "{1, 3}";
target = "{1, 2}";
other1 = "{0, 16}";
type = Interpolate;
options = 4;
},
{
horizontal = 1;
origin = "{0, 16}";
target = "{0, 7}";
type = Align;
options = 4;
}
);
layerId = "EBD25FEC-6C57-4903-A936-5FDFC9C63FB2";
paths = (
{
closed = 1;
nodes = (
"973 -27 OFFCURVE",
"1143 71 OFFCURVE",
"1219 253 CURVE SMOOTH",
"1255 339 OFFCURVE",
"1259 494 OFFCURVE",
"1259 730 CURVE SMOOTH",
"1259 1326 LINE",
"1169 1326 LINE",
"1169 488 LINE SMOOTH",
"1169 172 OFFCURVE",
"1019 40 OFFCURVE",
"764 40 CURVE SMOOTH",
"555 40 OFFCURVE",
"382 144 OFFCURVE",
"382 540 CURVE SMOOTH",
"382 1326 LINE",
"249 1326 LINE",
"249 539 LINE SMOOTH",
"249 285 OFFCURVE",
"297 128 OFFCURVE",
"436 45 CURVE SMOOTH",
"508 2 OFFCURVE",
"611 -27 OFFCURVE",
"738 -27 CURVE SMOOTH"
);
},
{
closed = 1;
nodes = (
"577 1308 LINE",
"577 1358 LINE",
"53 1358 LINE",
"53 1308 LINE",
"314 1278 LINE"
);
},
{
closed = 1;
nodes = (
"1447 1308 LINE",
"1447 1358 LINE",
"976 1358 LINE",
"976 1308 LINE",
"1215 1278 LINE"
);
}
);
width = 1500;
},
{
anchors = (
{
name = bottom;
position = "{779, 0}";
},
{
name = ogonek;
position = "{1192, 102}";
},
{
name = top;
position = "{840, 1358}";
}
);
layerId = "16DF9356-34D2-4C02-8100-FB39A491A1B7";
paths = (
{
closed = 1;
nodes = (
"1050 -27 OFFCURVE",
"1236 74 OFFCURVE",
"1307 254 CURVE SMOOTH",
"1351 365 OFFCURVE",
"1353 496 OFFCURVE",
"1353 730 CURVE SMOOTH",
"1353 1322 LINE",
"1256 1322 LINE",
"1256 488 LINE SMOOTH",
"1256 173 OFFCURVE",
"1090 40 OFFCURVE",
"835 40 CURVE SMOOTH",
"415 40 OFFCURVE",
"415 408 OFFCURVE",
"415 540 CURVE SMOOTH",
"415 1322 LINE",
"271 1322 LINE",
"271 540 LINE SMOOTH",
"271 392 OFFCURVE",
"273 167 OFFCURVE",
"471 47 CURVE SMOOTH",
"552 -2 OFFCURVE",
"661 -27 OFFCURVE",
"791 -27 CURVE SMOOTH"
);
},
{
closed = 1;
nodes = (
"610 1308 LINE",
"610 1358 LINE",
"76 1358 LINE",
"76 1308 LINE",
"339 1278 LINE"
);
},
{
closed = 1;
nodes = (
"1527 1308 LINE",
"1527 1358 LINE",
"1079 1358 LINE",
"1079 1308 LINE",
"1298 1278 LINE"
);
}
);
width = 1603;
},
{
anchors = (
{
name = bottom;
position = "{699, 0}";
},
{
name = ogonek;
position = "{1139, 102}";
},
{
name = top;
position = "{773, 1358}";
}
);
layerId = "20F63CDD-78BD-4F3A-8DC2-32840B76756A";
paths = (
{
closed = 1;
nodes = (
"981 -27 OFFCURVE",
"1157 50 OFFCURVE",
"1235 246 CURVE SMOOTH",
"1277 351 OFFCURVE",
"1292 505 OFFCURVE",
"1292 738 CURVE SMOOTH",
"1292 1319 LINE",
"1127 1319 LINE",
"1127 495 LINE SMOOTH",
"1127 242 OFFCURVE",
"1047 70 OFFCURVE",
"788 70 CURVE SMOOTH",
"540 70 OFFCURVE",
"476 234 OFFCURVE",
"476 533 CURVE SMOOTH",
"476 1319 LINE",
"219 1319 LINE",
"219 545 LINE SMOOTH",
"219 300 OFFCURVE",
"269 136 OFFCURVE",
"443 39 CURVE SMOOTH",
"513 0 OFFCURVE",
"633 -27 OFFCURVE",
"752 -27 CURVE SMOOTH"
);
},
{
closed = 1;
nodes = (
"633 1286 LINE",
"633 1358 LINE",
"53 1358 LINE",
"53 1286 LINE",
"338 1256 LINE"
);
},
{
closed = 1;
nodes = (
"1448 1286 LINE",
"1448 1358 LINE",
"968 1358 LINE",
"968 1286 LINE",
"1202 1256 LINE"
);
}
);
width = 1500;
}
);
leftKerningGroup = U;
note = U;
rightKerningGroup = U;
unicode = 0055;
},
{
glyphname = V;
lastChange = "2019-04-04 01:36:02 +0000";
layers = (
{
anchors = (
{
name = bottom;
position = "{750, 0}";
},
{
name = top;
position = "{750, 1358}";
}
);
layerId = "6CE37295-6E30-426D-87AF-6FEE9061C297";
paths = (
{
closed = 1;
nodes = (
"748 -39 LINE",
"1319 1311 LINE",
"1128 1311 LINE",
"737 320 LINE",
"793 320 LINE",
"429 1311 LINE",
"136 1311 LINE",
"640 -39 LINE"
);
},
{
closed = 1;
nodes = (
"607 1277 LINE",
"607 1358 LINE",
"22 1358 LINE",
"22 1277 LINE",
"263 1247 LINE"
);
},
{
closed = 1;
nodes = (
"1434 1277 LINE",
"1434 1358 LINE",
"947 1358 LINE",
"947 1277 LINE",
"1199 1247 LINE"
);
}
);
userData = {
assembly = "PUSHB[ ]\011/* 5 values pushed */
38 14 2 2 74 
MPPEM[ ]\011/* MeasurePixelPerEm */
PUSHB[ ]\011/* 1 value pushed */
60 
LT[ ]\011/* LessThan */
IF[ ]\011/* If */
NPUSHB[ ]\011/* 28 values pushed */
0 4 1 0 1 4 0 128 7 5 3 3 1 1 2 95 6 1 2 2 68 77 0 0 0 75 0 78 
ELSE[ ]\011/* Else */
MPPEM[ ]\011/* MeasurePixelPerEm */
PUSHB[ ]\011/* 1 value pushed */
84 
LT[ ]\011/* LessThan */
IF[ ]\011/* If */
NPUSHB[ ]\011/* 26 values pushed */
0 4 1 0 1 4 0 128 6 1 2 7 5 3 3 1 4 2 1 105 0 0 0 75 0 78 
ELSE[ ]\011/* Else */
NPUSHB[ ]\011/* 33 values pushed */
0 4 1 0 1 4 0 128 0 0 0 132 6 1 2 1 1 2 87 6 1 2 2 1 97 7 5 3 3 1 2 1 81 
EIF[ ]\011/* EndIf */
EIF[ ]\011/* EndIf */
NPUSHB[ ]\011/* 11 values pushed */
35 66 22 21 35 66 19 33 8 11 30 
CALL[ ]\011/* CallFunction */";
};
width = 1456;
},
{
anchors = (
{
name = bottom;
position = "{667, 0}";
},
{
name = top;
position = "{667, 1358}";
}
);
hints = (
{
horizontal = 1;
origin = "{0, 7}";
type = Anchor;
},
{
horizontal = 1;
origin = "{1, 2}";
target = "{1, 3}";
type = TTStem;
options = 4;
},
{
horizontal = 1;
origin = "{1, 2}";
target = "{2, 2}";
type = Align;
options = 4;
},
{
horizontal = 1;
origin = "{1, 3}";
target = "{1, 0}";
type = Align;
options = 4;
},
{
horizontal = 1;
origin = "{1, 3}";
target = "{2, 3}";
type = Align;
options = 4;
},
{
horizontal = 1;
origin = "{1, 3}";
target = "{2, 0}";
type = Align;
options = 4;
},
{
horizontal = 1;
origin = "{1, 2}";
type = Anchor;
},
{
horizontal = 1;
origin = "{1, 3}";
target = "{1, 2}";
other1 = "{0, 6}";
type = Interpolate;
options = 4;
},
{
horizontal = 1;
origin = "{0, 6}";
target = "{0, 2}";
type = Align;
options = 4;
}
);
layerId = "EBD25FEC-6C57-4903-A936-5FDFC9C63FB2";
paths = (
{
closed = 1;
nodes = (
"672 -38 LINE",
"1156 1326 LINE",
"1072 1326 LINE",
"651 102 LINE",
"696 102 LINE",
"272 1326 LINE",
"138 1326 LINE",
"617 -38 LINE"
);
},
{
closed = 1;
nodes = (
"479 1308 LINE",
"479 1358 LINE",
"20 1358 LINE",
"20 1308 LINE",
"209 1278 LINE"
);
},
{
closed = 1;
nodes = (
"1273 1308 LINE",
"1273 1358 LINE",
"893 1358 LINE",
"893 1308 LINE",
"1108 1278 LINE"
);
}
);
width = 1293;
},
{
anchors = (
{
name = bottom;
position = "{727, 0}";
},
{
name = top;
position = "{747, 1358}";
}
);
layerId = "16DF9356-34D2-4C02-8100-FB39A491A1B7";
paths = (
{
closed = 1;
nodes = (
"735 -38 LINE",
"1242 1322 LINE",
"1150 1322 LINE",
"720 122 LINE",
"757 122 LINE",
"312 1322 LINE",
"165 1322 LINE",
"677 -38 LINE"
);
},
{
closed = 1;
nodes = (
"527 1308 LINE",
"527 1358 LINE",
"54 1358 LINE",
"54 1308 LINE",
"254 1278 LINE"
);
},
{
closed = 1;
nodes = (
"1353 1308 LINE",
"1353 1358 LINE",
"963 1358 LINE",
"963 1308 LINE",
"1193 1278 LINE"
);
}
);
width = 1408;
},
{
anchors = (
{
name = bottom;
position = "{619, 0}";
},
{
name = top;
position = "{679, 1358}";
}
);
layerId = "20F63CDD-78BD-4F3A-8DC2-32840B76756A";
paths = (
{
closed = 1;
nodes = (
"701 -39 LINE",
"1175 1319 LINE",
"1016 1319 LINE",
"693 270 LINE",
"741 270 LINE",
"368 1319 LINE",
"119 1319 LINE",
"610 -39 LINE"
);
},
{
closed = 1;
nodes = (
"552 1286 LINE",
"552 1358 LINE",
"18 1358 LINE",
"18 1286 LINE",
"246 1256 LINE"
);
},
{
closed = 1;
nodes = (
"1275 1286 LINE",
"1275 1358 LINE",
"828 1358 LINE",
"828 1286 LINE",
"1078 1256 LINE"
);
}
);
width = 1293;
}
);
leftKerningGroup = V;
leftMetricsKey = A;
note = V;
rightKerningGroup = V;
rightMetricsKey = A;
unicode = 0056;
},
{
glyphname = W;
lastChange = "2019-04-04 01:36:27 +0000";
layers = (
{
anchors = (
{
name = bottom;
position = "{1237, 0}";
},
{
name = top;
position = "{1248, 1358}";
}
);
layerId = "6CE37295-6E30-426D-87AF-6FEE9061C297";
paths = (
{
closed = 1;
nodes = (
"737 -41 LINE",
"1133 1057 LINE",
"1011 1266 LINE",
"692 256 LINE",
"777 285 LINE",
"437 1311 LINE",
"134 1311 LINE",
"604 -41 LINE"
);
},
{
closed = 1;
nodes = (
"1493 -41 LINE",
"1981 1311 LINE",
"1778 1311 LINE",
"1458 286 LINE",
"1533 285 LINE",
"1192 1311 LINE",
"890 1311 LINE",
"1360 -41 LINE"
);
},
{
closed = 1;
nodes = (
"617 1277 LINE",
"617 1358 LINE",
"22 1358 LINE",
"22 1277 LINE",
"268 1247 LINE"
);
},
{
closed = 1;
nodes = (
"1373 1277 LINE",
"1373 1358 LINE",
"778 1358 LINE",
"778 1277 LINE",
"1026 1247 LINE"
);
},
{
closed = 1;
nodes = (
"2091 1277 LINE",
"2091 1358 LINE",
"1593 1358 LINE",
"1593 1277 LINE",
"1848 1247 LINE"
);
}
);
userData = {
assembly = "NPUSHB[ ]\011/* 13 values pushed */
29 1 8 2 1 76 101 74 50 24 4 3 74 
MPPEM[ ]\011/* MeasurePixelPerEm */
PUSHB[ ]\011/* 1 value pushed */
60 
LT[ ]\011/* LessThan */
IF[ ]\011/* If */
NPUSHB[ ]\011/* 42 values pushed */
0 8 2 12 2 8 12 128 0 12 0 2 12 0 126 15 13 11 9 7 5 4 7 2 2 3 95 14 10 6 3 3 3 68 77 1 1 0 0 75 0 78 
ELSE[ ]\011/* Else */
MPPEM[ ]\011/* MeasurePixelPerEm */
PUSHB[ ]\011/* 1 value pushed */
84 
LT[ ]\011/* LessThan */
IF[ ]\011/* If */
NPUSHB[ ]\011/* 40 values pushed */
0 8 2 12 2 8 12 128 0 12 0 2 12 0 126 14 10 6 3 3 15 13 11 9 7 5 4 7 2 8 3 2 105 1 1 0 0 75 0 78 
ELSE[ ]\011/* Else */
NPUSHB[ ]\011/* 49 values pushed */
0 8 2 12 2 8 12 128 0 12 0 2 12 0 126 1 1 0 0 132 14 10 6 3 3 2 2 3 87 14 10 6 3 3 3 2 97 15 13 11 9 7 5 4 7 2 3 2 81 
EIF[ ]\011/* EndIf */
EIF[ ]\011/* EndIf */
NPUSHB[ ]\011/* 26 values pushed */
105 103 100 96 94 93 88 86 78 76 73 69 67 66 37 35 66 30 35 66 19 24 34 16 11 31 
CALL[ ]\011/* CallFunction */";
};
width = 2113;
},
{
anchors = (
{
name = bottom;
position = "{945.008, 0}";
},
{
name = top;
position = "{889, 1358}";
}
);
guideLines = (
{
position = "{1017, 242}";
}
);
hints = (
{
horizontal = 1;
origin = "{0, 7}";
type = Anchor;
},
{
horizontal = 1;
origin = "{0, 7}";
target = "{1, 7}";
type = Align;
options = 4;
},
{
horizontal = 1;
origin = "{2, 2}";
target = "{2, 3}";
type = TTStem;
options = 4;
},
{
horizontal = 1;
origin = "{2, 2}";
target = "{3, 2}";
type = Align;
options = 4;
},
{
horizontal = 1;
origin = "{2, 2}";
target = "{4, 2}";
type = Align;
options = 4;
},
{
horizontal = 1;
origin = "{2, 2}";
type = Anchor;
},
{
horizontal = 1;
origin = "{2, 3}";
target = "{2, 2}";
other1 = "{0, 6}";
type = Interpolate;
options = 4;
},
{
horizontal = 1;
origin = "{0, 6}";
target = "{1, 6}";
type = Align;
options = 4;
},
{
horizontal = 1;
origin = "{0, 6}";
target = "{1, 2}";
type = Align;
options = 4;
}
);
layerId = "EBD25FEC-6C57-4903-A936-5FDFC9C63FB2";
paths = (
{
closed = 1;
nodes = (
"593 -30 LINE",
"954 1109 LINE",
"908 1228 LINE",
"586 152 LINE",
"624 163 LINE",
"278 1326 LINE",
"141 1326 LINE",
"556 -30 LINE"
);
},
{
closed = 1;
nodes = (
"1250 -30 LINE",
"1679 1326 LINE",
"1592 1326 LINE",
"1243 154 LINE",
"1281 161 LINE",
"935 1326 LINE",
"797 1326 LINE",
"1213 -30 LINE"
);
},
{
closed = 1;
nodes = (
"472 1308 LINE",
"472 1358 LINE",
"20 1358 LINE",
"20 1308 LINE",
"229 1278 LINE"
);
},
{
closed = 1;
nodes = (
"1129 1308 LINE",
"1129 1358 LINE",
"677 1358 LINE",
"677 1308 LINE",
"876 1278 LINE"
);
},
{
closed = 1;
nodes = (
"1814 1308 LINE",
"1814 1358 LINE",
"1427 1358 LINE",
"1427 1308 LINE",
"1627 1278 LINE"
);
}
);
width = 1834;
},
{
anchors = (
{
name = bottom;
position = "{1211, 0}";
},
{
name = top;
position = "{1216, 1358}";
}
);
guideLines = (
{
position = "{986, 236}";
}
);
layerId = "16DF9356-34D2-4C02-8100-FB39A491A1B7";
paths = (
{
closed = 1;
nodes = (
"669 -30 LINE",
"1055 1108 LINE",
"1005 1229 LINE",
"661 152 LINE",
"702 171 LINE",
"334 1322 LINE",
"184 1322 LINE",
"628 -30 LINE"
);
},
{
closed = 1;
nodes = (
"1372 -30 LINE",
"1832 1322 LINE",
"1738 1322 LINE",
"1365 155 LINE",
"1409 162 LINE",
"1039 1322 LINE",
"889 1322 LINE",
"1333 -30 LINE"
);
},
{
closed = 1;
nodes = (
"539 1308 LINE",
"539 1358 LINE",
"54 1358 LINE",
"54 1308 LINE",
"266 1278 LINE"
);
},
{
closed = 1;
nodes = (
"1244 1308 LINE",
"1244 1358 LINE",
"758 1358 LINE",
"758 1308 LINE",
"974 1278 LINE"
);
},
{
closed = 1;
nodes = (
"1978 1308 LINE",
"1978 1358 LINE",
"1563 1358 LINE",
"1563 1308 LINE",
"1783 1278 LINE"
);
}
);
width = 2033;
},
{
anchors = (
{
name = bottom;
position = "{808, 0}";
},
{
name = top;
position = "{953, 1358}";
}
);
layerId = "20F63CDD-78BD-4F3A-8DC2-32840B76756A";
paths = (
{
closed = 1;
nodes = (
"634 -40 LINE",
"1026 1044 LINE",
"955 1216 LINE",
"595 246 LINE",
"673 274 LINE",
"368 1319 LINE",
"98 1319 LINE",
"507 -40 LINE"
);
},
{
closed = 1;
nodes = (
"1309 -40 LINE",
"1736 1319 LINE",
"1583 1319 LINE",
"1276 275 LINE",
"1348 274 LINE",
"1064 1319 LINE",
"776 1319 LINE",
"1185 -40 LINE"
);
},
{
closed = 1;
nodes = (
"534 1280 LINE",
"534 1358 LINE",
"18 1358 LINE",
"18 1280 LINE",
"235 1250 LINE"
);
},
{
closed = 1;
nodes = (
"1210 1280 LINE",
"1210 1358 LINE",
"697 1358 LINE",
"697 1280 LINE",
"911 1250 LINE"
);
},
{
closed = 1;
nodes = (
"1816 1280 LINE",
"1816 1358 LINE",
"1395 1358 LINE",
"1395 1280 LINE",
"1605 1250 LINE"
);
}
);
width = 1834;
}
);
leftKerningGroup = V;
leftMetricsKey = A;
note = W;
rightKerningGroup = V;
rightMetricsKey = A;
unicode = 0057;
},
